Marhey-Light.ufo
<glyph name="exclam" format="2">
  <advance width="303"/>
  <unicode hex="0021"/>
  <outline>
    <contour>
      <point x="183" y="189" type="line"/>
      <point x="208" y="371"/>
      <point x="209" y="584"/>
      <point x="208" y="758" type="curve"/>
      <point x="99" y="744" type="line"/>
      <point x="115" y="586"/>
      <point x="120" y="335"/>
      <point x="115" y="189" type="curve"/>
    </contour>
    <contour>
      <point x="194" y="-5" type="line"/>
      <point x="198" y="27"/>
      <point x="201" y="70"/>
      <point x="197" y="100" type="curve"/>
      <point x="97" y="104" type="line"/>
      <point x="100" y="69"/>
      <point x="99" y="33"/>
      <point x="95" y="2" type="curve"/>
    </contour>
  </outline>
</glyph>
<glyph name="ampersand" format="2">
  <advance width="687"/>
  <unicode hex="0026"/>
  <outline>
    <contour>
      <point x="616" y="0" type="curve"/>
      <point x="642" y="121" type="line"/>
      <point x="420" y="261"/>
      <point x="208" y="506"/>
      <point x="208" y="617" type="curve" smooth="yes"/>
      <point x="208" y="680"/>
      <point x="236" y="702"/>
      <point x="271" y="702" type="curve" smooth="yes"/>
      <point x="329" y="702"/>
      <point x="412" y="648"/>
      <point x="468" y="567" type="curve"/>
      <point x="500" y="668" type="line"/>
      <point x="419" y="729"/>
      <point x="328" y="762"/>
      <point x="258" y="762" type="curve" smooth="yes"/>
      <point x="177" y="762"/>
      <point x="123" y="718"/>
      <point x="123" y="621" type="curve" smooth="yes"/>
      <point x="123" y="424"/>
      <point x="407" y="141"/>
    </contour>
    <contour>
      <point x="247" y="-21" type="curve" smooth="yes"/>
      <point x="331" y="-21"/>
      <point x="424" y="14"/>
      <point x="542" y="157" type="curve"/>
      <point x="486" y="206" type="line"/>
      <point x="403" y="104"/>
      <point x="350" y="67"/>
      <point x="292" y="67" type="curve" smooth="yes"/>
      <point x="211" y="67"/>
      <point x="171" y="111"/>
      <point x="171" y="175" type="curve" smooth="yes"/>
      <point x="171" y="235"/>
      <point x="207" y="314"/>
      <point x="281" y="389" type="curve"/>
      <point x="220" y="450" type="line"/>
      <point x="106" y="335"/>
      <point x="65" y="261"/>
      <point x="65" y="156" type="curve" smooth="yes"/>
      <point x="65" y="66"/>
      <point x="127" y="-21"/>
    </contour>
  </outline>
</glyph>
<glyph name="quotesingle" format="2">
  <advance width="233"/>
  <unicode hex="0027"/>
  <outline>
    <contour>
      <point x="86" y="461" type="line"/>
      <point x="134" y="472" type="line"/>
      <point x="158" y="746" type="line"/>
      <point x="75" y="729" type="line"/>
    </contour>
  </outline>
</glyph>
<glyph name="parenleft" format="2">
  <advance width="328"/>
  <unicode hex="0028"/>
  <outline>
    <contour>
      <point x="179" y="-118" type="curve"/>
      <point x="251" y="-84" type="line"/>
      <point x="178" y="24"/>
      <point x="143" y="172"/>
      <point x="143" y="316" type="curve" smooth="yes"/>
      <point x="143" y="489"/>
      <point x="193" y="658"/>
      <point x="283" y="750" type="curve"/>
      <point x="216" y="803" type="line"/>
      <point x="114" y="682"/>
      <point x="65" y="495"/>
      <point x="65" y="311" type="curve" smooth="yes"/>
      <point x="65" y="148"/>
      <point x="104" y="-11"/>
    </contour>
  </outline>
</glyph>
<glyph name="plus" format="2">
  <advance width="504"/>
  <unicode hex="002B"/>
  <outline>
    <contour>
      <point x="459" y="313" type="curve"/>
      <point x="456" y="400" type="line"/>
      <point x="348" y="401"/>
      <point x="154" y="398"/>
      <point x="46" y="390" type="curve"/>
      <point x="45" y="324" type="line"/>
      <point x="155" y="325"/>
      <point x="349" y="321"/>
    </contour>
    <contour>
      <point x="194" y="123" type="curve"/>
      <point x="291" y="126" type="line"/>
      <point x="292" y="253"/>
      <point x="289" y="461"/>
      <point x="280" y="588" type="curve"/>
      <point x="206" y="589" type="line"/>
      <point x="207" y="460"/>
      <point x="203" y="252"/>
    </contour>
  </outline>
</glyph>
<glyph name="comma" format="2">
  <advance width="265"/>
  <unicode hex="002C"/>
  <outline>
    <contour>
      <point x="122" y="-139" type="line"/>
      <point x="167" y="-94"/>
      <point x="186" y="-52"/>
      <point x="187" y="2" type="curve" smooth="yes"/>
      <point x="185" y="44"/>
      <point x="190" y="77"/>
      <point x="190" y="117" type="curve"/>
      <point x="79" y="120" type="line"/>
      <point x="76" y="84"/>
      <point x="77" y="38"/>
      <point x="81" y="0" type="curve"/>
      <point x="171" y="2" type="line"/>
      <point x="154" y="16" type="line"/>
      <point x="143" y="1"/>
      <point x="112" y="-44"/>
      <point x="75" y="-68" type="curve"/>
    </contour>
  </outline>
</glyph>
<glyph name="hyphen" format="2">
  <advance width="418"/>
  <unicode hex="002D"/>
  <outline>
    <contour>
      <point x="373" y="239" type="curve"/>
      <point x="371" y="333" type="line"/>
      <point x="263" y="335"/>
      <point x="154" y="332"/>
      <point x="46" y="323" type="curve"/>
      <point x="45" y="251" type="line"/>
      <point x="155" y="252"/>
      <point x="263" y="248"/>
    </contour>
  </outline>
</glyph>
<glyph name="period" format="2">
  <advance width="263"/>
  <unicode hex="002E"/>
  <outline>
    <contour>
      <point x="79" y="0" type="curve"/>
      <point x="185" y="2" type="line"/>
      <point x="183" y="44"/>
      <point x="188" y="77"/>
      <point x="188" y="117" type="curve"/>
      <point x="77" y="120" type="line"/>
      <point x="74" y="84"/>
      <point x="75" y="38"/>
    </contour>
  </outline>
</glyph>
<glyph name="slash" format="2">
  <advance width="540"/>
  <unicode hex="002F"/>
  <outline>
    <contour>
      <point x="94" y="-28" type="line"/>
      <point x="495" y="816" type="line"/>
      <point x="436" y="858" type="line"/>
      <point x="45" y="20" type="line"/>
    </contour>
  </outline>
</glyph>
<glyph name="two" format="2">
  <advance width="635"/>
  <unicode hex="0032"/>
  <outline>
    <contour>
      <point x="116" y="21" type="line"/>
      <point x="412" y="265"/>
      <point x="557" y="449"/>
      <point x="557" y="575" type="curve" smooth="yes"/>
      <point x="557" y="716"/>
      <point x="454" y="758"/>
      <point x="324" y="758" type="curve" smooth="yes"/>
      <point x="249" y="758"/>
      <point x="166" y="742"/>
      <point x="87" y="717" type="curve"/>
      <point x="115" y="618" type="line"/>
      <point x="196" y="667"/>
      <point x="245" y="690"/>
      <point x="315" y="690" type="curve" smooth="yes"/>
      <point x="381" y="690"/>
      <point x="458" y="665"/>
      <point x="458" y="580" type="curve" smooth="yes"/>
      <point x="458" y="449"/>
      <point x="241" y="195"/>
      <point x="45" y="30" type="curve"/>
    </contour>
    <contour>
      <point x="570" y="-32" type="curve"/>
      <point x="590" y="59" type="line"/>
      <point x="453" y="78"/>
      <point x="192" y="95"/>
      <point x="45" y="30" type="curve"/>
      <point x="57" y="-12" type="line"/>
      <point x="201" y="10"/>
      <point x="410" y="0"/>
    </contour>
  </outline>
</glyph>
<glyph name="three" format="2">
  <advance width="662"/>
  <unicode hex="0033"/>
  <outline>
    <contour>
      <point x="169" y="275" type="line"/>
      <point x="393" y="330"/>
      <point x="528" y="459"/>
      <point x="528" y="574" type="curve" smooth="yes"/>
      <point x="528" y="676"/>
      <point x="454" y="759"/>
      <point x="322" y="759" type="curve" smooth="yes"/>
      <point x="237" y="759"/>
      <point x="145" y="741"/>
      <point x="79" y="717" type="curve"/>
      <point x="89" y="614" type="line"/>
      <point x="187" y="662"/>
      <point x="267" y="678"/>
      <point x="332" y="678" type="curve" smooth="yes"/>
      <point x="419" y="678"/>
      <point x="455" y="633"/>
      <point x="455" y="590" type="curve" smooth="yes"/>
      <point x="455" y="492"/>
      <point x="348" y="402"/>
      <point x="151" y="355" type="curve"/>
    </contour>
    <contour>
      <point x="255" y="-12" type="curve" smooth="yes"/>
      <point x="487" y="-12"/>
      <point x="597" y="88"/>
      <point x="597" y="196" type="curve" smooth="yes"/>
      <point x="597" y="288"/>
      <point x="530" y="371"/>
      <point x="393" y="371" type="curve" smooth="yes"/>
      <point x="355" y="371"/>
      <point x="312" y="366"/>
      <point x="262" y="353" type="curve"/>
      <point x="180" y="278" type="line"/>
      <point x="212" y="287"/>
      <point x="269" y="297"/>
      <point x="326" y="297" type="curve" smooth="yes"/>
      <point x="458" y="297"/>
      <point x="524" y="238"/>
      <point x="524" y="181" type="curve" smooth="yes"/>
      <point x="524" y="121"/>
      <point x="458" y="55"/>
      <point x="322" y="55" type="curve" smooth="yes"/>
      <point x="255" y="55"/>
      <point x="158" y="70"/>
      <point x="52" y="108" type="curve"/>
      <point x="45" y="14" type="line"/>
      <point x="114" y="-4"/>
      <point x="199" y="-12"/>
    </contour>
  </outline>
</glyph>
<glyph name="four" format="2">
  <advance width="678"/>
  <unicode hex="0034"/>
  <outline>
    <contour>
      <point x="100" y="242" type="line"/>
      <point x="292" y="326"/>
      <point x="490" y="593"/>
      <point x="482" y="726" type="curve"/>
      <point x="399" y="718" type="line"/>
      <point x="399" y="616"/>
      <point x="261" y="362"/>
      <point x="45" y="256" type="curve"/>
    </contour>
    <contour>
      <point x="533" y="196" type="curve"/>
      <point x="570" y="293" type="line"/>
      <point x="407" y="298"/>
      <point x="251" y="297"/>
      <point x="45" y="256" type="curve"/>
      <point x="57" y="207" type="line"/>
      <point x="185" y="218"/>
      <point x="364" y="218"/>
    </contour>
    <contour>
      <point x="497" y="4" type="curve"/>
      <point x="571" y="20" type="line"/>
      <point x="585" y="240"/>
      <point x="587" y="362"/>
      <point x="573" y="570" type="curve"/>
      <point x="477" y="546" type="line"/>
      <point x="509" y="324"/>
      <point x="503" y="222"/>
    </contour>
  </outline>
</glyph>
<glyph name="six" format="2">
  <advance width="674"/>
  <unicode hex="0036"/>
  <outline>
    <contour>
      <point x="331" y="-10" type="curve" smooth="yes"/>
      <point x="469" y="-10"/>
      <point x="609" y="85"/>
      <point x="609" y="262" type="curve" smooth="yes"/>
      <point x="609" y="430"/>
      <point x="489" y="509"/>
      <point x="352" y="509" type="curve" smooth="yes"/>
      <point x="285" y="509"/>
      <point x="213" y="490"/>
      <point x="150" y="453" type="curve"/>
      <point x="137" y="344" type="line"/>
      <point x="191" y="417"/>
      <point x="268" y="453"/>
      <point x="340" y="453" type="curve" smooth="yes"/>
      <point x="436" y="453"/>
      <point x="521" y="388"/>
      <point x="521" y="265" type="curve" smooth="yes"/>
      <point x="521" y="149"/>
      <point x="451" y="50"/>
      <point x="343" y="50" type="curve" smooth="yes"/>
      <point x="270" y="50"/>
      <point x="157" y="106"/>
      <point x="157" y="267" type="curve" smooth="yes"/>
      <point x="157" y="458"/>
      <point x="291" y="646"/>
      <point x="419" y="738" type="curve"/>
      <point x="366" y="760" type="line"/>
      <point x="148" y="614"/>
      <point x="65" y="427"/>
      <point x="65" y="274" type="curve" smooth="yes"/>
      <point x="65" y="80"/>
      <point x="197" y="-10"/>
    </contour>
  </outline>
</glyph>
<glyph name="seven" format="2">
  <advance width="603"/>
  <unicode hex="0037"/>
  <outline>
    <contour>
      <point x="149" y="-11" type="curve"/>
      <point x="260" y="1" type="line"/>
      <point x="286" y="143"/>
      <point x="387" y="376"/>
      <point x="558" y="687" type="curve"/>
      <point x="521" y="708" type="line"/>
      <point x="285" y="354"/>
      <point x="182" y="135"/>
    </contour>
    <contour>
      <point x="195" y="641"/>
      <point x="375" y="632"/>
      <point x="558" y="687" type="curve"/>
      <point x="550" y="732" type="line"/>
      <point x="430" y="714"/>
      <point x="240" y="712"/>
      <point x="64" y="759" type="curve"/>
      <point x="45" y="652" type="line"/>
    </contour>
  </outline>
</glyph>
<glyph name="eight" format="2">
  <advance width="674"/>
  <unicode hex="0038"/>
  <outline>
    <contour>
      <point x="323" y="-10" type="curve" smooth="yes"/>
      <point x="464" y="-10"/>
      <point x="609" y="68"/>
      <point x="609" y="215" type="curve" smooth="yes"/>
      <point x="609" y="353"/>
      <point x="470" y="428"/>
      <point x="334" y="428" type="curve" smooth="yes"/>
      <point x="198" y="428"/>
      <point x="65" y="356"/>
      <point x="65" y="204" type="curve" smooth="yes"/>
      <point x="65" y="59"/>
      <point x="193" y="-10"/>
    </contour>
    <contour>
      <point x="336" y="43" type="curve" smooth="yes"/>
      <point x="241" y="43"/>
      <point x="152" y="93"/>
      <point x="152" y="198" type="curve" smooth="yes"/>
      <point x="152" y="312"/>
      <point x="241" y="367"/>
      <point x="336" y="367" type="curve" smooth="yes"/>
      <point x="431" y="367"/>
      <point x="529" y="308"/>
      <point x="529" y="196" type="curve" smooth="yes"/>
      <point x="529" y="97"/>
      <point x="431" y="43"/>
    </contour>
    <contour>
      <point x="322" y="369" type="curve" smooth="yes"/>
      <point x="448" y="369"/>
      <point x="579" y="438"/>
      <point x="579" y="567" type="curve" smooth="yes"/>
      <point x="579" y="688"/>
      <point x="453" y="754"/>
      <point x="327" y="754" type="curve" smooth="yes"/>
      <point x="205" y="754"/>
      <point x="85" y="692"/>
      <point x="85" y="558" type="curve" smooth="yes"/>
      <point x="85" y="430"/>
      <point x="201" y="369"/>
    </contour>
    <contour>
      <point x="330" y="428" type="curve" smooth="yes"/>
      <point x="248" y="428"/>
      <point x="171" y="472"/>
      <point x="171" y="568" type="curve" smooth="yes"/>
      <point x="171" y="650"/>
      <point x="251" y="704"/>
      <point x="332" y="704" type="curve" smooth="yes"/>
      <point x="416" y="704"/>
      <point x="500" y="658"/>
      <point x="500" y="566" type="curve" smooth="yes"/>
      <point x="500" y="478"/>
      <point x="414" y="428"/>
    </contour>
  </outline>
</glyph>
<glyph name="nine" format="2">
  <advance width="674"/>
  <unicode hex="0039"/>
  <outline>
    <contour>
      <point x="308" y="-10" type="line"/>
      <point x="526" y="136"/>
      <point x="609" y="323"/>
      <point x="609" y="476" type="curve" smooth="yes"/>
      <point x="609" y="670"/>
      <point x="477" y="760"/>
      <point x="343" y="760" type="curve" smooth="yes"/>
      <point x="205" y="760"/>
      <point x="65" y="665"/>
      <point x="65" y="488" type="curve" smooth="yes"/>
      <point x="65" y="320"/>
      <point x="185" y="241"/>
      <point x="322" y="241" type="curve" smooth="yes"/>
      <point x="389" y="241"/>
      <point x="461" y="260"/>
      <point x="524" y="297" type="curve"/>
      <point x="537" y="406" type="line"/>
      <point x="483" y="333"/>
      <point x="406" y="297"/>
      <point x="334" y="297" type="curve" smooth="yes"/>
      <point x="238" y="297"/>
      <point x="153" y="362"/>
      <point x="153" y="485" type="curve" smooth="yes"/>
      <point x="153" y="601"/>
      <point x="223" y="700"/>
      <point x="331" y="700" type="curve" smooth="yes"/>
      <point x="404" y="700"/>
      <point x="517" y="644"/>
      <point x="517" y="483" type="curve" smooth="yes"/>
      <point x="517" y="292"/>
      <point x="383" y="104"/>
      <point x="255" y="12" type="curve"/>
    </contour>
  </outline>
</glyph>
<glyph name="greater" format="2">
  <advance width="447"/>
  <unicode hex="003E"/>
  <outline>
    <contour>
      <point x="397" y="322" type="line"/>
      <point x="402" y="387" type="line"/>
      <point x="76" y="627" type="line"/>
      <point x="45" y="543" type="line"/>
    </contour>
    <contour>
      <point x="85" y="48" type="line"/>
      <point x="397" y="322" type="line"/>
      <point x="354" y="376" type="line"/>
      <point x="55" y="137" type="line"/>
    </contour>
  </outline>
</glyph>
<glyph name="question" format="2">
	<advance width="510"/>
	<unicode hex="003F"/>
	<outline>
		<contour>
			<point x="146" y="162" type="curve"/>
			<point x="220" y="149" type="line"/>
			<point x="220" y="400"/>
			<point x="445" y="399"/>
			<point x="445" y="594" type="curve" smooth="yes"/>
			<point x="445" y="698"/>
			<point x="371" y="757"/>
			<point x="258" y="757" type="curve" smooth="yes"/>
			<point x="191" y="757"/>
			<point x="117" y="738"/>
			<point x="45" y="699" type="curve"/>
			<point x="81" y="588" type="line"/>
			<point x="137" y="648"/>
			<point x="191" y="696"/>
			<point x="249" y="696" type="curve" smooth="yes"/>
			<point x="289" y="696"/>
			<point x="343" y="682"/>
			<point x="343" y="600" type="curve" smooth="yes"/>
			<point x="343" y="437"/>
			<point x="156" y="420"/>
		</contour>
		<contour>
			<point x="130" y="2" type="curve"/>
			<point x="229" y="-5" type="line"/>
			<point x="233" y="26"/>
			<point x="236" y="70"/>
			<point x="232" y="100" type="curve"/>
			<point x="132" y="104" type="line"/>
			<point x="135" y="69"/>
			<point x="134" y="36"/>
		</contour>
	</outline>
</glyph>
<glyph name="at" format="2">
	<advance width="938"/>
	<unicode hex="0040"/>
	<outline>
		<contour>
			<point x="470" y="-70" type="curve"/>
			<point x="484" y="0" type="line"/>
			<point x="234" y="10"/>
			<point x="144" y="190"/>
			<point x="144" y="340" type="curve" smooth="yes"/>
			<point x="144" y="499"/>
			<point x="250" y="690"/>
			<point x="487" y="690" type="curve" smooth="yes"/>
			<point x="709" y="690"/>
			<point x="786" y="537"/>
			<point x="786" y="421" type="curve" smooth="yes"/>
			<point x="786" y="280"/>
			<point x="724" y="217"/>
			<point x="673" y="217" type="curve" smooth="yes"/>
			<point x="606" y="217"/>
			<point x="600" y="353"/>
			<point x="601" y="410" type="curve" smooth="yes"/>
			<point x="601" y="468"/>
			<point x="608" y="496"/>
			<point x="619" y="603" type="curve"/>
			<point x="524" y="601" type="line"/>
			<point x="521" y="557"/>
			<point x="509" y="466"/>
			<point x="509" y="376" type="curve" smooth="yes"/>
			<point x="509" y="251"/>
			<point x="531" y="126"/>
			<point x="632" y="126" type="curve" smooth="yes"/>
			<point x="731" y="126"/>
			<point x="873" y="238"/>
			<point x="873" y="409" type="curve" smooth="yes"/>
			<point x="873" y="585"/>
			<point x="753" y="760"/>
			<point x="479" y="760" type="curve" smooth="yes"/>
			<point x="232" y="760"/>
			<point x="65" y="559"/>
			<point x="65" y="345" type="curve" smooth="yes"/>
			<point x="65" y="124"/>
			<point x="214" y="-70"/>
		</contour>
		<contour>
			<point x="366" y="146" type="curve" smooth="yes"/>
			<point x="458" y="146"/>
			<point x="563" y="242"/>
			<point x="576" y="479" type="curve"/>
			<point x="527" y="430" type="line"/>
			<point x="529" y="304"/>
			<point x="459" y="224"/>
			<point x="393" y="224" type="curve" smooth="yes"/>
			<point x="341" y="224"/>
			<point x="319" y="260"/>
			<point x="319" y="307" type="curve" smooth="yes"/>
			<point x="319" y="420"/>
			<point x="427" y="559"/>
			<point x="545" y="543" type="curve"/>
			<point x="524" y="601" type="line"/>
			<point x="349" y="585"/>
			<point x="233" y="410"/>
			<point x="233" y="281" type="curve" smooth="yes"/>
			<point x="233" y="205"/>
			<point x="274" y="146"/>
		</contour>
	</outline>
</glyph>
<glyph name="A" format="2">
  <advance width="759"/>
  <unicode hex="0041"/>
  <anchor x="384" y="0" name="bottom"/>
  <anchor x="615" y="16" name="ogonek"/>
  <anchor x="408" y="800" name="top"/>
  <outline>
    <contour>
      <point x="540" y="1" type="curve"/>
      <point x="647" y="14" type="line"/>
      <point x="698" y="435"/>
      <point x="637" y="766"/>
      <point x="406" y="766" type="curve" smooth="yes"/>
      <point x="153" y="766"/>
      <point x="75" y="442"/>
      <point x="99" y="-7" type="curve"/>
      <point x="210" y="2" type="line"/>
      <point x="175" y="249"/>
      <point x="174" y="706"/>
      <point x="405" y="706" type="curve" smooth="yes"/>
      <point x="654" y="706"/>
      <point x="563" y="167"/>
    </contour>
    <contour>
      <point x="139" y="199" type="line"/>
      <point x="309" y="184"/>
      <point x="457" y="187"/>
      <point x="605" y="215" type="curve"/>
      <point x="596" y="278" type="line"/>
      <point x="473" y="255"/>
      <point x="330" y="244"/>
      <point x="171" y="274" type="curve"/>
    </contour>
  </outline>
</glyph>
<glyph name="B" format="2">
  <advance width="754"/>
  <unicode hex="0042"/>
  <outline>
    <contour>
      <point x="193" y="305" type="line"/>
      <point x="506" y="378"/>
      <point x="621" y="483"/>
      <point x="621" y="632" type="curve" smooth="yes"/>
      <point x="621" y="726"/>
      <point x="570" y="798"/>
      <point x="460" y="798" type="curve" smooth="yes"/>
      <point x="370" y="798"/>
      <point x="222" y="735"/>
      <point x="168" y="582" type="curve"/>
      <point x="193" y="523" type="line"/>
      <point x="230" y="651"/>
      <point x="349" y="698"/>
      <point x="429" y="698" type="curve" smooth="yes"/>
      <point x="492" y="698"/>
      <point x="531" y="659"/>
      <point x="531" y="612" type="curve" smooth="yes"/>
      <point x="531" y="520"/>
      <point x="445" y="433"/>
      <point x="160" y="357" type="curve"/>
    </contour>
    <contour>
      <point x="118" y="-4" type="curve"/>
      <point x="212" y="0" type="line"/>
      <point x="219" y="255"/>
      <point x="220" y="461"/>
      <point x="205" y="748" type="curve"/>
      <point x="95" y="730" type="line"/>
      <point x="119" y="536"/>
      <point x="127" y="259"/>
    </contour>
    <contour>
      <point x="212" y="0" type="line"/>
      <point x="542" y="0"/>
      <point x="689" y="111"/>
      <point x="689" y="259" type="curve" smooth="yes"/>
      <point x="689" y="465"/>
      <point x="404" y="449"/>
      <point x="193" y="329" type="curve"/>
      <point x="189" y="291" type="line"/>
      <point x="327" y="342"/>
      <point x="587" y="410"/>
      <point x="587" y="244" type="curve" smooth="yes"/>
      <point x="587" y="163"/>
      <point x="485" y="58"/>
      <point x="156" y="58" type="curve"/>
    </contour>
  </outline>
</glyph>
<glyph name="D" format="2">
  <advance width="764"/>
  <unicode hex="0044"/>
  <anchor x="240" y="0" name="bottom"/>
  <anchor x="240" y="325" name="center"/>
  <anchor x="395" y="800" name="top"/>
  <outline>
    <contour>
      <point x="120" y="559" type="curve"/>
      <point x="161" y="493" type="line"/>
      <point x="248" y="644"/>
      <point x="390" y="675"/>
      <point x="459" y="675" type="curve" smooth="yes"/>
      <point x="562" y="675"/>
      <point x="596" y="580"/>
      <point x="596" y="506" type="curve" smooth="yes"/>
      <point x="596" y="351"/>
      <point x="425" y="117"/>
      <point x="195" y="51" type="curve"/>
      <point x="212" y="0" type="line"/>
      <point x="494" y="85"/>
      <point x="699" y="336"/>
      <point x="699" y="522" type="curve" smooth="yes"/>
      <point x="699" y="668"/>
      <point x="619" y="758"/>
      <point x="488" y="758" type="curve" smooth="yes"/>
      <point x="351" y="758"/>
      <point x="197" y="679"/>
    </contour>
    <contour>
      <point x="118" y="-4" type="curve"/>
      <point x="212" y="0" type="line"/>
      <point x="219" y="255"/>
      <point x="220" y="461"/>
      <point x="205" y="748" type="curve"/>
      <point x="95" y="730" type="line"/>
      <point x="119" y="536"/>
      <point x="127" y="259"/>
    </contour>
  </outline>
</glyph>
<glyph name="E" format="2">
  <advance width="628"/>
  <unicode hex="0045"/>
  <anchor x="352" y="-30" name="bottom"/>
  <anchor x="567" y="7" name="ogonek"/>
  <anchor x="352" y="800" name="top"/>
  <outline>
    <contour>
      <point x="111" y="15" type="curve"/>
      <point x="201" y="28" type="line"/>
      <point x="208" y="283"/>
      <point x="220" y="452"/>
      <point x="205" y="739" type="curve"/>
      <point x="95" y="736" type="line"/>
      <point x="119" y="542"/>
      <point x="124" y="235"/>
    </contour>
    <contour>
      <point x="583" y="-5" type="curve"/>
      <point x="583" y="83" type="line"/>
      <point x="440" y="69"/>
      <point x="261" y="58"/>
      <point x="155" y="73" type="curve"/>
      <point x="111" y="15" type="line"/>
      <point x="242" y="3"/>
      <point x="480" y="-5"/>
    </contour>
    <contour>
      <point x="472" y="324" type="curve"/>
      <point x="469" y="404" type="line"/>
      <point x="388" y="402"/>
      <point x="282" y="399"/>
      <point x="176" y="385" type="curve"/>
      <point x="176" y="326" type="line"/>
      <point x="296" y="335"/>
      <point x="381" y="333"/>
    </contour>
    <contour>
      <point x="566" y="684" type="curve"/>
      <point x="566" y="770" type="line"/>
      <point x="467" y="767"/>
      <point x="203" y="749"/>
      <point x="95" y="736" type="curve"/>
      <point x="176" y="681" type="line"/>
      <point x="242" y="690"/>
      <point x="423" y="705"/>
    </contour>
  </outline>
</glyph>
<glyph name="F" format="2">
  <advance width="590"/>
  <unicode hex="0046"/>
  <outline>
    <contour>
      <point x="111" y="4" type="curve"/>
      <point x="201" y="17" type="line"/>
      <point x="208" y="272"/>
      <point x="220" y="452"/>
      <point x="205" y="739" type="curve"/>
      <point x="95" y="736" type="line"/>
      <point x="119" y="542"/>
      <point x="124" y="224"/>
    </contour>
    <contour>
      <point x="454" y="324" type="curve"/>
      <point x="452" y="404" type="line"/>
      <point x="374" y="402"/>
      <point x="273" y="399"/>
      <point x="172" y="385" type="curve"/>
      <point x="172" y="326" type="line"/>
      <point x="287" y="335"/>
      <point x="368" y="333"/>
    </contour>
    <contour>
      <point x="545" y="684" type="curve"/>
      <point x="545" y="770" type="line"/>
      <point x="451" y="767"/>
      <point x="198" y="749"/>
      <point x="95" y="736" type="curve"/>
      <point x="172" y="681" type="line"/>
      <point x="235" y="690"/>
      <point x="409" y="705"/>
    </contour>
  </outline>
</glyph>
<glyph name="G" format="2">
  <advance width="785"/>
  <unicode hex="0047"/>
  <anchor x="368" y="-30" name="bottom"/>
  <anchor x="491" y="800" name="top"/>
  <outline>
    <contour>
      <point x="370" y="0" type="curve" smooth="yes"/>
      <point x="543" y="0"/>
      <point x="720" y="144"/>
      <point x="720" y="286" type="curve" smooth="yes"/>
      <point x="720" y="400"/>
      <point x="663" y="444"/>
      <point x="572" y="444" type="curve" smooth="yes"/>
      <point x="519" y="444"/>
      <point x="455" y="426"/>
      <point x="387" y="384" type="curve"/>
      <point x="415" y="278" type="line"/>
      <point x="462" y="316"/>
      <point x="532" y="351"/>
      <point x="588" y="351" type="curve" smooth="yes"/>
      <point x="637" y="351"/>
      <point x="666" y="326"/>
      <point x="666" y="270" type="curve" smooth="yes"/>
      <point x="666" y="196"/>
      <point x="559" y="80"/>
      <point x="380" y="80" type="curve" smooth="yes"/>
      <point x="265" y="80"/>
      <point x="164" y="159"/>
      <point x="164" y="309" type="curve" smooth="yes"/>
      <point x="164" y="551"/>
      <point x="329" y="695"/>
      <point x="468" y="695" type="curve" smooth="yes"/>
      <point x="532" y="695"/>
      <point x="577" y="689"/>
      <point x="626" y="668" type="curve"/>
      <point x="626" y="729" type="line"/>
      <point x="576" y="746"/>
      <point x="527" y="754"/>
      <point x="481" y="754" type="curve" smooth="yes"/>
      <point x="230" y="754"/>
      <point x="65" y="518"/>
      <point x="65" y="312" type="curve" smooth="yes"/>
      <point x="65" y="147"/>
      <point x="155" y="0"/>
    </contour>
  </outline>
</glyph>
<glyph name="I" format="2">
	<advance width="310"/>
	<unicode hex="0049"/>
	<anchor x="167" y="-30" name="bottom"/>
	<anchor x="198" y="7" name="ogonek"/>
	<anchor x="140" y="800" name="top"/>
	<outline>
		<contour>
			<point x="118" y="-8" type="curve"/>
			<point x="198" y="7" type="line"/>
			<point x="215" y="232"/>
			<point x="222" y="515"/>
			<point x="207" y="755" type="curve"/>
			<point x="95" y="734" type="line"/>
			<point x="126" y="475"/>
			<point x="126" y="259"/>
		</contour>
	</outline>
</glyph>
<glyph name="J" format="2">
	<advance width="464"/>
	<unicode hex="004A"/>
	<anchor x="250" y="0" name="bottom"/>
	<anchor x="250" y="800" name="top"/>
	<outline>
		<contour>
			<point x="45" y="105" type="curve"/>
			<point x="52" y="-3" type="line"/>
			<point x="241" y="-3"/>
			<point x="351" y="88"/>
			<point x="364" y="305" type="curve" smooth="yes"/>
			<point x="372" y="444"/>
			<point x="370" y="608"/>
			<point x="362" y="768" type="curve"/>
			<point x="244" y="740" type="line"/>
			<point x="276" y="503"/>
			<point x="278" y="392"/>
			<point x="278" y="300" type="curve" smooth="yes"/>
			<point x="278" y="178"/>
			<point x="267" y="94"/>
			<point x="128" y="94" type="curve" smooth="yes"/>
			<point x="105" y="94"/>
			<point x="78" y="97"/>
		</contour>
	</outline>
</glyph>
<glyph name="K" format="2">
	<advance width="706"/>
	<unicode hex="004B"/>
	<anchor x="370" y="0" name="bottom"/>
	<anchor x="370" y="800" name="top"/>
	<outline>
		<contour>
			<point x="118" y="-8" type="curve"/>
			<point x="201" y="5" type="line"/>
			<point x="218" y="230"/>
			<point x="222" y="515"/>
			<point x="207" y="755" type="curve"/>
			<point x="95" y="734" type="line"/>
			<point x="126" y="475"/>
			<point x="126" y="259"/>
		</contour>
		<contour>
			<point x="186" y="207" type="curve"/>
			<point x="201" y="5" type="line"/>
			<point x="237" y="361"/>
			<point x="427" y="615"/>
			<point x="657" y="650" type="curve"/>
			<point x="649" y="750" type="line"/>
			<point x="408" y="710"/>
			<point x="237" y="470"/>
		</contour>
		<contour>
			<point x="563" y="0" type="curve"/>
			<point x="671" y="14" type="line"/>
			<point x="616" y="271"/>
			<point x="472" y="372"/>
			<point x="311" y="429" type="curve"/>
			<point x="269" y="346" type="line"/>
			<point x="405" y="325"/>
			<point x="535" y="180"/>
		</contour>
	</outline>
</glyph>
<glyph name="N" format="2">
	<advance width="819"/>
	<unicode hex="004E"/>
	<anchor x="430" y="-30" name="bottom"/>
	<anchor x="370" y="800" name="top"/>
	<outline>
		<contour>
			<point x="552" y="0" type="curve" smooth="yes"/>
			<point x="808" y="0"/>
			<point x="720" y="595"/>
			<point x="658" y="800" type="curve"/>
			<point x="552" y="770" type="line"/>
			<point x="621" y="513"/>
			<point x="695" y="61"/>
			<point x="545" y="61" type="curve" smooth="yes"/>
			<point x="405" y="61"/>
			<point x="273" y="467"/>
			<point x="206" y="727" type="curve"/>
			<point x="150" y="587" type="line"/>
			<point x="208" y="354"/>
			<point x="389" y="0"/>
		</contour>
		<contour>
			<point x="95" y="0" type="curve"/>
			<point x="202" y="0" type="line"/>
			<point x="201" y="59"/>
			<point x="197" y="376"/>
			<point x="186" y="592" type="curve"/>
			<point x="206" y="727" type="line"/>
			<point x="102" y="712" type="line"/>
			<point x="113" y="484"/>
			<point x="113" y="230"/>
		</contour>
	</outline>
</glyph>
<glyph name="O" format="2">
  <advance width="800"/>
  <unicode hex="004F"/>
  <anchor x="401" y="-30" name="bottom"/>
  <anchor x="399" y="800" name="top"/>
  <outline>
    <contour>
      <point x="401" y="-13" type="curve" smooth="yes"/>
      <point x="621" y="-13"/>
      <point x="735" y="179"/>
      <point x="735" y="372" type="curve" smooth="yes"/>
      <point x="735" y="565"/>
      <point x="620" y="759"/>
      <point x="399" y="759" type="curve" smooth="yes"/>
      <point x="180" y="759"/>
      <point x="65" y="562"/>
      <point x="65" y="368" type="curve" smooth="yes"/>
      <point x="65" y="176"/>
      <point x="176" y="-13"/>
    </contour>
    <contour>
      <point x="406" y="71" type="curve" smooth="yes"/>
      <point x="249" y="71"/>
      <point x="156" y="227"/>
      <point x="156" y="402" type="curve" smooth="yes"/>
      <point x="156" y="566"/>
      <point x="231" y="710"/>
      <point x="400" y="710" type="curve" smooth="yes"/>
      <point x="564" y="710"/>
      <point x="649" y="562"/>
      <point x="649" y="400" type="curve" smooth="yes"/>
      <point x="649" y="241"/>
      <point x="573" y="71"/>
    </contour>
  </outline>
</glyph>
<glyph name="Q" format="2">
	<advance width="800"/>
	<unicode hex="0051"/>
	<outline>
		<component base="O" yScale="-1" yOffset="750"/>
		<contour>
			<point x="630" y="-133" type="curve"/>
			<point x="705" y="-69" type="line"/>
			<point x="579" y="0"/>
			<point x="548" y="104"/>
			<point x="550" y="210" type="curve"/>
			<point x="499" y="217" type="line"/>
			<point x="479" y="57"/>
			<point x="524" y="-44"/>
		</contour>
	</outline>
</glyph>
<glyph name="S" format="2">
  <advance width="651"/>
  <unicode hex="0053"/>
  <anchor x="333" y="-41" name="bottom"/>
  <anchor x="343" y="19" name="cedilla"/>
  <anchor x="347" y="800" name="top"/>
  <outline>
    <contour>
      <point x="332" y="-11" type="curve" smooth="yes"/>
      <point x="496" y="-11"/>
      <point x="606" y="64"/>
      <point x="606" y="212" type="curve" smooth="yes"/>
      <point x="606" y="450"/>
      <point x="185" y="371"/>
      <point x="185" y="603" type="curve" smooth="yes"/>
      <point x="185" y="676"/>
      <point x="252" y="708"/>
      <point x="340" y="708" type="curve" smooth="yes"/>
      <point x="395" y="708"/>
      <point x="474" y="684"/>
      <point x="540" y="633" type="curve"/>
      <point x="559" y="701" type="line"/>
      <point x="509" y="744"/>
      <point x="425" y="768"/>
      <point x="343" y="768" type="curve" smooth="yes"/>
      <point x="212" y="768"/>
      <point x="82" y="708"/>
      <point x="82" y="570" type="curve" smooth="yes"/>
      <point x="82" y="371"/>
      <point x="496" y="381"/>
      <point x="496" y="207" type="curve" smooth="yes"/>
      <point x="496" y="107"/>
      <point x="401" y="50"/>
      <point x="320" y="50" type="curve" smooth="yes"/>
      <point x="252" y="50"/>
      <point x="187" y="54"/>
      <point x="68" y="114" type="curve"/>
      <point x="45" y="40" type="line"/>
      <point x="145" y="8"/>
      <point x="244" y="-11"/>
    </contour>
  </outline>
</glyph>
<glyph name="T" format="2">
  <advance width="685"/>
  <unicode hex="0054"/>
  <anchor x="345" y="-10" name="bottom"/>
  <anchor x="365" y="20" name="cedilla"/>
  <anchor x="345" y="800" name="top"/>
  <outline>
    <contour>
      <point x="307" y="-8" type="curve"/>
      <point x="390" y="7" type="line"/>
      <point x="407" y="232"/>
      <point x="411" y="515"/>
      <point x="396" y="755" type="curve"/>
      <point x="284" y="734" type="line"/>
      <point x="315" y="475"/>
      <point x="315" y="259"/>
    </contour>
    <contour>
      <point x="639" y="690" type="line"/>
      <point x="640" y="766" type="line"/>
      <point x="45" y="750" type="line"/>
      <point x="49" y="694" type="line"/>
    </contour>
  </outline>
</glyph>
<glyph name="U" format="2">
  <advance width="808"/>
  <unicode hex="0055"/>
  <anchor x="388" y="-30" name="bottom"/>
  <anchor x="721" y="16" name="ogonek"/>
  <anchor x="436" y="800" name="top"/>
  <outline>
    <contour>
      <point x="390" y="-8" type="curve" smooth="yes"/>
      <point x="644" y="-8"/>
      <point x="654" y="386"/>
      <point x="657" y="582" type="curve"/>
      <point x="600" y="750" type="line"/>
      <point x="614" y="504"/>
      <point x="614" y="58"/>
      <point x="404" y="58" type="curve" smooth="yes"/>
      <point x="178" y="58"/>
      <point x="171" y="672"/>
      <point x="187" y="762" type="curve"/>
      <point x="77" y="744" type="line"/>
      <point x="62" y="514"/>
      <point x="119" y="-8"/>
    </contour>
    <contour>
      <point x="600" y="0" type="curve"/>
      <point x="691" y="15" type="line"/>
      <point x="714" y="289"/>
      <point x="717" y="520"/>
      <point x="709" y="767" type="curve"/>
      <point x="600" y="750" type="line"/>
      <point x="619" y="464"/>
      <point x="623" y="277"/>
    </contour>
  </outline>
</glyph>
<glyph name="V" format="2">
  <advance width="747"/>
  <unicode hex="0056"/>
  <outline>
    <contour>
      <point x="349" y="-6" type="curve"/>
      <point x="395" y="5" type="line"/>
      <point x="369" y="93" type="line"/>
      <point x="303" y="313"/>
      <point x="252" y="487"/>
      <point x="137" y="755" type="curve"/>
      <point x="45" y="740" type="line"/>
      <point x="190" y="447"/>
      <point x="259" y="245"/>
    </contour>
    <contour>
      <point x="395" y="5" type="line"/>
      <point x="452" y="184"/>
      <point x="579" y="503"/>
      <point x="702" y="748" type="curve"/>
      <point x="591" y="763" type="line"/>
      <point x="495" y="554"/>
      <point x="395" y="270"/>
      <point x="337" y="66" type="curve"/>
    </contour>
  </outline>
</glyph>
<glyph name="W" format="2">
	<advance width="1110"/>
	<unicode hex="0057"/>
	<anchor x="531" y="-38" name="bottom"/>
	<anchor x="577" y="800" name="top"/>
	<outline>
		<contour>
			<point x="757" y="-17" type="curve" smooth="yes"/>
			<point x="1025" y="-17"/>
			<point x="1038" y="491"/>
			<point x="1035" y="755" type="curve"/>
			<point x="926" y="736" type="line"/>
			<point x="955" y="400"/>
			<point x="905" y="52"/>
			<point x="746" y="52" type="curve" smooth="yes"/>
			<point x="581" y="52"/>
			<point x="611" y="497"/>
			<point x="627" y="728" type="curve"/>
			<point x="517" y="722" type="line"/>
			<point x="534" y="461"/>
			<point x="519" y="-17"/>
		</contour>
		<contour>
			<point x="343" y="-8" type="curve" smooth="yes"/>
			<point x="546" y="-8"/>
			<point x="557" y="375"/>
			<point x="561" y="571" type="curve"/>
			<point x="517" y="722" type="line"/>
			<point x="506" y="543"/>
			<point x="517" y="61"/>
			<point x="356" y="61" type="curve" smooth="yes"/>
			<point x="179" y="61"/>
			<point x="174" y="655"/>
			<point x="188" y="745" type="curve"/>
			<point x="78" y="740" type="line"/>
			<point x="63" y="490"/>
			<point x="99" y="-8"/>
		</contour>
	</outline>
</glyph>
<glyph name="X" format="2">
  <advance width="743"/>
  <unicode hex="0058"/>
  <outline>
    <contour>
      <point x="111" y="-10" type="line"/>
      <point x="307" y="200"/>
      <point x="507" y="548"/>
      <point x="589" y="733" type="curve"/>
      <point x="539" y="759" type="line"/>
      <point x="450" y="560"/>
      <point x="277" y="276"/>
      <point x="45" y="66" type="curve"/>
    </contour>
    <contour>
      <point x="580" y="-3" type="curve"/>
      <point x="698" y="21" type="line"/>
      <point x="580" y="253"/>
      <point x="353" y="585"/>
      <point x="156" y="761" type="curve"/>
      <point x="70" y="730" type="line"/>
      <point x="277" y="545"/>
      <point x="440" y="295"/>
    </contour>
  </outline>
</glyph>
<glyph name="Y" format="2">
  <advance width="736"/>
  <unicode hex="0059"/>
  <anchor x="353" y="-30" name="bottom"/>
  <anchor x="353" y="800" name="top"/>
  <outline>
    <contour>
      <point x="677" y="-27"/>
      <point x="645" y="353"/>
      <point x="637" y="768" type="curve"/>
      <point x="527" y="759" type="line"/>
      <point x="533" y="573"/>
      <point x="562" y="464"/>
      <point x="550" y="283" type="curve" smooth="yes"/>
      <point x="540" y="131"/>
      <point x="432" y="41"/>
      <point x="202" y="66" type="curve"/>
      <point x="207" y="-27" type="line"/>
    </contour>
    <contour>
      <point x="340" y="242" type="curve" smooth="yes"/>
      <point x="510" y="242"/>
      <point x="584" y="441"/>
      <point x="584" y="691" type="curve"/>
      <point x="527" y="759" type="line"/>
      <point x="534" y="506"/>
      <point x="499" y="305"/>
      <point x="356" y="305" type="curve" smooth="yes"/>
      <point x="207" y="305"/>
      <point x="156" y="512"/>
      <point x="184" y="756" type="curve"/>
      <point x="78" y="748" type="line"/>
      <point x="65" y="573"/>
      <point x="92" y="242"/>
    </contour>
  </outline>
</glyph>
<glyph name="Z" format="2">
  <advance width="691"/>
  <unicode hex="005A"/>
  <anchor x="357" y="-30" name="bottom"/>
  <anchor x="357" y="800" name="top"/>
  <outline>
    <contour>
      <point x="108" y="15" type="line"/>
      <point x="327" y="188"/>
      <point x="520" y="475"/>
      <point x="626" y="693" type="curve"/>
      <point x="518" y="705" type="line"/>
      <point x="426" y="464"/>
      <point x="220" y="200"/>
      <point x="65" y="69" type="curve"/>
    </contour>
    <contour>
      <point x="576" y="-29" type="curve"/>
      <point x="592" y="61" type="line"/>
      <point x="430" y="86"/>
      <point x="251" y="69"/>
      <point x="122" y="44" type="curve"/>
      <point x="65" y="69" type="line"/>
      <point x="70" y="-12" type="line"/>
      <point x="179" y="5"/>
      <point x="389" y="21"/>
    </contour>
    <contour>
      <point x="99" y="664" type="line"/>
      <point x="290" y="651"/>
      <point x="447" y="668"/>
      <point x="626" y="693" type="curve"/>
      <point x="622" y="733" type="line"/>
      <point x="514" y="716"/>
      <point x="326" y="712"/>
      <point x="113" y="750" type="curve"/>
    </contour>
  </outline>
</glyph>
<glyph name="bracketleft" format="2">
	<advance width="423"/>
	<unicode hex="005B"/>
	<outline>
		<contour>
			<point x="117" y="-103" type="curve"/>
			<point x="175" y="-85" type="line"/>
			<point x="196" y="200"/>
			<point x="199" y="484"/>
			<point x="186" y="769" type="curve"/>
			<point x="95" y="764" type="line"/>
			<point x="120" y="475"/>
			<point x="126" y="186"/>
		</contour>
		<contour>
			<point x="373" y="-110" type="line"/>
			<point x="378" y="-26" type="line"/>
			<point x="120" y="-54" type="line"/>
			<point x="117" y="-103" type="line"/>
		</contour>
		<contour>
			<point x="370" y="693" type="line"/>
			<point x="373" y="777" type="line"/>
			<point x="95" y="764" type="line"/>
			<point x="130" y="719" type="line"/>
		</contour>
	</outline>
</glyph>
<glyph name="grave" format="2">
  <advance width="300"/>
  <unicode hex="0060"/>
  <anchor x="150" y="520" name="_top"/>
  <anchor x="150" y="700" name="top"/>
  <outline>
    <contour>
      <point x="148" y="560" type="line"/>
      <point x="178" y="584" type="line"/>
      <point x="7" y="792" type="line"/>
      <point x="-35" y="751" type="line"/>
    </contour>
  </outline>
</glyph>
<glyph name="b" format="2">
  <advance width="633"/>
  <unicode hex="0062"/>
  <outline>
    <contour>
      <point x="331" y="-11" type="curve" smooth="yes"/>
      <point x="475" y="-11"/>
      <point x="588" y="89"/>
      <point x="588" y="246" type="curve" smooth="yes"/>
      <point x="588" y="392"/>
      <point x="500" y="459"/>
      <point x="405" y="459" type="curve" smooth="yes"/>
      <point x="308" y="459"/>
      <point x="122" y="392"/>
      <point x="122" y="113" type="curve"/>
      <point x="156" y="75" type="line"/>
      <point x="167" y="288"/>
      <point x="297" y="375"/>
      <point x="367" y="375" type="curve" smooth="yes"/>
      <point x="455" y="375"/>
      <point x="479" y="278"/>
      <point x="479" y="228" type="curve" smooth="yes"/>
      <point x="479" y="143"/>
      <point x="438" y="47"/>
      <point x="286" y="47" type="curve" smooth="yes"/>
      <point x="249" y="47"/>
      <point x="154" y="70"/>
      <point x="112" y="89" type="curve"/>
      <point x="161" y="15" type="line"/>
      <point x="199" y="5"/>
      <point x="291" y="-11"/>
    </contour>
    <contour>
      <point x="161" y="15" type="line"/>
      <point x="189" y="292"/>
      <point x="189" y="549"/>
      <point x="179" y="800" type="curve"/>
      <point x="75" y="782" type="line"/>
      <point x="93" y="542"/>
      <point x="95" y="286"/>
      <point x="81" y="28" type="curve"/>
    </contour>
  </outline>
</glyph>
<glyph name="c" format="2">
  <advance width="503"/>
  <unicode hex="0063"/>
  <anchor x="224" y="-1" name="bottom"/>
  <anchor x="341" y="20" name="cedilla"/>
  <anchor x="323" y="520" name="top"/>
  <outline>
    <contour>
      <point x="269" y="-6" type="curve" smooth="yes"/>
      <point x="344" y="-6"/>
      <point x="413" y="16"/>
      <point x="473" y="58" type="curve"/>
      <point x="464" y="120" type="line"/>
      <point x="417" y="80"/>
      <point x="363" y="55"/>
      <point x="299" y="55" type="curve" smooth="yes"/>
      <point x="208" y="55"/>
      <point x="156" y="117"/>
      <point x="156" y="194" type="curve" smooth="yes"/>
      <point x="156" y="346"/>
      <point x="317" y="410"/>
      <point x="433" y="389" type="curve"/>
      <point x="427" y="459" type="line"/>
      <point x="269" y="480"/>
      <point x="45" y="390"/>
      <point x="45" y="187" type="curve" smooth="yes"/>
      <point x="45" y="55"/>
      <point x="154" y="-6"/>
    </contour>
  </outline>
</glyph>
<glyph name="e" format="2">
  <advance width="537"/>
  <unicode hex="0065"/>
  <anchor x="314" y="-29" name="bottom"/>
  <anchor x="419" y="-2" name="ogonek"/>
  <anchor x="323" y="520" name="top"/>
  <outline>
    <contour>
      <point x="419" y="-2" type="curve"/>
      <point x="430" y="57" type="line"/>
      <point x="287" y="24"/>
      <point x="152" y="69"/>
      <point x="152" y="232" type="curve" smooth="yes"/>
      <point x="152" y="313"/>
      <point x="224" y="395"/>
      <point x="295" y="395" type="curve" smooth="yes"/>
      <point x="372" y="395"/>
      <point x="393" y="343"/>
      <point x="393" y="306" type="curve" smooth="yes"/>
      <point x="393" y="238"/>
      <point x="335" y="213"/>
      <point x="274" y="213" type="curve" smooth="yes"/>
      <point x="207" y="213"/>
      <point x="163" y="230"/>
      <point x="138" y="246" type="curve"/>
      <point x="114" y="207" type="line"/>
      <point x="159" y="172"/>
      <point x="279" y="150"/>
      <point x="335" y="150" type="curve" smooth="yes"/>
      <point x="455" y="150"/>
      <point x="492" y="221"/>
      <point x="492" y="288" type="curve" smooth="yes"/>
      <point x="494" y="367"/>
      <point x="424" y="455"/>
      <point x="290" y="455" type="curve" smooth="yes"/>
      <point x="172" y="455"/>
      <point x="45" y="378"/>
      <point x="45" y="219" type="curve" smooth="yes"/>
      <point x="45" y="20"/>
      <point x="238" y="-21"/>
    </contour>
  </outline>
</glyph>
<glyph name="f" format="2">
	<advance width="427"/>
	<unicode hex="0066"/>
	<guideline x="5" y="404" angle="0"/>
	<outline>
		<contour>
			<point x="81" y="0" type="curve"/>
			<point x="184" y="-2" type="line"/>
			<point x="170" y="156"/>
			<point x="162" y="349"/>
			<point x="155" y="435" type="curve" smooth="yes"/>
			<point x="139" y="621"/>
			<point x="231" y="667"/>
			<point x="380" y="650" type="curve"/>
			<point x="373" y="742" type="line"/>
			<point x="189" y="742"/>
			<point x="75" y="650"/>
			<point x="75" y="357" type="curve" smooth="yes"/>
			<point x="75" y="262"/>
			<point x="79" y="133"/>
		</contour>
		<contour>
			<point x="300" y="386" type="curve"/>
			<point x="312" y="451" type="line"/>
			<point x="216" y="463"/>
			<point x="136" y="460"/>
			<point x="28" y="452" type="curve"/>
			<point x="35" y="401" type="line"/>
			<point x="136" y="408"/>
			<point x="210" y="404"/>
		</contour>
	</outline>
</glyph>
<glyph name="h" format="2">
  <advance width="603"/>
  <unicode hex="0068"/>
  <outline>
    <contour>
      <point x="161" y="5" type="line"/>
      <point x="189" y="282"/>
      <point x="189" y="549"/>
      <point x="179" y="800" type="curve"/>
      <point x="75" y="784" type="line"/>
      <point x="93" y="544"/>
      <point x="95" y="256"/>
      <point x="81" y="-2" type="curve"/>
    </contour>
    <contour>
      <point x="526" y="-8" type="line"/>
      <point x="554" y="195"/>
      <point x="544" y="466"/>
      <point x="357" y="466" type="curve" smooth="yes"/>
      <point x="194" y="466"/>
      <point x="110" y="249"/>
      <point x="99" y="125" type="curve"/>
      <point x="161" y="5" type="line"/>
      <point x="174" y="222"/>
      <point x="241" y="411"/>
      <point x="335" y="411" type="curve" smooth="yes"/>
      <point x="434" y="411"/>
      <point x="471" y="229"/>
      <point x="421" y="3" type="curve"/>
    </contour>
  </outline>
</glyph>
<glyph name="i" format="2">
  <advance width="259"/>
  <unicode hex="0069"/>
  <anchor x="123" y="-36" name="bottom"/>
  <anchor x="159" y="5" name="ogonek"/>
  <anchor x="123" y="520" name="top"/>
  <outline>
    <contour>
      <point x="68" y="525" type="curve"/>
      <point x="173" y="533" type="line"/>
      <point x="174" y="571"/>
      <point x="171" y="617"/>
      <point x="164" y="653" type="curve"/>
      <point x="54" y="639" type="line"/>
      <point x="58" y="600"/>
      <point x="66" y="567"/>
    </contour>
    <component base="idotless"/>
  </outline>
</glyph>
<glyph name="j" format="2">
  <advance width="284"/>
  <unicode hex="006A"/>
  <anchor x="85" y="-233" name="bottom"/>
  <anchor x="119" y="529" name="top"/>
  <outline>
    <contour>
      <point x="68" y="525" type="curve"/>
      <point x="173" y="533" type="line"/>
      <point x="174" y="571"/>
      <point x="171" y="617"/>
      <point x="164" y="653" type="curve"/>
      <point x="54" y="639" type="line"/>
      <point x="58" y="600"/>
      <point x="66" y="567"/>
    </contour>
    <component base="jdotless"/>
  </outline>
</glyph>
<glyph name="k" format="2">
  <advance width="553"/>
  <unicode hex="006B"/>
  <anchor x="311" y="0" name="bottom"/>
  <anchor x="67" y="800" name="top"/>
  <outline>
    <contour>
      <point x="411" y="-6" type="curve"/>
      <point x="523" y="25" type="line"/>
      <point x="470" y="157"/>
      <point x="368" y="260"/>
      <point x="240" y="292" type="curve"/>
      <point x="196" y="233" type="line"/>
      <point x="299" y="194"/>
      <point x="375" y="122"/>
    </contour>
    <contour>
      <point x="161" y="5" type="line"/>
      <point x="181" y="192"/>
      <point x="281" y="364"/>
      <point x="470" y="400" type="curve"/>
      <point x="470" y="491" type="line"/>
      <point x="307" y="447"/>
      <point x="183" y="313"/>
      <point x="154" y="157" type="curve"/>
    </contour>
    <contour>
      <point x="161" y="5" type="line"/>
      <point x="189" y="282"/>
      <point x="189" y="549"/>
      <point x="179" y="800" type="curve"/>
      <point x="75" y="784" type="line"/>
      <point x="93" y="544"/>
      <point x="95" y="256"/>
      <point x="81" y="-2" type="curve"/>
    </contour>
  </outline>
</glyph>
<glyph name="l" format="2">
	<advance width="260"/>
	<unicode hex="006C"/>
	<anchor x="117" y="-40" name="bottom"/>
	<anchor x="133" y="830" name="top"/>
	<anchor x="268" y="760" name="topright"/>
	<outline>
		<contour>
			<point x="81" y="-2" type="curve"/>
			<point x="161" y="5" type="line"/>
			<point x="189" y="282"/>
			<point x="189" y="549"/>
			<point x="179" y="800" type="curve"/>
			<point x="75" y="784" type="line"/>
			<point x="93" y="544"/>
			<point x="95" y="256"/>
		</contour>
	</outline>
</glyph>
<glyph name="m" format="2">
  <advance width="895"/>
  <unicode hex="006D"/>
  <outline>
    <contour>
      <point x="511" y="-4" type="line"/>
      <point x="536" y="199"/>
      <point x="512" y="466"/>
      <point x="348" y="466" type="curve" smooth="yes"/>
      <point x="196" y="466"/>
      <point x="127" y="259"/>
      <point x="117" y="135" type="curve"/>
      <point x="180" y="0" type="line"/>
      <point x="195" y="217"/>
      <point x="231" y="411"/>
      <point x="329" y="411" type="curve" smooth="yes"/>
      <point x="403" y="411"/>
      <point x="449" y="226"/>
      <point x="403" y="0" type="curve"/>
    </contour>
    <contour>
      <point x="180" y="0" type="line"/>
      <point x="189" y="161"/>
      <point x="190" y="285"/>
      <point x="166" y="462" type="curve"/>
      <point x="82" y="446" type="line"/>
      <point x="95" y="298"/>
      <point x="94" y="141"/>
      <point x="75" y="-10" type="curve"/>
    </contour>
    <contour>
      <point x="816" y="-6" type="line"/>
      <point x="848" y="232"/>
      <point x="836" y="465"/>
      <point x="676" y="465" type="curve" smooth="yes"/>
      <point x="560" y="465"/>
      <point x="483" y="361"/>
      <point x="465" y="254" type="curve"/>
      <point x="517" y="82" type="line"/>
      <point x="523" y="244"/>
      <point x="564" y="410"/>
      <point x="641" y="410" type="curve" smooth="yes"/>
      <point x="739" y="410"/>
      <point x="752" y="208"/>
      <point x="711" y="1" type="curve"/>
    </contour>
  </outline>
</glyph>
<glyph name="o" format="2">
  <advance width="547"/>
  <unicode hex="006F"/>
  <anchor x="269" y="-42" name="bottom"/>
  <anchor x="267" y="520" name="top"/>
  <outline>
    <contour>
      <point x="270" y="-12" type="curve" smooth="yes"/>
      <point x="424" y="-12"/>
      <point x="502" y="107"/>
      <point x="502" y="226" type="curve" smooth="yes"/>
      <point x="502" y="345"/>
      <point x="424" y="463"/>
      <point x="268" y="463" type="curve" smooth="yes"/>
      <point x="121" y="463"/>
      <point x="45" y="343"/>
      <point x="45" y="223" type="curve" smooth="yes"/>
      <point x="45" y="105"/>
      <point x="119" y="-12"/>
    </contour>
    <contour>
      <point x="279" y="43" type="curve" smooth="yes"/>
      <point x="199" y="43"/>
      <point x="140" y="121"/>
      <point x="140" y="218" type="curve" smooth="yes"/>
      <point x="140" y="298"/>
      <point x="190" y="376"/>
      <point x="275" y="376" type="curve" smooth="yes"/>
      <point x="362" y="376"/>
      <point x="411" y="299"/>
      <point x="411" y="220" type="curve" smooth="yes"/>
      <point x="411" y="132"/>
      <point x="375" y="43"/>
    </contour>
  </outline>
</glyph>
<glyph name="q" format="2">
  <advance width="559"/>
  <unicode hex="0071"/>
  <outline>
    <contour>
      <point x="208" y="-9" type="curve" smooth="yes"/>
      <point x="316" y="-9"/>
      <point x="427" y="82"/>
      <point x="442" y="319" type="curve"/>
      <point x="384" y="270" type="line"/>
      <point x="378" y="144"/>
      <point x="317" y="69"/>
      <point x="240" y="69" type="curve" smooth="yes"/>
      <point x="183" y="69"/>
      <point x="154" y="115"/>
      <point x="154" y="172" type="curve" smooth="yes"/>
      <point x="154" y="230"/>
      <point x="195" y="339"/>
      <point x="422" y="389" type="curve"/>
      <point x="398" y="447" type="line"/>
      <point x="141" y="373"/>
      <point x="45" y="263"/>
      <point x="45" y="150" type="curve" smooth="yes"/>
      <point x="45" y="48"/>
      <point x="121" y="-9"/>
    </contour>
    <contour>
      <point x="380" y="-305" type="curve"/>
      <point x="484" y="-284" type="line"/>
      <point x="457" y="-44"/>
      <point x="464" y="196"/>
      <point x="478" y="454" type="curve"/>
      <point x="398" y="447" type="line"/>
      <point x="370" y="170"/>
      <point x="361" y="-54"/>
    </contour>
  </outline>
</glyph>
<glyph name="t" format="2">
  <advance width="405"/>
  <unicode hex="0074"/>
  <anchor x="277" y="-9" name="bottom"/>
  <anchor x="289" y="20" name="cedilla"/>
  <anchor x="172" y="787" name="top"/>
  <anchor x="314" y="707" name="topright"/>
  <outline>
    <contour>
      <point x="369" y="-1" type="curve"/>
      <point x="375" y="105" type="line"/>
      <point x="251" y="93"/>
      <point x="155" y="118"/>
      <point x="156" y="264" type="curve" smooth="yes"/>
      <point x="157" y="412"/>
      <point x="171" y="548"/>
      <point x="191" y="733" type="curve"/>
      <point x="76" y="717" type="line"/>
      <point x="74" y="589"/>
      <point x="73" y="479"/>
      <point x="81" y="309" type="curve" smooth="yes"/>
      <point x="90" y="108"/>
      <point x="148" y="-16"/>
    </contour>
    <contour>
      <point x="343" y="377" type="curve"/>
      <point x="356" y="457" type="line"/>
      <point x="253" y="469"/>
      <point x="124" y="463"/>
      <point x="10" y="436" type="curve"/>
      <point x="22" y="376" type="line"/>
      <point x="129" y="394"/>
      <point x="244" y="399"/>
    </contour>
  </outline>
</glyph>
<glyph name="x" format="2">
  <advance width="551"/>
  <unicode hex="0078"/>
  <outline>
    <contour>
      <point x="416" y="0" type="curve"/>
      <point x="521" y="24" type="line"/>
      <point x="411" y="209"/>
      <point x="251" y="387"/>
      <point x="76" y="468" type="curve"/>
      <point x="30" y="423" type="line"/>
      <point x="154" y="344"/>
      <point x="318" y="187"/>
    </contour>
    <contour>
      <point x="74" y="-12" type="line"/>
      <point x="218" y="118"/>
      <point x="366" y="273"/>
      <point x="445" y="435" type="curve"/>
      <point x="395" y="460" type="line"/>
      <point x="334" y="344"/>
      <point x="205" y="185"/>
      <point x="31" y="54" type="curve"/>
    </contour>
  </outline>
</glyph>
<glyph name="y" format="2">
  <advance width="618"/>
  <unicode hex="0079"/>
  <anchor x="253" y="-347" name="bottom"/>
  <anchor x="343" y="520" name="top"/>
  <outline>
    <contour>
      <point x="40" y="-219" type="line"/>
      <point x="296" y="-315"/>
      <point x="478" y="-286"/>
      <point x="520" y="-35" type="curve" smooth="yes"/>
      <point x="546" y="119"/>
      <point x="545" y="299"/>
      <point x="541" y="482" type="curve"/>
      <point x="445" y="450" type="line"/>
      <point x="445" y="190"/>
      <point x="457" y="132"/>
      <point x="436" y="-23" type="curve" smooth="yes"/>
      <point x="406" y="-249"/>
      <point x="246" y="-246"/>
      <point x="77" y="-122" type="curve"/>
    </contour>
    <contour>
      <point x="244" y="-10" type="curve" smooth="yes"/>
      <point x="407" y="-10"/>
      <point x="481" y="207"/>
      <point x="492" y="331" type="curve"/>
      <point x="445" y="450" type="line"/>
      <point x="432" y="233"/>
      <point x="360" y="45"/>
      <point x="266" y="45" type="curve" smooth="yes"/>
      <point x="167" y="45"/>
      <point x="130" y="237"/>
      <point x="180" y="463" type="curve"/>
      <point x="75" y="454" type="line"/>
      <point x="47" y="251"/>
      <point x="57" y="-10"/>
    </contour>
  </outline>
</glyph>
<glyph name="z" format="2">
  <advance width="558"/>
  <unicode hex="007A"/>
  <anchor x="319" y="-20" name="bottom"/>
  <anchor x="319" y="520" name="top"/>
  <outline>
    <contour>
      <point x="129" y="39" type="line"/>
      <point x="296" y="135"/>
      <point x="419" y="263"/>
      <point x="503" y="400" type="curve"/>
      <point x="396" y="420" type="line"/>
      <point x="313" y="282"/>
      <point x="193" y="159"/>
      <point x="55" y="63" type="curve"/>
    </contour>
    <contour>
      <point x="461" y="-9" type="curve"/>
      <point x="485" y="70" type="line"/>
      <point x="366" y="84"/>
      <point x="220" y="68"/>
      <point x="111" y="53" type="curve"/>
      <point x="55" y="63" type="line"/>
      <point x="66" y="-2" type="line"/>
      <point x="169" y="9"/>
      <point x="297" y="15"/>
    </contour>
    <contour>
      <point x="61" y="384" type="line"/>
      <point x="242" y="369"/>
      <point x="366" y="370"/>
      <point x="503" y="400" type="curve"/>
      <point x="492" y="442" type="line"/>
      <point x="396" y="425"/>
      <point x="243" y="420"/>
      <point x="79" y="459" type="curve"/>
    </contour>
  </outline>
</glyph>
<glyph name="braceleft" format="2">
  <advance width="318"/>
  <unicode hex="007B"/>
  <outline>
    <contour>
      <point x="87" y="316" type="line"/>
      <point x="159" y="326"/>
      <point x="195" y="360"/>
      <point x="195" y="426" type="curve" smooth="yes"/>
      <point x="195" y="498"/>
      <point x="123" y="558"/>
      <point x="123" y="635" type="curve" smooth="yes"/>
      <point x="123" y="709"/>
      <point x="222" y="730"/>
      <point x="273" y="700" type="curve"/>
      <point x="273" y="776" type="line"/>
      <point x="189" y="803"/>
      <point x="65" y="767"/>
      <point x="65" y="647" type="curve" smooth="yes"/>
      <point x="65" y="532"/>
      <point x="154" y="480"/>
      <point x="154" y="418" type="curve" smooth="yes"/>
      <point x="154" y="391"/>
      <point x="121" y="387"/>
      <point x="87" y="385" type="curve"/>
    </contour>
    <contour>
      <point x="273" y="-75" type="curve"/>
      <point x="273" y="1" type="line"/>
      <point x="222" y="-29"/>
      <point x="123" y="-8"/>
      <point x="123" y="66" type="curve" smooth="yes"/>
      <point x="123" y="143"/>
      <point x="195" y="203"/>
      <point x="195" y="275" type="curve" smooth="yes"/>
      <point x="195" y="341"/>
      <point x="159" y="375"/>
      <point x="87" y="385" type="curve"/>
      <point x="87" y="316" type="line"/>
      <point x="121" y="314"/>
      <point x="154" y="310"/>
      <point x="154" y="283" type="curve" smooth="yes"/>
      <point x="154" y="221"/>
      <point x="65" y="168"/>
      <point x="65" y="54" type="curve" smooth="yes"/>
      <point x="65" y="-67"/>
      <point x="189" y="-102"/>
    </contour>
  </outline>
</glyph>
<glyph name="bar" format="2">
  <advance width="252"/>
  <unicode hex="007C"/>
  <outline>
    <contour>
      <point x="111" y="-210" type="curve"/>
      <point x="185" y="-203" type="line"/>
      <point x="196" y="143"/>
      <point x="195" y="468"/>
      <point x="185" y="774" type="curve"/>
      <point x="95" y="757" type="line"/>
      <point x="111" y="455"/>
      <point x="117" y="132"/>
    </contour>
  </outline>
</glyph>
<glyph name="cent" format="2">
  <advance width="503"/>
  <unicode hex="00A2"/>
  <outline>
    <contour>
      <point x="269" y="44" type="curve" smooth="yes"/>
      <point x="344" y="44"/>
      <point x="413" y="66"/>
      <point x="473" y="108" type="curve"/>
      <point x="464" y="170" type="line"/>
      <point x="417" y="130"/>
      <point x="363" y="105"/>
      <point x="299" y="105" type="curve" smooth="yes"/>
      <point x="208" y="105"/>
      <point x="156" y="167"/>
      <point x="156" y="244" type="curve" smooth="yes"/>
      <point x="156" y="396"/>
      <point x="317" y="460"/>
      <point x="433" y="439" type="curve"/>
      <point x="427" y="509" type="line"/>
      <point x="269" y="530"/>
      <point x="45" y="440"/>
      <point x="45" y="237" type="curve" smooth="yes"/>
      <point x="45" y="105"/>
      <point x="154" y="44"/>
    </contour>
    <contour>
      <point x="259" y="451" type="line"/>
      <point x="325" y="462" type="line"/>
      <point x="340" y="706" type="line"/>
      <point x="252" y="689" type="line"/>
    </contour>
    <contour>
      <point x="252" y="-143" type="line"/>
      <point x="340" y="-126" type="line"/>
      <point x="333" y="92" type="line"/>
      <point x="267" y="81" type="line"/>
    </contour>
  </outline>
</glyph>
<glyph name="sterling" format="2">
  <advance width="634"/>
  <unicode hex="00A3"/>
  <outline>
    <contour>
      <point x="99" y="7" type="line"/>
      <point x="279" y="94"/>
      <point x="313" y="239"/>
      <point x="313" y="300" type="curve" smooth="yes"/>
      <point x="313" y="422"/>
      <point x="184" y="490"/>
      <point x="184" y="590" type="curve" smooth="yes"/>
      <point x="184" y="649"/>
      <point x="244" y="689"/>
      <point x="316" y="689" type="curve" smooth="yes"/>
      <point x="389" y="689"/>
      <point x="487" y="672"/>
      <point x="570" y="620" type="curve"/>
      <point x="581" y="717" type="line"/>
      <point x="507" y="740"/>
      <point x="421" y="757"/>
      <point x="343" y="757" type="curve" smooth="yes"/>
      <point x="209" y="757"/>
      <point x="96" y="708"/>
      <point x="96" y="587" type="curve" smooth="yes"/>
      <point x="96" y="467"/>
      <point x="238" y="391"/>
      <point x="238" y="293" type="curve" smooth="yes"/>
      <point x="238" y="223"/>
      <point x="204" y="140"/>
      <point x="45" y="28" type="curve"/>
    </contour>
    <contour>
      <point x="552" y="-39" type="curve"/>
      <point x="589" y="51" type="line"/>
      <point x="440" y="80"/>
      <point x="212" y="65"/>
      <point x="45" y="30" type="curve"/>
      <point x="57" y="-12" type="line"/>
      <point x="180" y="7"/>
      <point x="377" y="8"/>
    </contour>
    <contour>
      <point x="454" y="284" type="curve"/>
      <point x="451" y="368" type="line"/>
      <point x="323" y="359"/>
      <point x="194" y="355"/>
      <point x="65" y="356" type="curve"/>
      <point x="65" y="296" type="line"/>
      <point x="195" y="287"/>
      <point x="324" y="283"/>
    </contour>
  </outline>
</glyph>
<glyph name="yen" format="2">
  <advance width="596"/>
  <unicode hex="00A5"/>
  <outline>
    <contour>
      <point x="245" y="360" type="curve" smooth="yes"/>
      <point x="384" y="360"/>
      <point x="545" y="514"/>
      <point x="551" y="768" type="curve"/>
      <point x="457" y="755" type="line"/>
      <point x="478" y="623"/>
      <point x="426" y="429"/>
      <point x="268" y="429" type="curve" smooth="yes"/>
      <point x="94" y="429"/>
      <point x="103" y="610"/>
      <point x="152" y="756" type="curve"/>
      <point x="48" y="747" type="line"/>
      <point x="37" y="596"/>
      <point x="54" y="360"/>
    </contour>
    <contour>
      <point x="325" y="-10" type="line"/>
      <point x="325" y="154"/>
      <point x="321" y="226"/>
      <point x="313" y="408" type="curve"/>
      <point x="246" y="390" type="line"/>
      <point x="248" y="244"/>
      <point x="244" y="152"/>
      <point x="238" y="4" type="curve"/>
    </contour>
    <contour>
      <point x="479" y="294" type="curve"/>
      <point x="477" y="378" type="line"/>
      <point x="348" y="369"/>
      <point x="219" y="365"/>
      <point x="91" y="366" type="curve"/>
      <point x="90" y="306" type="line"/>
      <point x="220" y="297"/>
      <point x="349" y="293"/>
    </contour>
    <contour>
      <point x="73" y="146" type="line"/>
      <point x="203" y="145"/>
      <point x="332" y="149"/>
      <point x="462" y="158" type="curve"/>
      <point x="461" y="218" type="line"/>
      <point x="333" y="217"/>
      <point x="204" y="221"/>
      <point x="75" y="230" type="curve"/>
    </contour>
  </outline>
</glyph>
<glyph name="brokenbar" format="2">
  <advance width="287"/>
  <unicode hex="00A6"/>
  <outline>
    <contour>
      <point x="118" y="311" type="curve"/>
      <point x="192" y="335" type="line"/>
      <point x="192" y="475"/>
      <point x="188" y="634"/>
      <point x="179" y="774" type="curve"/>
      <point x="95" y="757" type="line"/>
      <point x="107" y="615"/>
      <point x="115" y="453"/>
    </contour>
    <contour>
      <point x="114" y="-210" type="curve"/>
      <point x="175" y="-203" type="line"/>
      <point x="185" y="-64"/>
      <point x="191" y="104"/>
      <point x="191" y="243" type="curve"/>
      <point x="120" y="241" type="line"/>
      <point x="123" y="101"/>
      <point x="121" y="-70"/>
    </contour>
  </outline>
</glyph>
<glyph name="logicalnot" format="2">
	<advance width="427"/>
	<unicode hex="00AC"/>
	<outline>
		<contour>
			<point x="373" y="239" type="curve"/>
			<point x="371" y="333" type="line"/>
			<point x="263" y="335"/>
			<point x="154" y="332"/>
			<point x="46" y="323" type="curve"/>
			<point x="45" y="251" type="line"/>
			<point x="155" y="252"/>
			<point x="263" y="248"/>
		</contour>
		<contour>
			<point x="287" y="106" type="curve"/>
			<point x="381" y="108" type="line"/>
			<point x="383" y="216"/>
			<point x="380" y="225"/>
			<point x="371" y="333" type="curve"/>
			<point x="299" y="334" type="line"/>
			<point x="300" y="224"/>
			<point x="296" y="216"/>
		</contour>
	</outline>
</glyph>
<glyph name="registered" format="2">
  <advance width="560"/>
  <unicode hex="00AE"/>
  <anchor x="280" y="459" name="bottom"/>
  <anchor x="281" y="739" name="top"/>
  <outline>
    <contour>
      <point x="284" y="372" type="curve" smooth="yes"/>
      <point x="395" y="372"/>
      <point x="495" y="462"/>
      <point x="495" y="603" type="curve" smooth="yes"/>
      <point x="495" y="727"/>
      <point x="399" y="801"/>
      <point x="275" y="801" type="curve" smooth="yes"/>
      <point x="152" y="801"/>
      <point x="65" y="722"/>
      <point x="65" y="598" type="curve" smooth="yes"/>
      <point x="65" y="460"/>
      <point x="175" y="372"/>
    </contour>
    <contour>
      <point x="284" y="415" type="curve"/>
      <point x="178" y="415"/>
      <point x="108" y="484"/>
      <point x="108" y="594" type="curve" smooth="yes"/>
      <point x="108" y="692"/>
      <point x="174" y="758"/>
      <point x="273" y="758" type="curve" smooth="yes"/>
      <point x="373" y="758"/>
      <point x="454" y="700"/>
      <point x="454" y="603" type="curve" smooth="yes"/>
      <point x="454" y="487"/>
      <point x="391" y="415"/>
    </contour>
    <contour>
      <point x="230" y="542" type="line"/>
      <point x="340" y="576"/>
      <point x="383" y="619"/>
      <point x="383" y="676" type="curve" smooth="yes"/>
      <point x="383" y="708"/>
      <point x="362" y="735"/>
      <point x="323" y="735" type="curve" smooth="yes"/>
      <point x="292" y="735"/>
      <point x="240" y="712"/>
      <point x="221" y="648" type="curve"/>
      <point x="239" y="622" type="line"/>
      <point x="251" y="672"/>
      <point x="279" y="696"/>
      <point x="305" y="696" type="curve" smooth="yes"/>
      <point x="330" y="696"/>
      <point x="340" y="672"/>
      <point x="340" y="654" type="curve" smooth="yes"/>
      <point x="340" y="622"/>
      <point x="294" y="591"/>
      <point x="218" y="569" type="curve"/>
    </contour>
    <contour>
      <point x="204" y="458" type="curve"/>
      <point x="247" y="459" type="line"/>
      <point x="249" y="548"/>
      <point x="249" y="620"/>
      <point x="244" y="721" type="curve"/>
      <point x="196" y="714" type="line"/>
      <point x="204" y="647"/>
      <point x="207" y="550"/>
    </contour>
    <contour>
      <point x="342" y="452" type="curve"/>
      <point x="392" y="457" type="line"/>
      <point x="369" y="542"/>
      <point x="323" y="562"/>
      <point x="262" y="573" type="curve"/>
      <point x="241" y="539" type="line"/>
      <point x="298" y="536"/>
      <point x="330" y="503"/>
    </contour>
  </outline>
</glyph>
<glyph name="macron" format="2">
	<advance width="300"/>
	<unicode hex="00AF"/>
	<anchor x="150" y="520" name="_top"/>
	<anchor x="150" y="700" name="top"/>
	<outline>
		<contour>
			<point x="266" y="565" type="line"/>
			<point x="273" y="601" type="line"/>
			<point x="37" y="615" type="line"/>
			<point x="27" y="567" type="line"/>
		</contour>
	</outline>
</glyph>
<glyph name="degree" format="2">
  <advance width="449"/>
  <unicode hex="00B0"/>
  <outline>
    <contour>
      <point x="215" y="444" type="curve" smooth="yes"/>
      <point x="328" y="444"/>
      <point x="382" y="526"/>
      <point x="382" y="606" type="curve" smooth="yes"/>
      <point x="382" y="684"/>
      <point x="331" y="760"/>
      <point x="233" y="760" type="curve" smooth="yes"/>
      <point x="121" y="760"/>
      <point x="67" y="679"/>
      <point x="67" y="599" type="curve" smooth="yes"/>
      <point x="67" y="521"/>
      <point x="119" y="444"/>
    </contour>
    <contour>
      <point x="219" y="505" type="curve" smooth="yes"/>
      <point x="162" y="505"/>
      <point x="133" y="554"/>
      <point x="133" y="602" type="curve" smooth="yes"/>
      <point x="133" y="650"/>
      <point x="161" y="699"/>
      <point x="219" y="699" type="curve" smooth="yes"/>
      <point x="285" y="699"/>
      <point x="318" y="650"/>
      <point x="318" y="602" type="curve" smooth="yes"/>
      <point x="318" y="554"/>
      <point x="285" y="505"/>
    </contour>
  </outline>
</glyph>
<glyph name="micro" format="2">
  <advance width="660"/>
  <unicode hex="00B5"/>
  <outline>
    <contour>
      <point x="63" y="-289" type="curve"/>
      <point x="143" y="-282" type="line"/>
      <point x="171" y="-5"/>
      <point x="171" y="192"/>
      <point x="161" y="443" type="curve"/>
      <point x="57" y="427" type="line"/>
      <point x="75" y="187"/>
      <point x="77" y="-31"/>
    </contour>
    <contour>
      <point x="339" y="-18" type="curve" smooth="yes"/>
      <point x="453" y="-18"/>
      <point x="496" y="97"/>
      <point x="506" y="234" type="curve"/>
      <point x="443" y="234" type="line"/>
      <point x="438" y="116"/>
      <point x="400" y="37"/>
      <point x="335" y="37" type="curve" smooth="yes"/>
      <point x="241" y="37"/>
      <point x="174" y="226"/>
      <point x="161" y="443" type="curve"/>
      <point x="99" y="323" type="line"/>
      <point x="109" y="199"/>
      <point x="187" y="-18"/>
    </contour>
    <contour>
      <point x="620" y="-18" type="curve"/>
      <point x="631" y="37" type="line"/>
      <point x="543" y="37"/>
      <point x="506" y="219"/>
      <point x="556" y="445" type="curve"/>
      <point x="451" y="456" type="line"/>
      <point x="423" y="253"/>
      <point x="433" y="-18"/>
    </contour>
  </outline>
</glyph>
<glyph name="paragraph" format="2">
  <advance width="719"/>
  <unicode hex="00B6"/>
  <outline>
    <contour>
      <point x="354" y="215" type="curve"/>
      <point x="383" y="465" type="line"/>
      <point x="373" y="704"/>
      <point x="281" y="798"/>
      <point x="200" y="798" type="curve" smooth="yes"/>
      <point x="116" y="798"/>
      <point x="65" y="704"/>
      <point x="65" y="591" type="curve" smooth="yes"/>
      <point x="65" y="447"/>
      <point x="148" y="271"/>
    </contour>
    <contour>
      <point x="429" y="2" type="line"/>
      <point x="410" y="295"/>
      <point x="414" y="462"/>
      <point x="432" y="745" type="curve"/>
      <point x="331" y="767" type="line"/>
      <point x="331" y="429"/>
      <point x="334" y="343"/>
      <point x="370" y="18" type="curve"/>
    </contour>
    <contour>
      <point x="552" y="2" type="curve"/>
      <point x="644" y="24" type="line"/>
      <point x="617" y="308"/>
      <point x="612" y="476"/>
      <point x="621" y="767" type="curve"/>
      <point x="561" y="751" type="line"/>
      <point x="535" y="426"/>
      <point x="532" y="340"/>
    </contour>
    <contour>
      <point x="616" y="683" type="curve"/>
      <point x="621" y="767" type="line"/>
      <point x="489" y="754"/>
      <point x="467" y="760"/>
      <point x="331" y="767" type="curve"/>
      <point x="331" y="719" type="line"/>
      <point x="455" y="714"/>
      <point x="495" y="696"/>
    </contour>
  </outline>
</glyph>
<glyph name="cedilla" format="2">
  <advance width="300"/>
  <unicode hex="00B8"/>
  <anchor x="165" y="12" name="_cedilla"/>
  <outline>
    <contour>
      <point x="92" y="-216" type="line"/>
      <point x="151" y="-228"/>
      <point x="250" y="-214"/>
      <point x="250" y="-129" type="curve" smooth="yes"/>
      <point x="250" y="-78"/>
      <point x="199" y="-35"/>
      <point x="122" y="-35" type="curve"/>
      <point x="100" y="-77" type="line"/>
      <point x="150" y="-77"/>
      <point x="214" y="-78"/>
      <point x="214" y="-134" type="curve" smooth="yes"/>
      <point x="214" y="-186"/>
      <point x="140" y="-185"/>
      <point x="93" y="-173" type="curve"/>
    </contour>
    <contour>
      <point x="89" y="-77" type="line"/>
      <point x="113" y="-77" type="line"/>
      <point x="174" y="13" type="line"/>
      <point x="125" y="11" type="line"/>
    </contour>
  </outline>
</glyph>
<glyph name="AE" format="2">
  <advance width="1041"/>
  <unicode hex="00C6"/>
  <anchor x="384" y="0" name="bottom"/>
  <anchor x="615" y="16" name="ogonek"/>
  <anchor x="408" y="800" name="top"/>
  <outline>
    <contour>
      <point x="550" y="1" type="curve"/>
      <point x="647" y="14" type="line"/>
      <point x="698" y="435"/>
      <point x="637" y="766"/>
      <point x="406" y="766" type="curve" smooth="yes"/>
      <point x="153" y="766"/>
      <point x="75" y="452"/>
      <point x="99" y="3" type="curve"/>
      <point x="210" y="12" type="line"/>
      <point x="175" y="259"/>
      <point x="174" y="706"/>
      <point x="405" y="706" type="curve" smooth="yes"/>
      <point x="654" y="706"/>
      <point x="573" y="167"/>
    </contour>
    <contour>
      <point x="139" y="308" type="line"/>
      <point x="309" y="293"/>
      <point x="457" y="296"/>
      <point x="605" y="324" type="curve"/>
      <point x="596" y="390" type="line"/>
      <point x="473" y="367"/>
      <point x="330" y="356"/>
      <point x="171" y="386" type="curve"/>
    </contour>
    <contour>
      <point x="996" y="-5" type="curve"/>
      <point x="996" y="83" type="line"/>
      <point x="853" y="69"/>
      <point x="700" y="44"/>
      <point x="594" y="59" type="curve"/>
      <point x="550" y="1" type="line"/>
      <point x="681" y="-11"/>
      <point x="893" y="-5"/>
    </contour>
    <contour>
      <point x="885" y="329" type="curve"/>
      <point x="882" y="409" type="line"/>
      <point x="801" y="407"/>
      <point x="695" y="404"/>
      <point x="589" y="390" type="curve"/>
      <point x="589" y="331" type="line"/>
      <point x="709" y="340"/>
      <point x="794" y="338"/>
    </contour>
    <contour>
      <point x="979" y="684" type="curve"/>
      <point x="979" y="770" type="line"/>
      <point x="880" y="767"/>
      <point x="568" y="766"/>
      <point x="406" y="766" type="curve"/>
      <point x="487" y="705" type="line"/>
      <point x="578" y="708"/>
      <point x="836" y="705"/>
    </contour>
  </outline>
</glyph>
<glyph name="Eth" format="2">
  <advance width="764"/>
  <unicode hex="00D0"/>
  <anchor x="240" y="0" name="bottom"/>
  <anchor x="240" y="325" name="center"/>
  <anchor x="395" y="800" name="top"/>
  <outline>
    <contour>
      <point x="19" y="298" type="line"/>
      <point x="398" y="310" type="line"/>
      <point x="398" y="373" type="line"/>
      <point x="20" y="384" type="line"/>
    </contour>
    <component base="D"/>
  </outline>
</glyph>
<glyph name="multiply" format="2">
  <advance width="506"/>
  <unicode hex="00D7"/>
  <outline>
    <contour>
      <point x="395" y="145" type="curve"/>
      <point x="461" y="215" type="line"/>
      <point x="373" y="306"/>
      <point x="208" y="465"/>
      <point x="113" y="549" type="curve"/>
      <point x="60" y="497" type="line"/>
      <point x="151" y="407"/>
      <point x="310" y="243"/>
    </contour>
    <contour>
      <point x="115" y="154" type="line"/>
      <point x="206" y="242"/>
      <point x="365" y="406"/>
      <point x="449" y="501" type="curve"/>
      <point x="396" y="555" type="line"/>
      <point x="306" y="464"/>
      <point x="142" y="305"/>
      <point x="45" y="220" type="curve"/>
    </contour>
  </outline>
</glyph>
<glyph name="Oslash" format="2">
  <advance width="800"/>
  <unicode hex="00D8"/>
  <anchor x="401" y="-30" name="bottom"/>
  <anchor x="399" y="800" name="top"/>
  <outline>
    <contour>
      <point x="197" y="-58" type="line"/>
      <point x="641" y="760" type="line"/>
      <point x="583" y="788" type="line"/>
      <point x="138" y="-29" type="line"/>
    </contour>
    <component base="O"/>
  </outline>
</glyph>
<glyph name="Thorn" format="2">
	<advance width="694"/>
	<unicode hex="00DE"/>
	<outline>
		<contour>
			<point x="107" y="-4" type="curve"/>
			<point x="217" y="14" type="line"/>
			<point x="193" y="208"/>
			<point x="185" y="485"/>
			<point x="194" y="748" type="curve"/>
			<point x="100" y="744" type="line"/>
			<point x="93" y="489"/>
			<point x="92" y="283"/>
		</contour>
		<contour>
			<point x="156" y="235" type="curve"/>
			<point x="164" y="180" type="line"/>
			<point x="429" y="180"/>
			<point x="629" y="283"/>
			<point x="629" y="423" type="curve" smooth="yes"/>
			<point x="629" y="529"/>
			<point x="542" y="595"/>
			<point x="423" y="595" type="curve" smooth="yes"/>
			<point x="351" y="595"/>
			<point x="276" y="582"/>
			<point x="165" y="546" type="curve"/>
			<point x="165" y="493" type="line"/>
			<point x="303" y="527"/>
			<point x="523" y="571"/>
			<point x="523" y="423" type="curve" smooth="yes"/>
			<point x="523" y="326"/>
			<point x="394" y="235"/>
		</contour>
	</outline>
</glyph>
<glyph name="germandbls" format="2">
  <advance width="681"/>
  <unicode hex="00DF"/>
  <outline>
    <contour>
      <point x="131" y="-13" type="curve"/>
      <point x="212" y="2" type="line"/>
      <point x="209" y="153"/>
      <point x="210" y="344"/>
      <point x="217" y="500" type="curve" smooth="yes"/>
      <point x="224" y="671"/>
      <point x="304" y="745"/>
      <point x="377" y="745" type="curve" smooth="yes"/>
      <point x="445" y="745"/>
      <point x="487" y="692"/>
      <point x="487" y="606" type="curve" smooth="yes"/>
      <point x="487" y="512"/>
      <point x="420" y="453"/>
      <point x="305" y="436" type="curve"/>
      <point x="312" y="379" type="line"/>
      <point x="470" y="392"/>
      <point x="592" y="484"/>
      <point x="592" y="606" type="curve" smooth="yes"/>
      <point x="592" y="741"/>
      <point x="487" y="796"/>
      <point x="371" y="796" type="curve" smooth="yes"/>
      <point x="234" y="796"/>
      <point x="113" y="692"/>
      <point x="113" y="465" type="curve" smooth="yes"/>
      <point x="113" y="356"/>
      <point x="121" y="201"/>
    </contour>
    <contour>
      <point x="332" y="9" type="line"/>
      <point x="478" y="9"/>
      <point x="608" y="116"/>
      <point x="608" y="259" type="curve" smooth="yes"/>
      <point x="608" y="439"/>
      <point x="423" y="439"/>
      <point x="318" y="417" type="curve"/>
      <point x="312" y="379" type="line"/>
      <point x="360" y="383"/>
      <point x="508" y="381"/>
      <point x="508" y="240" type="curve" smooth="yes"/>
      <point x="508" y="157"/>
      <point x="437" y="72"/>
      <point x="324" y="62" type="curve"/>
    </contour>
  </outline>
</glyph>
<glyph name="ae" format="2">
  <advance width="888"/>
  <unicode hex="00E6"/>
  <anchor x="295" y="-36" name="bottom"/>
  <anchor x="515" y="21" name="ogonek"/>
  <anchor x="344" y="560" name="top"/>
  <outline>
    <contour>
      <point x="208" y="-14" type="curve" smooth="yes"/>
      <point x="316" y="-14"/>
      <point x="440" y="82"/>
      <point x="455" y="319" type="curve"/>
      <point x="397" y="270" type="line"/>
      <point x="399" y="144"/>
      <point x="317" y="64"/>
      <point x="240" y="64" type="curve" smooth="yes"/>
      <point x="183" y="64"/>
      <point x="154" y="115"/>
      <point x="154" y="172" type="curve" smooth="yes"/>
      <point x="154" y="230"/>
      <point x="191" y="333"/>
      <point x="418" y="383" type="curve"/>
      <point x="394" y="441" type="line"/>
      <point x="137" y="367"/>
      <point x="45" y="263"/>
      <point x="45" y="150" type="curve" smooth="yes"/>
      <point x="45" y="48"/>
      <point x="121" y="-14"/>
    </contour>
    <contour>
      <point x="406" y="138" type="curve"/>
      <point x="487" y="156" type="line"/>
      <point x="487" y="156"/>
      <point x="486" y="294"/>
      <point x="506" y="453" type="curve"/>
      <point x="394" y="441" type="line"/>
      <point x="392" y="417"/>
      <point x="392" y="128"/>
    </contour>
    <component base="e" xOffset="351"/>
  </outline>
</glyph>
<glyph name="eth" format="2">
  <advance width="594"/>
  <unicode hex="00F0"/>
  <outline>
    <contour>
      <point x="264" y="-10" type="curve" smooth="yes"/>
      <point x="464" y="-10"/>
      <point x="549" y="107"/>
      <point x="549" y="247" type="curve" smooth="yes"/>
      <point x="549" y="456"/>
      <point x="383" y="657"/>
      <point x="153" y="710" type="curve"/>
      <point x="133" y="625" type="line"/>
      <point x="337" y="565"/>
      <point x="463" y="414"/>
      <point x="463" y="292" type="curve" smooth="yes"/>
      <point x="463" y="193"/>
      <point x="415" y="71"/>
      <point x="257" y="71" type="curve" smooth="yes"/>
      <point x="189" y="71"/>
      <point x="130" y="108"/>
      <point x="130" y="149" type="curve" smooth="yes"/>
      <point x="130" y="194"/>
      <point x="178" y="247"/>
      <point x="277" y="247" type="curve" smooth="yes"/>
      <point x="343" y="247"/>
      <point x="422" y="226"/>
      <point x="490" y="139" type="curve"/>
      <point x="489" y="245" type="line"/>
      <point x="431" y="299"/>
      <point x="329" y="328"/>
      <point x="228" y="328" type="curve" smooth="yes"/>
      <point x="101" y="328"/>
      <point x="45" y="249"/>
      <point x="45" y="174" type="curve" smooth="yes"/>
      <point x="45" y="82"/>
      <point x="128" y="-10"/>
    </contour>
    <contour>
      <point x="151" y="382" type="line"/>
      <point x="493" y="616" type="line"/>
      <point x="462" y="678" type="line"/>
      <point x="109" y="466" type="line"/>
    </contour>
  </outline>
</glyph>
<glyph name="divide" format="2">
  <advance width="436"/>
  <unicode hex="00F7"/>
  <outline>
    <contour>
      <point x="391" y="308" type="curve"/>
      <point x="388" y="405" type="line"/>
      <point x="280" y="406"/>
      <point x="154" y="403"/>
      <point x="46" y="394" type="curve"/>
      <point x="45" y="320" type="line"/>
      <point x="155" y="321"/>
      <point x="281" y="317"/>
    </contour>
    <contour>
      <point x="165" y="80" type="curve"/>
      <point x="271" y="82" type="line"/>
      <point x="269" y="124"/>
      <point x="274" y="157"/>
      <point x="274" y="197" type="curve"/>
      <point x="163" y="200" type="line"/>
      <point x="160" y="164"/>
      <point x="161" y="118"/>
    </contour>
    <contour>
      <point x="165" y="520" type="curve"/>
      <point x="271" y="522" type="line"/>
      <point x="269" y="564"/>
      <point x="274" y="597"/>
      <point x="274" y="637" type="curve"/>
      <point x="163" y="640" type="line"/>
      <point x="160" y="604"/>
      <point x="161" y="558"/>
    </contour>
  </outline>
</glyph>
<glyph name="oslash" format="2">
  <advance width="591"/>
  <unicode hex="00F8"/>
  <anchor x="269" y="-42" name="bottom"/>
  <anchor x="267" y="520" name="top"/>
  <outline>
    <contour>
      <point x="175" y="-62" type="line"/>
      <point x="475" y="488" type="line"/>
      <point x="385" y="512" type="line"/>
      <point x="108" y="-40" type="line"/>
    </contour>
    <contour>
      <point x="270" y="-12" type="curve" smooth="yes"/>
      <point x="424" y="-12"/>
      <point x="502" y="107"/>
      <point x="502" y="226" type="curve" smooth="yes"/>
      <point x="502" y="345"/>
      <point x="424" y="463"/>
      <point x="268" y="463" type="curve" smooth="yes"/>
      <point x="121" y="463"/>
      <point x="45" y="343"/>
      <point x="45" y="223" type="curve" smooth="yes"/>
      <point x="45" y="105"/>
      <point x="119" y="-12"/>
    </contour>
    <contour>
      <point x="279" y="43" type="curve" smooth="yes"/>
      <point x="199" y="43"/>
      <point x="140" y="121"/>
      <point x="140" y="218" type="curve" smooth="yes"/>
      <point x="140" y="298"/>
      <point x="190" y="376"/>
      <point x="275" y="376" type="curve" smooth="yes"/>
      <point x="362" y="376"/>
      <point x="411" y="299"/>
      <point x="411" y="220" type="curve" smooth="yes"/>
      <point x="411" y="132"/>
      <point x="375" y="43"/>
    </contour>
  </outline>
</glyph>
<glyph name="dcroat" format="2">
  <advance width="576"/>
  <unicode hex="0111"/>
  <anchor x="93" y="0" name="bottom"/>
  <anchor x="208" y="260" name="center"/>
  <anchor x="429" y="800" name="top"/>
  <anchor x="600" y="750" name="topright"/>
  <outline>
    <contour>
      <point x="184" y="577" type="line"/>
      <point x="587" y="590" type="line"/>
      <point x="587" y="661" type="line"/>
      <point x="186" y="673" type="line"/>
    </contour>
    <component base="d"/>
  </outline>
</glyph>
<glyph name="Hbar" format="2">
  <advance width="837"/>
  <unicode hex="0126"/>
  <outline>
    <contour>
      <point x="2" y="527" type="line"/>
      <point x="814" y="593" type="line"/>
      <point x="806" y="659" type="line"/>
      <point x="-5" y="617" type="line"/>
    </contour>
    <component base="H"/>
  </outline>
</glyph>
<glyph name="hbar" format="2">
  <advance width="603"/>
  <unicode hex="0127"/>
  <outline>
    <contour>
      <point x="14" y="577" type="line"/>
      <point x="417" y="590" type="line"/>
      <point x="417" y="661" type="line"/>
      <point x="16" y="673" type="line"/>
    </contour>
    <component base="h"/>
  </outline>
</glyph>
<glyph name="idotless" format="2">
  <advance width="259"/>
  <unicode hex="0131"/>
  <anchor x="123" y="-36" name="bottom"/>
  <anchor x="159" y="5" name="ogonek"/>
  <anchor x="123" y="520" name="top"/>
  <outline>
    <contour>
      <point x="159" y="5" type="line"/>
      <point x="183" y="184"/>
      <point x="189" y="307"/>
      <point x="179" y="466" type="curve"/>
      <point x="75" y="453" type="line"/>
      <point x="93" y="305"/>
      <point x="91" y="138"/>
      <point x="81" y="-2" type="curve"/>
    </contour>
  </outline>
</glyph>
<glyph name="Lslash" format="2">
  <advance width="576"/>
  <unicode hex="0141"/>
  <anchor x="345" y="-30" name="bottom"/>
  <anchor x="307" y="325" name="center"/>
  <anchor x="205" y="800" name="top"/>
  <anchor x="440" y="720" name="topright"/>
  <outline>
    <contour>
      <point x="35" y="176" type="line"/>
      <point x="399" y="439" type="line"/>
      <point x="368" y="494" type="line"/>
      <point x="-5" y="249" type="line"/>
    </contour>
    <component base="L"/>
  </outline>
</glyph>
<glyph name="lslash" format="2">
  <advance width="260"/>
  <unicode hex="0142"/>
  <anchor x="117" y="-40" name="bottom"/>
  <anchor x="133" y="830" name="top"/>
  <anchor x="268" y="760" name="topright"/>
  <outline>
    <contour>
      <point x="2" y="212" type="line"/>
      <point x="340" y="450" type="line"/>
      <point x="307" y="513" type="line"/>
      <point x="-39" y="290" type="line"/>
    </contour>
    <component base="l"/>
  </outline>
</glyph>
<glyph name="OE" format="2">
  <advance width="1049"/>
  <unicode hex="0152"/>
  <anchor x="875" y="-30" name="bottom"/>
  <anchor x="988" y="7" name="ogonek"/>
  <anchor x="873" y="800" name="top"/>
  <outline>
    <contour>
      <point x="412" y="-2" type="curve" smooth="yes"/>
      <point x="477" y="-2"/>
      <point x="543" y="9"/>
      <point x="604" y="46" type="curve"/>
      <point x="603" y="109" type="line"/>
      <point x="543" y="78"/>
      <point x="490" y="64"/>
      <point x="409" y="64" type="curve" smooth="yes"/>
      <point x="287" y="64"/>
      <point x="165" y="164"/>
      <point x="165" y="353" type="curve" smooth="yes"/>
      <point x="165" y="539"/>
      <point x="292" y="661"/>
      <point x="446" y="661" type="curve" smooth="yes"/>
      <point x="489" y="661"/>
      <point x="534" y="654"/>
      <point x="578" y="638" type="curve"/>
      <point x="591" y="719" type="line"/>
      <point x="547" y="738"/>
      <point x="495" y="748"/>
      <point x="441" y="748" type="curve" smooth="yes"/>
      <point x="264" y="748"/>
      <point x="65" y="638"/>
      <point x="65" y="356" type="curve" smooth="yes"/>
      <point x="65" y="138"/>
      <point x="231" y="-2"/>
    </contour>
    <contour>
      <point x="532" y="15" type="curve"/>
      <point x="622" y="28" type="line"/>
      <point x="629" y="283"/>
      <point x="641" y="452"/>
      <point x="626" y="739" type="curve"/>
      <point x="516" y="736" type="line"/>
      <point x="540" y="542"/>
      <point x="545" y="235"/>
    </contour>
    <contour>
      <point x="1004" y="-5" type="curve"/>
      <point x="1004" y="83" type="line"/>
      <point x="861" y="69"/>
      <point x="682" y="58"/>
      <point x="576" y="73" type="curve"/>
      <point x="532" y="15" type="line"/>
      <point x="663" y="3"/>
      <point x="901" y="-5"/>
    </contour>
    <contour>
      <point x="893" y="324" type="curve"/>
      <point x="890" y="404" type="line"/>
      <point x="809" y="402"/>
      <point x="703" y="399"/>
      <point x="597" y="385" type="curve"/>
      <point x="597" y="326" type="line"/>
      <point x="717" y="335"/>
      <point x="802" y="333"/>
    </contour>
    <contour>
      <point x="987" y="684" type="curve"/>
      <point x="987" y="770" type="line"/>
      <point x="888" y="767"/>
      <point x="624" y="749"/>
      <point x="516" y="736" type="curve"/>
      <point x="597" y="681" type="line"/>
      <point x="663" y="690"/>
      <point x="844" y="705"/>
    </contour>
  </outline>
</glyph>
<glyph name="jdotless" format="2">
  <advance width="256"/>
  <unicode hex="0237"/>
  <anchor x="85" y="-233" name="bottom"/>
  <anchor x="119" y="529" name="top"/>
  <outline>
    <contour>
      <point x="75" y="-260"/>
      <point x="165" y="-168"/>
      <point x="184" y="60" type="curve" smooth="yes"/>
      <point x="194" y="179"/>
      <point x="192" y="290"/>
      <point x="185" y="468" type="curve"/>
      <point x="75" y="451" type="line"/>
      <point x="98" y="234"/>
      <point x="100" y="127"/>
      <point x="96" y="22" type="curve" smooth="yes"/>
      <point x="91" y="-105"/>
      <point x="56" y="-200"/>
      <point x="-116" y="-186" type="curve"/>
      <point x="-107" y="-244" type="line"/>
    </contour>
  </outline>
</glyph>
<glyph name="dotaccent" format="2">
	<advance width="300"/>
	<unicode hex="02D9"/>
	<anchor x="150" y="520" name="_top"/>
	<anchor x="150" y="720" name="top"/>
	<outline>
		<contour>
			<point x="103" y="565" type="curve"/>
			<point x="201" y="568" type="line"/>
			<point x="199" y="605"/>
			<point x="203" y="636"/>
			<point x="203" y="673" type="curve"/>
			<point x="101" y="675" type="line"/>
			<point x="99" y="642"/>
			<point x="100" y="600"/>
		</contour>
	</outline>
</glyph>
<glyph name="gravecomb" format="2">
	<advance width="0"/>
	<unicode hex="0300"/>
	<guideline x="188" y="561" angle="0"/>
	<anchor x="150" y="520" name="_top"/>
	<anchor x="150" y="700" name="top"/>
	<outline>
		<contour>
			<point x="148" y="560" type="line"/>
			<point x="178" y="584" type="line"/>
			<point x="7" y="792" type="line"/>
			<point x="-35" y="751" type="line"/>
		</contour>
	</outline>
</glyph>
<glyph name="acutecomb" format="2">
  <unicode hex="0301"/>
  <anchor x="150" y="520" name="_top"/>
  <anchor x="150" y="700" name="top"/>
  <outline>
    <contour>
      <point x="150" y="560" type="line"/>
      <point x="334" y="751" type="line"/>
      <point x="292" y="792" type="line"/>
      <point x="120" y="584" type="line"/>
    </contour>
  </outline>
</glyph>
<glyph name="circumflexcomb" format="2">
  <unicode hex="0302"/>
  <anchor x="150" y="520" name="_top"/>
  <anchor x="150" y="752" name="top"/>
  <outline>
    <contour>
      <point x="45" y="546" type="line"/>
      <point x="162" y="696" type="line"/>
      <point x="150" y="752" type="line"/>
      <point x="-12" y="576" type="line"/>
    </contour>
    <contour>
      <point x="255" y="546" type="line"/>
      <point x="312" y="576" type="line"/>
      <point x="150" y="752" type="line"/>
      <point x="138" y="696" type="line"/>
    </contour>
  </outline>
</glyph>
<glyph name="uni0302" format="2">
	<advance width="0"/>
	<unicode hex="0302"/>
	<guideline x="188" y="561" angle="0"/>
	<anchor x="150" y="520" name="_top"/>
	<anchor x="150" y="752" name="top"/>
	<outline>
		<contour>
			<point x="45" y="546" type="line"/>
			<point x="162" y="696" type="line"/>
			<point x="150" y="752" type="line"/>
			<point x="-12" y="576" type="line"/>
		</contour>
		<contour>
			<point x="255" y="546" type="line"/>
			<point x="312" y="576" type="line"/>
			<point x="150" y="752" type="line"/>
			<point x="138" y="696" type="line"/>
		</contour>
	</outline>
</glyph>
<glyph name="macroncomb" format="2">
  <unicode hex="0304"/>
  <anchor x="150" y="520" name="_top"/>
  <anchor x="150" y="700" name="top"/>
  <outline>
    <contour>
      <point x="266" y="565" type="line"/>
      <point x="273" y="601" type="line"/>
      <point x="37" y="615" type="line"/>
      <point x="27" y="567" type="line"/>
    </contour>
  </outline>
</glyph>
<glyph name="brevecomb" format="2">
  <unicode hex="0306"/>
  <anchor x="150" y="520" name="_top"/>
  <anchor x="150" y="710" name="top"/>
  <outline>
    <contour>
      <point x="150" y="563" type="curve"/>
      <point x="238" y="563"/>
      <point x="281" y="625"/>
      <point x="281" y="716" type="curve"/>
      <point x="223" y="710" type="line"/>
      <point x="223" y="632"/>
      <point x="202" y="601"/>
      <point x="150" y="601" type="curve" smooth="yes"/>
      <point x="113" y="601"/>
      <point x="78" y="625"/>
      <point x="74" y="701" type="curve"/>
      <point x="20" y="698" type="line"/>
      <point x="20" y="598"/>
      <point x="91" y="563"/>
    </contour>
  </outline>
</glyph>
<glyph name="dieresiscomb" format="2">
  <unicode hex="0308"/>
  <anchor x="150" y="520" name="_top"/>
  <anchor x="150" y="700" name="top"/>
  <outline>
    <contour>
      <point x="28" y="561" type="curve"/>
      <point x="116" y="563" type="line"/>
      <point x="114" y="597"/>
      <point x="118" y="625"/>
      <point x="118" y="658" type="curve"/>
      <point x="26" y="660" type="line"/>
      <point x="24" y="630"/>
      <point x="25" y="592"/>
    </contour>
    <contour>
      <point x="188" y="561" type="curve"/>
      <point x="276" y="563" type="line"/>
      <point x="274" y="597"/>
      <point x="278" y="625"/>
      <point x="278" y="658" type="curve"/>
      <point x="186" y="660" type="line"/>
      <point x="184" y="630"/>
      <point x="185" y="592"/>
    </contour>
  </outline>
</glyph>
<glyph name="uni030B" format="2">
	<advance width="0"/>
	<unicode hex="030B"/>
	<anchor x="150" y="520" name="_top"/>
	<anchor x="150" y="700" name="top"/>
	<outline>
		<contour>
			<point x="10" y="560" type="line"/>
			<point x="194" y="751" type="line"/>
			<point x="152" y="792" type="line"/>
			<point x="-20" y="584" type="line"/>
		</contour>
		<contour>
			<point x="200" y="561" type="line"/>
			<point x="384" y="752" type="line"/>
			<point x="342" y="793" type="line"/>
			<point x="170" y="585" type="line"/>
		</contour>
	</outline>
</glyph>
<glyph name="caroncomb" format="2">
  <unicode hex="030C"/>
  <anchor x="150" y="520" name="_top"/>
  <anchor x="150" y="752" name="top"/>
  <outline>
    <contour>
      <point x="45" y="749" type="line"/>
      <point x="-12" y="719" type="line"/>
      <point x="150" y="543" type="line"/>
      <point x="162" y="599" type="line"/>
    </contour>
    <contour>
      <point x="255" y="749" type="line"/>
      <point x="138" y="599" type="line"/>
      <point x="150" y="543" type="line"/>
      <point x="312" y="719" type="line"/>
    </contour>
  </outline>
</glyph>
<glyph name="commaturnedabovecomb" format="2">
  <unicode hex="0312"/>
  <anchor x="150" y="520" name="_top"/>
  <anchor x="150" y="830" name="top"/>
  <outline>
    <contour>
      <point x="158" y="745" type="line"/>
      <point x="129" y="715"/>
      <point x="117" y="687"/>
      <point x="116" y="642" type="curve" smooth="yes"/>
      <point x="115" y="615"/>
      <point x="114" y="593"/>
      <point x="114" y="567" type="curve"/>
      <point x="187" y="565" type="line"/>
      <point x="188" y="589"/>
      <point x="188" y="619"/>
      <point x="185" y="644" type="curve"/>
      <point x="127" y="642" type="line"/>
      <point x="138" y="633" type="line"/>
      <point x="145" y="643"/>
      <point x="165" y="682"/>
      <point x="189" y="698" type="curve"/>
    </contour>
  </outline>
</glyph>
<glyph name="commaaccentcomb" format="2">
  <unicode hex="0326"/>
  <anchor x="150" y="0" name="_bottom"/>
  <anchor x="150" y="-310" name="bottom"/>
  <outline>
    <contour>
      <point x="145" y="-236" type="line"/>
      <point x="174" y="-206"/>
      <point x="186" y="-178"/>
      <point x="187" y="-133" type="curve" smooth="yes"/>
      <point x="188" y="-106"/>
      <point x="189" y="-84"/>
      <point x="189" y="-58" type="curve"/>
      <point x="116" y="-56" type="line"/>
      <point x="115" y="-80"/>
      <point x="115" y="-110"/>
      <point x="118" y="-135" type="curve"/>
      <point x="176" y="-133" type="line"/>
      <point x="162" y="-124" type="line"/>
      <point x="155" y="-149"/>
      <point x="138" y="-173"/>
      <point x="114" y="-189" type="curve"/>
    </contour>
  </outline>
</glyph>
<glyph name="ogonekcomb" format="2">
  <unicode hex="0328"/>
  <anchor x="200" y="-5" name="_ogonek"/>
  <outline>
    <contour>
      <point x="202" y="-215" type="curve"/>
      <point x="206" y="-168" type="line"/>
      <point x="137" y="-176"/>
      <point x="90" y="-153"/>
      <point x="90" y="-111" type="curve" smooth="yes"/>
      <point x="90" y="-77"/>
      <point x="124" y="-43"/>
      <point x="200" y="-5" type="curve"/>
      <point x="167" y="5" type="line"/>
      <point x="92" y="-30"/>
      <point x="49" y="-76"/>
      <point x="49" y="-119" type="curve" smooth="yes"/>
      <point x="49" y="-176"/>
      <point x="115" y="-216"/>
    </contour>
  </outline>
</glyph>
<glyph name="comma-ar" format="2">
  <advance width="300"/>
  <unicode hex="060C"/>
  <outline>
    <contour>
      <point x="157" y="-11" type="curve" smooth="yes"/>
      <point x="191" y="-11"/>
      <point x="230" y="14"/>
      <point x="230" y="68" type="curve" smooth="yes"/>
      <point x="230" y="124"/>
      <point x="173" y="157"/>
      <point x="122" y="121" type="curve"/>
      <point x="135" y="166"/>
      <point x="166" y="198"/>
      <point x="212" y="232" type="curve"/>
      <point x="147" y="295" type="line"/>
      <point x="91" y="247"/>
      <point x="60" y="163"/>
      <point x="60" y="106" type="curve" smooth="yes"/>
      <point x="60" y="41"/>
      <point x="91" y="-11"/>
    </contour>
  </outline>
</glyph>
<glyph name="tahabove-ar" format="2">
  <unicode hex="0615"/>
  <anchor x="41" y="572" name="_top"/>
  <anchor x="49" y="813" name="top"/>
  <outline>
    <contour>
      <point x="27" y="599" type="curve" smooth="yes"/>
      <point x="101" y="599"/>
      <point x="140" y="634"/>
      <point x="140" y="683" type="curve" smooth="yes"/>
      <point x="140" y="718"/>
      <point x="117" y="741"/>
      <point x="79" y="741" type="curve" smooth="yes"/>
      <point x="35" y="741"/>
      <point x="-10" y="698"/>
      <point x="-20" y="633" type="curve"/>
      <point x="8" y="629" type="line"/>
      <point x="23" y="680"/>
      <point x="44" y="696"/>
      <point x="64" y="696" type="curve" smooth="yes"/>
      <point x="78" y="696"/>
      <point x="85" y="684"/>
      <point x="85" y="672" type="curve" smooth="yes"/>
      <point x="85" y="655"/>
      <point x="70" y="633"/>
      <point x="13" y="633" type="curve" smooth="yes"/>
      <point x="-13" y="633"/>
      <point x="-34" y="638"/>
      <point x="-47" y="642" type="curve"/>
      <point x="-55" y="613" type="line"/>
      <point x="-32" y="604"/>
      <point x="9" y="599"/>
    </contour>
    <contour>
      <point x="-22" y="627" type="curve"/>
      <point x="7" y="633" type="line"/>
      <point x="29" y="682"/>
      <point x="31" y="741"/>
      <point x="26" y="801" type="curve"/>
      <point x="-34" y="794" type="line"/>
      <point x="-21" y="736"/>
      <point x="-17" y="694"/>
    </contour>
  </outline>
</glyph>
<glyph name="alef-ar" format="2">
  <advance width="273"/>
  <unicode hex="0627"/>
  <anchor x="141" y="-36" name="bottom"/>
  <anchor x="131" y="765" name="top"/>
  <outline>
    <contour>
      <point x="106" y="-14" type="curve"/>
      <point x="166" y="1" type="line"/>
      <point x="191" y="218"/>
      <point x="198" y="463"/>
      <point x="190" y="734" type="curve"/>
      <point x="80" y="717" type="line"/>
      <point x="112" y="455"/>
      <point x="116" y="238"/>
    </contour>
  </outline>
</glyph>
<glyph name="hah-ar" format="2">
  <advance width="640"/>
  <unicode hex="062D"/>
  <anchor x="355" y="-470" name="bottom"/>
  <anchor x="307" y="590" name="top"/>
  <outline>
    <contour>
      <point x="369" y="-421" type="curve" smooth="yes"/>
      <point x="442" y="-421"/>
      <point x="522" y="-406"/>
      <point x="600" y="-378" type="curve"/>
      <point x="553" y="-284" type="line"/>
      <point x="491" y="-317"/>
      <point x="419" y="-334"/>
      <point x="352" y="-334" type="curve" smooth="yes"/>
      <point x="227" y="-334"/>
      <point x="115" y="-272"/>
      <point x="115" y="-140" type="curve" smooth="yes"/>
      <point x="115" y="44"/>
      <point x="317" y="162"/>
      <point x="580" y="162" type="curve"/>
      <point x="592" y="249" type="line"/>
      <point x="508" y="247" type="line"/>
      <point x="282" y="247"/>
      <point x="60" y="87"/>
      <point x="60" y="-140" type="curve" smooth="yes"/>
      <point x="60" y="-337"/>
      <point x="198" y="-421"/>
    </contour>
    <contour>
      <point x="574" y="212" type="curve"/>
      <point x="592" y="249" type="line"/>
      <point x="422" y="322"/>
      <point x="232" y="411"/>
      <point x="62" y="390" type="curve"/>
      <point x="84" y="285" type="line"/>
      <point x="271" y="321"/>
      <point x="399" y="262"/>
    </contour>
  </outline>
</glyph>
<glyph name="dal-ar" format="2">
  <advance width="380"/>
  <unicode hex="062F"/>
  <anchor x="227" y="-75" name="bottom"/>
  <anchor x="214" y="600" name="top"/>
  <outline>
    <contour>
      <point x="39" y="0" type="line"/>
      <point x="207" y="0"/>
      <point x="320" y="47"/>
      <point x="320" y="183" type="curve" smooth="yes"/>
      <point x="320" y="244"/>
      <point x="300" y="357"/>
      <point x="264" y="440" type="curve"/>
      <point x="158" y="417" type="line"/>
      <point x="203" y="350"/>
      <point x="257" y="218"/>
      <point x="257" y="164" type="curve" smooth="yes"/>
      <point x="257" y="57"/>
      <point x="96" y="63"/>
      <point x="30" y="70" type="curve"/>
    </contour>
  </outline>
</glyph>
<glyph name="reh-ar" format="2">
  <advance width="300"/>
  <unicode hex="0631"/>
  <anchor x="133" y="-370" name="bottom"/>
  <anchor x="147" y="600" name="top"/>
  <outline>
    <contour>
      <point x="-3" y="-340" type="line"/>
      <point x="170" y="-180"/>
      <point x="240" y="9"/>
      <point x="240" y="150" type="curve" smooth="yes"/>
      <point x="240" y="259"/>
      <point x="226" y="333"/>
      <point x="200" y="400" type="curve"/>
      <point x="140" y="378" type="line"/>
      <point x="162" y="326"/>
      <point x="174" y="268"/>
      <point x="174" y="207" type="curve" smooth="yes"/>
      <point x="174" y="56"/>
      <point x="99" y="-113"/>
      <point x="-80" y="-261" type="curve"/>
    </contour>
  </outline>
</glyph>
<glyph name="sad-ar" format="2">
  <advance width="1150"/>
  <unicode hex="0635"/>
  <anchor x="834" y="-75" name="bottom"/>
  <anchor x="893" y="550" name="top"/>
  <outline>
    <contour>
      <point x="305" y="-247" type="curve" smooth="yes"/>
      <point x="596" y="-247"/>
      <point x="615" y="120"/>
      <point x="577" y="341" type="curve"/>
      <point x="467" y="325" type="line"/>
      <point x="519" y="131"/>
      <point x="528" y="-192"/>
      <point x="315" y="-192" type="curve" smooth="yes"/>
      <point x="220" y="-192"/>
      <point x="136" y="-139"/>
      <point x="136" y="-26" type="curve" smooth="yes"/>
      <point x="136" y="59"/>
      <point x="186" y="135"/>
      <point x="264" y="184" type="curve"/>
      <point x="213" y="262" type="line"/>
      <point x="120" y="198"/>
      <point x="60" y="108"/>
      <point x="60" y="-6" type="curve" smooth="yes"/>
      <point x="60" y="-136"/>
      <point x="158" y="-247"/>
    </contour>
    <contour>
      <point x="806" y="-10" type="curve" smooth="yes"/>
      <point x="944" y="-10"/>
      <point x="1090" y="85"/>
      <point x="1090" y="238" type="curve" smooth="yes"/>
      <point x="1090" y="347"/>
      <point x="1013" y="410"/>
      <point x="908" y="410" type="curve" smooth="yes"/>
      <point x="789" y="410"/>
      <point x="631" y="305"/>
      <point x="599" y="106" type="curve"/>
      <point x="641" y="88" type="line"/>
      <point x="687" y="237"/>
      <point x="789" y="325"/>
      <point x="876" y="325" type="curve" smooth="yes"/>
      <point x="940" y="325"/>
      <point x="984" y="285"/>
      <point x="984" y="220" type="curve" smooth="yes"/>
      <point x="984" y="128"/>
      <point x="893" y="50"/>
      <point x="801" y="50" type="curve" smooth="yes"/>
      <point x="666" y="50"/>
      <point x="611" y="145"/>
      <point x="577" y="341" type="curve"/>
      <point x="517" y="317" type="line"/>
      <point x="543" y="136"/>
      <point x="618" y="-10"/>
    </contour>
  </outline>
</glyph>
<glyph name="tah-ar" format="2">
  <advance width="680"/>
  <unicode hex="0637"/>
  <anchor x="337" y="-60" name="bottom"/>
  <anchor x="470" y="550" name="top"/>
  <outline>
    <contour>
      <point x="259" y="-10" type="curve" smooth="yes"/>
      <point x="474" y="-10"/>
      <point x="620" y="85"/>
      <point x="620" y="238" type="curve" smooth="yes"/>
      <point x="620" y="347"/>
      <point x="543" y="410"/>
      <point x="438" y="410" type="curve" smooth="yes"/>
      <point x="319" y="410"/>
      <point x="178" y="305"/>
      <point x="138" y="70" type="curve"/>
      <point x="180" y="52" type="line"/>
      <point x="230" y="237"/>
      <point x="319" y="325"/>
      <point x="406" y="325" type="curve" smooth="yes"/>
      <point x="470" y="325"/>
      <point x="514" y="285"/>
      <point x="514" y="220" type="curve" smooth="yes"/>
      <point x="514" y="128"/>
      <point x="423" y="55"/>
      <point x="254" y="55" type="curve" smooth="yes"/>
      <point x="151" y="55"/>
      <point x="101" y="73"/>
      <point x="56" y="88" type="curve"/>
      <point x="40" y="30" type="line"/>
      <point x="80" y="13"/>
      <point x="178" y="-10"/>
    </contour>
    <contour>
      <point x="116" y="40" type="curve"/>
      <point x="176" y="54" type="line"/>
      <point x="201" y="254"/>
      <point x="208" y="501"/>
      <point x="200" y="751" type="curve"/>
      <point x="90" y="736" type="line"/>
      <point x="122" y="494"/>
      <point x="126" y="273"/>
    </contour>
  </outline>
</glyph>
<glyph name="ain-ar" format="2">
  <advance width="579"/>
  <unicode hex="0639"/>
  <anchor x="307" y="-460" name="bottom"/>
  <anchor x="289" y="550" name="top"/>
  <outline>
    <contour>
      <point x="328" y="-422" type="curve" smooth="yes"/>
      <point x="387" y="-422"/>
      <point x="451" y="-411"/>
      <point x="559" y="-381" type="curve"/>
      <point x="515" y="-288" type="line"/>
      <point x="432" y="-324"/>
      <point x="355" y="-334"/>
      <point x="304" y="-334" type="curve" smooth="yes"/>
      <point x="214" y="-334"/>
      <point x="95" y="-309"/>
      <point x="95" y="-190" type="curve" smooth="yes"/>
      <point x="95" y="-46"/>
      <point x="263" y="38"/>
      <point x="505" y="47" type="curve"/>
      <point x="461" y="132" type="line"/>
      <point x="196" y="128"/>
      <point x="40" y="5"/>
      <point x="40" y="-181" type="curve" smooth="yes"/>
      <point x="40" y="-333"/>
      <point x="162" y="-422"/>
    </contour>
    <contour>
      <point x="505" y="47" type="line"/>
      <point x="474" y="147" type="line"/>
      <point x="256" y="100"/>
      <point x="138" y="154"/>
      <point x="138" y="238" type="curve" smooth="yes"/>
      <point x="138" y="294"/>
      <point x="188" y="344"/>
      <point x="267" y="344" type="curve" smooth="yes"/>
      <point x="329" y="344"/>
      <point x="387" y="310"/>
      <point x="412" y="285" type="curve"/>
      <point x="475" y="356" type="line"/>
      <point x="420" y="420"/>
      <point x="348" y="434"/>
      <point x="280" y="434" type="curve" smooth="yes"/>
      <point x="173" y="434"/>
      <point x="78" y="373"/>
      <point x="78" y="262" type="curve" smooth="yes"/>
      <point x="78" y="171"/>
      <point x="145" y="71"/>
      <point x="284" y="71" type="curve"/>
    </contour>
  </outline>
</glyph>
<glyph name="uni0639" format="2">
	<advance width="579"/>
	<unicode hex="0639"/>
	<anchor x="294" y="-472" name="bottom"/>
	<anchor x="294" y="550" name="top"/>
	<outline>
		<contour>
			<point x="328" y="-422" type="curve" smooth="yes"/>
			<point x="387" y="-422"/>
			<point x="451" y="-411"/>
			<point x="559" y="-381" type="curve"/>
			<point x="515" y="-288" type="line"/>
			<point x="432" y="-324"/>
			<point x="355" y="-334"/>
			<point x="304" y="-334" type="curve" smooth="yes"/>
			<point x="214" y="-334"/>
			<point x="95" y="-309"/>
			<point x="95" y="-190" type="curve" smooth="yes"/>
			<point x="95" y="-46"/>
			<point x="256" y="56"/>
			<point x="488" y="56" type="curve"/>
			<point x="444" y="119" type="line"/>
			<point x="256" y="109" type="line"/>
			<point x="117" y="53"/>
			<point x="40" y="-50"/>
			<point x="40" y="-181" type="curve" smooth="yes"/>
			<point x="40" y="-333"/>
			<point x="162" y="-422"/>
		</contour>
		<contour>
			<point x="276" y="69" type="curve"/>
			<point x="488" y="56" type="line"/>
			<point x="459" y="157" type="line"/>
			<point x="416" y="157"/>
			<point x="358" y="127"/>
			<point x="262" y="127" type="curve" smooth="yes"/>
			<point x="192" y="127"/>
			<point x="136" y="176"/>
			<point x="136" y="234" type="curve" smooth="yes"/>
			<point x="136" y="290"/>
			<point x="184" y="340"/>
			<point x="259" y="340" type="curve" smooth="yes"/>
			<point x="319" y="340"/>
			<point x="375" y="306"/>
			<point x="399" y="281" type="curve"/>
			<point x="459" y="352" type="line"/>
			<point x="404" y="411"/>
			<point x="337" y="430"/>
			<point x="272" y="430" type="curve" smooth="yes"/>
			<point x="169" y="430"/>
			<point x="78" y="369"/>
			<point x="78" y="258" type="curve" smooth="yes"/>
			<point x="78" y="167"/>
			<point x="142" y="69"/>
		</contour>
	</outline>
</glyph>
<glyph name="uni0643" format="2">
	<advance width="850"/>
	<unicode hex="0643"/>
	<anchor x="472" y="-107" name="bottom"/>
	<anchor x="634" y="794" name="top"/>
	<outline>
		<contour>
			<point x="465" y="-7" type="curve" smooth="yes"/>
			<point x="700" y="-7"/>
			<point x="770" y="128"/>
			<point x="770" y="339" type="curve" smooth="yes"/>
			<point x="770" y="462"/>
			<point x="759" y="610"/>
			<point x="744" y="734" type="curve"/>
			<point x="634" y="717" type="line"/>
			<point x="666" y="557"/>
			<point x="698" y="376"/>
			<point x="694" y="237" type="curve" smooth="yes"/>
			<point x="691" y="123"/>
			<point x="620" y="50"/>
			<point x="491" y="50" type="curve" smooth="yes"/>
			<point x="378" y="50"/>
			<point x="215" y="95"/>
			<point x="145" y="280" type="curve"/>
			<point x="50" y="220" type="line"/>
			<point x="161" y="37"/>
			<point x="341" y="-7"/>
		</contour>
		<contour>
			<point x="444" y="204" type="line"/>
			<point x="522" y="204"/>
			<point x="560" y="277"/>
			<point x="560" y="313" type="curve" smooth="yes"/>
			<point x="560" y="398"/>
			<point x="418" y="329"/>
			<point x="418" y="366" type="curve" smooth="yes"/>
			<point x="418" y="389"/>
			<point x="460" y="411"/>
			<point x="516" y="397" type="curve"/>
			<point x="523" y="449" type="line"/>
			<point x="431" y="459"/>
			<point x="380" y="403"/>
			<point x="380" y="354" type="curve" smooth="yes"/>
			<point x="380" y="274"/>
			<point x="483" y="298"/>
			<point x="525" y="305" type="curve"/>
			<point x="522" y="278"/>
			<point x="454" y="251"/>
			<point x="404" y="253" type="curve"/>
			<point x="403" y="247" type="line"/>
		</contour>
	</outline>
</glyph>
<glyph name="meem-ar" format="2">
  <advance width="650"/>
  <unicode hex="0645"/>
  <anchor x="463" y="-120" name="bottom"/>
  <anchor x="361" y="550" name="top"/>
  <outline>
    <contour>
      <point x="102" y="-382" type="curve"/>
      <point x="206" y="-347" type="line"/>
      <point x="164" y="-226"/>
      <point x="147" y="-148"/>
      <point x="147" y="-93" type="curve" smooth="yes"/>
      <point x="147" y="-42"/>
      <point x="162" y="11"/>
      <point x="249" y="11" type="curve" smooth="yes"/>
      <point x="333" y="11"/>
      <point x="380" y="-9"/>
      <point x="452" y="-9" type="curve" smooth="yes"/>
      <point x="519" y="-9"/>
      <point x="590" y="15"/>
      <point x="590" y="131" type="curve" smooth="yes"/>
      <point x="590" y="268"/>
      <point x="500" y="400"/>
      <point x="358" y="400" type="curve" smooth="yes"/>
      <point x="198" y="400"/>
      <point x="146" y="157"/>
      <point x="146" y="45" type="curve"/>
      <point x="216" y="63" type="line"/>
      <point x="216" y="147"/>
      <point x="262" y="320"/>
      <point x="358" y="320" type="curve" smooth="yes"/>
      <point x="429" y="320"/>
      <point x="486" y="237"/>
      <point x="486" y="139" type="curve" smooth="yes"/>
      <point x="486" y="31"/>
      <point x="332" y="72"/>
      <point x="194" y="72" type="curve" smooth="yes"/>
      <point x="117" y="72"/>
      <point x="65" y="-10"/>
      <point x="65" y="-112" type="curve" smooth="yes"/>
      <point x="65" y="-192"/>
      <point x="76" y="-259"/>
    </contour>
  </outline>
</glyph>
<glyph name="heh-ar" format="2">
  <advance width="480"/>
  <unicode hex="0647"/>
  <anchor x="248" y="-75" name="bottom"/>
  <anchor x="235" y="600" name="top"/>
  <outline>
    <contour>
      <point x="208" y="-10" type="curve" smooth="yes"/>
      <point x="285" y="-10"/>
      <point x="430" y="33"/>
      <point x="430" y="132" type="curve" smooth="yes"/>
      <point x="430" y="248"/>
      <point x="312" y="387"/>
      <point x="223" y="457" type="curve"/>
      <point x="143" y="381" type="line"/>
      <point x="244" y="314"/>
      <point x="364" y="230"/>
      <point x="364" y="174" type="curve" smooth="yes"/>
      <point x="364" y="124"/>
      <point x="250" y="95"/>
      <point x="203" y="95" type="curve" smooth="yes"/>
      <point x="149" y="95"/>
      <point x="124" y="117"/>
      <point x="124" y="154" type="curve" smooth="yes"/>
      <point x="124" y="219"/>
      <point x="193" y="304"/>
      <point x="263" y="398" type="curve"/>
      <point x="232" y="430" type="line"/>
      <point x="140" y="313"/>
      <point x="50" y="209"/>
      <point x="50" y="117" type="curve" smooth="yes"/>
      <point x="50" y="51"/>
      <point x="89" y="-10"/>
    </contour>
  </outline>
</glyph>
<glyph name="waw-ar" format="2">
  <advance width="520"/>
  <unicode hex="0648"/>
  <anchor x="244" y="-390" name="bottom"/>
  <anchor x="272" y="550" name="top"/>
  <outline>
    <contour>
      <point x="174" y="-360" type="line"/>
      <point x="311" y="-259"/>
      <point x="460" y="-102"/>
      <point x="460" y="119" type="curve" smooth="yes"/>
      <point x="460" y="296"/>
      <point x="370" y="399"/>
      <point x="260" y="399" type="curve" smooth="yes"/>
      <point x="141" y="399"/>
      <point x="60" y="314"/>
      <point x="60" y="205" type="curve" smooth="yes"/>
      <point x="60" y="84"/>
      <point x="174" y="-7"/>
      <point x="392" y="-7" type="curve"/>
      <point x="405" y="50" type="line"/>
      <point x="220" y="50"/>
      <point x="140" y="121"/>
      <point x="140" y="199" type="curve" smooth="yes"/>
      <point x="140" y="260"/>
      <point x="188" y="296"/>
      <point x="240" y="296" type="curve" smooth="yes"/>
      <point x="319" y="296"/>
      <point x="405" y="231"/>
      <point x="405" y="103" type="curve" smooth="yes"/>
      <point x="405" y="-42"/>
      <point x="265" y="-177"/>
      <point x="95" y="-277" type="curve"/>
    </contour>
  </outline>
</glyph>
<glyph name="alefMaksura-ar" format="2">
  <advance width="810"/>
  <unicode hex="0649"/>
  <anchor x="376" y="-350" name="bottom"/>
  <anchor x="282" y="255" name="top"/>
  <outline>
    <contour>
      <point x="408" y="-310" type="curve" smooth="yes"/>
      <point x="600" y="-310"/>
      <point x="696" y="-176"/>
      <point x="696" y="-55" type="curve" smooth="yes"/>
      <point x="696" y="104"/>
      <point x="462" y="112"/>
      <point x="371" y="94" type="curve"/>
      <point x="349" y="-21" type="line"/>
      <point x="562" y="22"/>
      <point x="636" y="-35"/>
      <point x="636" y="-86" type="curve" smooth="yes"/>
      <point x="636" y="-161"/>
      <point x="548" y="-230"/>
      <point x="420" y="-230" type="curve" smooth="yes"/>
      <point x="301" y="-230"/>
      <point x="162" y="-151"/>
      <point x="141" y="110" type="curve"/>
      <point x="40" y="72" type="line"/>
      <point x="62" y="-177"/>
      <point x="225" y="-310"/>
    </contour>
    <contour>
      <point x="349" y="-21" type="curve"/>
      <point x="408" y="33" type="line"/>
      <point x="408" y="212"/>
      <point x="532" y="301"/>
      <point x="587" y="301" type="curve" smooth="yes"/>
      <point x="622" y="301"/>
      <point x="645" y="280"/>
      <point x="645" y="174" type="curve"/>
      <point x="750" y="182" type="line"/>
      <point x="750" y="282"/>
      <point x="725" y="391"/>
      <point x="617" y="391" type="curve" smooth="yes"/>
      <point x="460" y="391"/>
      <point x="349" y="202"/>
    </contour>
  </outline>
</glyph>
<glyph name="fathatan-ar" format="2">
  <unicode hex="064B"/>
  <anchor x="50" y="577" name="_top"/>
  <anchor x="50" y="753" name="top"/>
  <outline>
    <contour>
      <point x="-71" y="612" type="line"/>
      <point x="35" y="640"/>
      <point x="80" y="652"/>
      <point x="171" y="676" type="curve"/>
      <point x="171" y="710" type="line"/>
      <point x="84" y="694"/>
      <point x="25" y="683"/>
      <point x="-71" y="666" type="curve"/>
    </contour>
    <contour>
      <point x="-71" y="702" type="line"/>
      <point x="16" y="718"/>
      <point x="75" y="729"/>
      <point x="171" y="746" type="curve"/>
      <point x="171" y="800" type="line"/>
      <point x="65" y="772"/>
      <point x="20" y="760"/>
      <point x="-71" y="736" type="curve"/>
    </contour>
  </outline>
</glyph>
<glyph name="dammatan-ar" format="2">
  <unicode hex="064C"/>
  <anchor x="50" y="585" name="_top"/>
  <anchor x="50" y="771" name="top"/>
  <outline>
    <contour>
      <point x="-16" y="611" type="line"/>
      <point x="-16" y="631"/>
      <point x="-15" y="645"/>
      <point x="-11" y="666" type="curve"/>
      <point x="8" y="639"/>
      <point x="38" y="622"/>
      <point x="76" y="622" type="curve" smooth="yes"/>
      <point x="149" y="622"/>
      <point x="171" y="666"/>
      <point x="171" y="703" type="curve" smooth="yes"/>
      <point x="171" y="744"/>
      <point x="148" y="777"/>
      <point x="105" y="777" type="curve" smooth="yes"/>
      <point x="61" y="777"/>
      <point x="35" y="746"/>
      <point x="35" y="703" type="curve" smooth="yes"/>
      <point x="35" y="671"/>
      <point x="54" y="645"/>
      <point x="77" y="627" type="curve"/>
      <point x="109" y="633" type="line"/>
      <point x="90" y="647"/>
      <point x="69" y="666"/>
      <point x="69" y="691" type="curve" smooth="yes"/>
      <point x="69" y="708"/>
      <point x="79" y="721"/>
      <point x="96" y="721" type="curve" smooth="yes"/>
      <point x="111" y="721"/>
      <point x="123" y="710"/>
      <point x="123" y="692" type="curve" smooth="yes"/>
      <point x="123" y="670"/>
      <point x="103" y="653"/>
      <point x="73" y="653" type="curve" smooth="yes"/>
      <point x="33" y="653"/>
      <point x="5" y="683"/>
      <point x="-5" y="724" type="curve"/>
      <point x="-25" y="728" type="line"/>
      <point x="-54" y="698"/>
      <point x="-66" y="660"/>
      <point x="-70" y="611" type="curve"/>
    </contour>
  </outline>
</glyph>
<glyph name="kasratan-ar" format="2">
  <unicode hex="064D"/>
  <anchor x="50" y="0" name="_bottom"/>
  <anchor x="50" y="-184" name="bottom"/>
  <outline>
    <contour>
      <point x="-71" y="-184" type="line"/>
      <point x="35" y="-156"/>
      <point x="80" y="-144"/>
      <point x="171" y="-120" type="curve"/>
      <point x="171" y="-86" type="line"/>
      <point x="84" y="-102"/>
      <point x="25" y="-113"/>
      <point x="-71" y="-130" type="curve"/>
    </contour>
    <contour>
      <point x="-71" y="-94" type="line"/>
      <point x="16" y="-78"/>
      <point x="75" y="-67"/>
      <point x="171" y="-50" type="curve"/>
      <point x="171" y="4" type="line"/>
      <point x="65" y="-24"/>
      <point x="20" y="-36"/>
      <point x="-71" y="-60" type="curve"/>
    </contour>
  </outline>
</glyph>
<glyph name="fatha-ar" format="2">
  <unicode hex="064E"/>
  <anchor x="50" y="602" name="_top"/>
  <anchor x="50" y="692" name="top"/>
  <outline>
    <contour>
      <point x="-71" y="622" type="line"/>
      <point x="35" y="650"/>
      <point x="80" y="662"/>
      <point x="171" y="686" type="curve"/>
      <point x="171" y="720" type="line"/>
      <point x="84" y="704"/>
      <point x="25" y="693"/>
      <point x="-71" y="676" type="curve"/>
    </contour>
  </outline>
</glyph>
<glyph name="kasra-ar" format="2">
  <unicode hex="0650"/>
  <anchor x="50" y="-60" name="_bottom"/>
  <anchor x="50" y="-173" name="bottom"/>
  <outline>
    <contour>
      <point x="-71" y="-175" type="line"/>
      <point x="35" y="-147"/>
      <point x="80" y="-135"/>
      <point x="171" y="-111" type="curve"/>
      <point x="171" y="-77" type="line"/>
      <point x="84" y="-93"/>
      <point x="25" y="-104"/>
      <point x="-71" y="-121" type="curve"/>
    </contour>
  </outline>
</glyph>
<glyph name="sukun-ar" format="2">
  <unicode hex="0652"/>
  <anchor x="50" y="562" name="_top"/>
  <anchor x="50" y="751" name="top"/>
  <outline>
    <contour>
      <point x="27" y="593" type="curve" smooth="yes"/>
      <point x="90" y="593"/>
      <point x="146" y="629"/>
      <point x="146" y="687" type="curve" smooth="yes"/>
      <point x="146" y="730"/>
      <point x="111" y="759"/>
      <point x="58" y="759" type="curve" smooth="yes"/>
      <point x="9" y="759"/>
      <point x="-54" y="722"/>
      <point x="-54" y="659" type="curve" smooth="yes"/>
      <point x="-54" y="624"/>
      <point x="-26" y="593"/>
    </contour>
    <contour>
      <point x="27" y="629" type="curve" smooth="yes"/>
      <point x="-3" y="629"/>
      <point x="-20" y="641"/>
      <point x="-20" y="663" type="curve" smooth="yes"/>
      <point x="-20" y="685"/>
      <point x="10" y="712"/>
      <point x="45" y="712" type="curve" smooth="yes"/>
      <point x="74" y="712"/>
      <point x="89" y="696"/>
      <point x="89" y="675" type="curve" smooth="yes"/>
      <point x="89" y="655"/>
      <point x="66" y="629"/>
    </contour>
  </outline>
</glyph>
<glyph name="madda-ar" format="2">
  <unicode hex="0653"/>
  <anchor x="101" y="620" name="_top"/>
  <anchor x="99" y="754" name="top"/>
  <outline>
    <contour>
      <point x="-61" y="649" type="line"/>
      <point x="-32" y="681"/>
      <point x="1" y="718"/>
      <point x="31" y="718" type="curve" smooth="yes"/>
      <point x="67" y="718"/>
      <point x="85" y="649"/>
      <point x="172" y="649" type="curve" smooth="yes"/>
      <point x="213" y="649"/>
      <point x="246" y="664"/>
      <point x="279" y="677" type="curve"/>
      <point x="263" y="757" type="line"/>
      <point x="227" y="732"/>
      <point x="188" y="709"/>
      <point x="148" y="709" type="curve" smooth="yes"/>
      <point x="91" y="709"/>
      <point x="57" y="762"/>
      <point x="3" y="762" type="curve" smooth="yes"/>
      <point x="-22" y="762"/>
      <point x="-50" y="751"/>
      <point x="-77" y="731" type="curve"/>
    </contour>
  </outline>
</glyph>
<glyph name="hamzabelow-ar" format="2">
  <unicode hex="0655"/>
  <anchor x="51" y="10" name="_bottom"/>
  <anchor x="52" y="-204" name="bottom"/>
  <outline>
    <contour>
      <point x="60" y="-146" type="line"/>
      <point x="153" y="-144" type="line"/>
      <point x="153" y="-93" type="line"/>
      <point x="119" y="-108"/>
      <point x="107" y="-113"/>
      <point x="72" y="-120" type="curve" smooth="yes"/>
      <point x="20" y="-130"/>
      <point x="-9" y="-111"/>
      <point x="-9" y="-86" type="curve" smooth="yes"/>
      <point x="-9" y="-66"/>
      <point x="12" y="-55"/>
      <point x="34" y="-55" type="curve" smooth="yes"/>
      <point x="56" y="-55"/>
      <point x="73" y="-63"/>
      <point x="88" y="-76" type="curve"/>
      <point x="132" y="-34" type="line"/>
      <point x="106" y="-8"/>
      <point x="72" y="-2"/>
      <point x="41" y="-2" type="curve" smooth="yes"/>
      <point x="-9" y="-2"/>
      <point x="-54" y="-27"/>
      <point x="-54" y="-71" type="curve" smooth="yes"/>
      <point x="-54" y="-108"/>
      <point x="-22" y="-140"/>
      <point x="42" y="-140" type="curve"/>
    </contour>
    <contour>
      <point x="-62" y="-219" type="line"/>
      <point x="32" y="-181"/>
      <point x="72" y="-168"/>
      <point x="153" y="-144" type="curve"/>
      <point x="153" y="-107" type="line"/>
      <point x="76" y="-120"/>
      <point x="23" y="-130"/>
      <point x="-62" y="-148" type="curve"/>
    </contour>
  </outline>
</glyph>
<glyph name="alefbelow-ar" format="2">
  <unicode hex="0656"/>
  <anchor x="49" y="20" name="_bottom"/>
  <anchor x="50" y="-194" name="bottom"/>
  <outline>
    <contour>
      <point x="33" y="-190" type="curve"/>
      <point x="68" y="-184" type="line"/>
      <point x="75" y="-129"/>
      <point x="83" y="-49"/>
      <point x="79" y="12" type="curve"/>
      <point x="25" y="3" type="line"/>
      <point x="33" y="-59"/>
      <point x="35" y="-129"/>
    </contour>
  </outline>
</glyph>
<glyph name="noonghunnaabove-ar" format="2">
  <unicode hex="0658"/>
  <anchor x="51" y="617" name="_top"/>
  <anchor x="51" y="797" name="top"/>
  <outline>
    <contour>
      <point x="36" y="641" type="curve" smooth="yes"/>
      <point x="131" y="641"/>
      <point x="154" y="756"/>
      <point x="131" y="824" type="curve"/>
      <point x="57" y="812" type="line"/>
      <point x="80" y="757"/>
      <point x="92" y="669"/>
      <point x="46" y="669" type="curve" smooth="yes"/>
      <point x="29" y="669"/>
      <point x="16" y="681"/>
      <point x="16" y="698" type="curve" smooth="yes"/>
      <point x="16" y="713"/>
      <point x="24" y="730"/>
      <point x="38" y="741" type="curve"/>
      <point x="8" y="789" type="line"/>
      <point x="-24" y="771"/>
      <point x="-38" y="741"/>
      <point x="-38" y="710" type="curve" smooth="yes"/>
      <point x="-38" y="665"/>
      <point x="-3" y="641"/>
    </contour>
  </outline>
</glyph>
<glyph name="one-ar" format="2">
  <advance width="308"/>
  <unicode hex="0661"/>
  <outline>
    <contour>
      <point x="164" y="0" type="curve"/>
      <point x="224" y="11" type="line"/>
      <point x="235" y="209"/>
      <point x="220" y="524"/>
      <point x="195" y="693" type="curve"/>
      <point x="80" y="665" type="line"/>
      <point x="134" y="441"/>
      <point x="162" y="209"/>
    </contour>
  </outline>
</glyph>
<glyph name="uni0662" format="2">
	<advance width="570"/>
	<unicode hex="0662"/>
	<outline>
		<contour>
			<point x="103" y="-9" type="curve"/>
			<point x="218" y="11" type="line"/>
			<point x="173" y="221"/>
			<point x="157" y="350"/>
			<point x="157" y="451" type="curve" smooth="yes"/>
			<point x="157" y="566"/>
			<point x="200" y="597"/>
			<point x="272" y="597" type="curve" smooth="yes"/>
			<point x="323" y="597"/>
			<point x="388" y="584"/>
			<point x="484" y="538" type="curve"/>
			<point x="530" y="646" type="line"/>
			<point x="457" y="662"/>
			<point x="394" y="671"/>
			<point x="309" y="671" type="curve" smooth="yes"/>
			<point x="166" y="671"/>
			<point x="94" y="586"/>
			<point x="83" y="442" type="curve" smooth="yes"/>
			<point x="72" y="302"/>
			<point x="88" y="168"/>
		</contour>
	</outline>
</glyph>
<glyph name="three-ar" format="2">
  <advance width="700"/>
  <unicode hex="0663"/>
  <outline>
    <contour>
      <point x="260" y="9" type="line"/>
      <point x="266" y="228"/>
      <point x="217" y="487"/>
      <point x="144" y="676" type="curve"/>
      <point x="80" y="652" type="line"/>
      <point x="145" y="422"/>
      <point x="167" y="250"/>
      <point x="145" y="-7" type="curve"/>
    </contour>
    <contour>
      <point x="316" y="356" type="curve" smooth="yes"/>
      <point x="455" y="356"/>
      <point x="420" y="565"/>
      <point x="428" y="634" type="curve"/>
      <point x="320" y="630" type="line"/>
      <point x="333" y="593"/>
      <point x="345" y="511"/>
      <point x="345" y="474" type="curve" smooth="yes"/>
      <point x="345" y="445"/>
      <point x="335" y="416"/>
      <point x="300" y="416" type="curve" smooth="yes"/>
      <point x="220" y="416"/>
      <point x="189" y="570"/>
      <point x="144" y="676" type="curve"/>
      <point x="138" y="582" type="line"/>
      <point x="149" y="539"/>
      <point x="177" y="356"/>
    </contour>
    <contour>
      <point x="512" y="348" type="curve" smooth="yes"/>
      <point x="580" y="348"/>
      <point x="650" y="401"/>
      <point x="650" y="553" type="curve" smooth="yes"/>
      <point x="650" y="614"/>
      <point x="644" y="650"/>
      <point x="635" y="699" type="curve"/>
      <point x="528" y="676" type="line"/>
      <point x="552" y="618"/>
      <point x="570" y="542"/>
      <point x="570" y="482" type="curve" smooth="yes"/>
      <point x="570" y="451"/>
      <point x="564" y="403"/>
      <point x="512" y="403" type="curve" smooth="yes"/>
      <point x="428" y="403"/>
      <point x="431" y="572"/>
      <point x="428" y="634" type="curve"/>
      <point x="402" y="481" type="line"/>
      <point x="402" y="416"/>
      <point x="439" y="348"/>
    </contour>
  </outline>
</glyph>
<glyph name="four-ar" format="2">
  <advance width="590"/>
  <unicode hex="0664"/>
  <outline>
    <contour>
      <point x="285" y="-10" type="curve" smooth="yes"/>
      <point x="365" y="-10"/>
      <point x="432" y="-1"/>
      <point x="530" y="28" type="curve"/>
      <point x="490" y="135" type="line"/>
      <point x="419" y="102"/>
      <point x="345" y="82"/>
      <point x="278" y="82" type="curve" smooth="yes"/>
      <point x="204" y="82"/>
      <point x="133" y="113"/>
      <point x="133" y="200" type="curve" smooth="yes"/>
      <point x="133" y="293"/>
      <point x="238" y="325"/>
      <point x="297" y="330" type="curve" smooth="yes"/>
      <point x="373" y="337"/>
      <point x="397" y="331"/>
      <point x="455" y="331" type="curve"/>
      <point x="373" y="405" type="line"/>
      <point x="297" y="405"/>
      <point x="60" y="359"/>
      <point x="60" y="177" type="curve" smooth="yes"/>
      <point x="60" y="44"/>
      <point x="170" y="-10"/>
    </contour>
    <contour>
      <point x="455" y="331" type="line"/>
      <point x="425" y="448" type="line"/>
      <point x="384" y="436"/>
      <point x="332" y="425"/>
      <point x="279" y="425" type="curve" smooth="yes"/>
      <point x="206" y="425"/>
      <point x="155" y="467"/>
      <point x="155" y="521" type="curve" smooth="yes"/>
      <point x="155" y="564"/>
      <point x="187" y="617"/>
      <point x="296" y="617" type="curve" smooth="yes"/>
      <point x="347" y="617"/>
      <point x="402" y="600"/>
      <point x="446" y="579" type="curve"/>
      <point x="506" y="663" type="line"/>
      <point x="437" y="696"/>
      <point x="384" y="710"/>
      <point x="311" y="710" type="curve" smooth="yes"/>
      <point x="181" y="710"/>
      <point x="80" y="652"/>
      <point x="80" y="533" type="curve" smooth="yes"/>
      <point x="80" y="425"/>
      <point x="176" y="364"/>
      <point x="282" y="364" type="curve"/>
    </contour>
  </outline>
</glyph>
<glyph name="uni0665" format="2">
	<advance width="640"/>
	<unicode hex="0665"/>
	<outline>
		<contour>
			<point x="281" y="-10" type="curve" smooth="yes"/>
			<point x="489" y="-10"/>
			<point x="580" y="121"/>
			<point x="580" y="283" type="curve" smooth="yes"/>
			<point x="580" y="453"/>
			<point x="489" y="593"/>
			<point x="319" y="710" type="curve"/>
			<point x="268" y="593" type="line"/>
			<point x="453" y="497"/>
			<point x="520" y="320"/>
			<point x="520" y="243" type="curve" smooth="yes"/>
			<point x="520" y="155"/>
			<point x="392" y="100"/>
			<point x="295" y="100" type="curve" smooth="yes"/>
			<point x="190" y="100"/>
			<point x="141" y="145"/>
			<point x="141" y="229" type="curve" smooth="yes"/>
			<point x="141" y="367"/>
			<point x="216" y="497"/>
			<point x="345" y="650" type="curve"/>
			<point x="319" y="710" type="line"/>
			<point x="164" y="530"/>
			<point x="60" y="334"/>
			<point x="60" y="190" type="curve" smooth="yes"/>
			<point x="60" y="50"/>
			<point x="146" y="-10"/>
		</contour>
	</outline>
</glyph>
<glyph name="uni0666" format="2">
	<advance width="580"/>
	<unicode hex="0666"/>
	<outline>
		<contour>
			<point x="400" y="0" type="curve"/>
			<point x="520" y="17" type="line"/>
			<point x="474" y="200"/>
			<point x="459" y="343"/>
			<point x="457" y="472" type="curve" smooth="yes"/>
			<point x="455" y="627"/>
			<point x="394" y="701"/>
			<point x="251" y="701" type="curve" smooth="yes"/>
			<point x="166" y="701"/>
			<point x="113" y="692"/>
			<point x="40" y="676" type="curve"/>
			<point x="86" y="568" type="line"/>
			<point x="182" y="614"/>
			<point x="237" y="627"/>
			<point x="288" y="627" type="curve" smooth="yes"/>
			<point x="360" y="627"/>
			<point x="383" y="601"/>
			<point x="383" y="486" type="curve" smooth="yes"/>
			<point x="383" y="312"/>
			<point x="386" y="202"/>
		</contour>
	</outline>
</glyph>
<glyph name="seven-ar" format="2">
  <advance width="680"/>
  <unicode hex="0667"/>
  <outline>
    <contour>
      <point x="306" y="-12" type="line"/>
      <point x="391" y="3" type="line"/>
      <point x="444" y="191"/>
      <point x="537" y="439"/>
      <point x="640" y="649" type="curve"/>
      <point x="549" y="668" type="line"/>
      <point x="477" y="470"/>
      <point x="398" y="255"/>
      <point x="347" y="48" type="curve"/>
    </contour>
    <contour>
      <point x="306" y="-12" type="curve"/>
      <point x="374" y="36" type="line"/>
      <point x="309" y="304"/>
      <point x="244" y="460"/>
      <point x="155" y="679" type="curve"/>
      <point x="40" y="643" type="line"/>
      <point x="162" y="427"/>
      <point x="246" y="176"/>
    </contour>
  </outline>
</glyph>
<glyph name="uni0668" format="2">
	<advance width="680"/>
	<unicode hex="0668"/>
	<outline>
		<contour>
			<point x="333" y="609" type="curve"/>
			<point x="374" y="669" type="line"/>
			<point x="289" y="654" type="line"/>
			<point x="236" y="466"/>
			<point x="143" y="218"/>
			<point x="40" y="8" type="curve"/>
			<point x="131" y="-11" type="line"/>
			<point x="203" y="187"/>
			<point x="282" y="402"/>
		</contour>
		<contour>
			<point x="374" y="669" type="curve"/>
			<point x="306" y="621" type="line"/>
			<point x="371" y="353"/>
			<point x="436" y="197"/>
			<point x="525" y="-22" type="curve"/>
			<point x="640" y="14" type="line"/>
			<point x="518" y="230"/>
			<point x="434" y="481"/>
		</contour>
	</outline>
</glyph>
<glyph name="nine-ar" format="2">
  <advance width="746"/>
  <unicode hex="0669"/>
  <outline>
    <contour>
      <point x="234" y="200" type="curve" smooth="yes"/>
      <point x="393" y="200"/>
      <point x="472" y="368"/>
      <point x="472" y="461" type="curve"/>
      <point x="430" y="472" type="line"/>
      <point x="424" y="411"/>
      <point x="360" y="295"/>
      <point x="255" y="295" type="curve" smooth="yes"/>
      <point x="192" y="295"/>
      <point x="155" y="343"/>
      <point x="155" y="400" type="curve" smooth="yes"/>
      <point x="155" y="542"/>
      <point x="338" y="660"/>
      <point x="539" y="602" type="curve"/>
      <point x="550" y="655" type="line"/>
      <point x="312" y="728"/>
      <point x="66" y="593"/>
      <point x="66" y="377" type="curve" smooth="yes"/>
      <point x="66" y="267"/>
      <point x="144" y="200"/>
    </contour>
    <contour>
      <point x="452" y="-9" type="curve"/>
      <point x="567" y="11" type="line"/>
      <point x="515" y="252"/>
      <point x="487" y="437"/>
      <point x="513" y="642" type="curve"/>
      <point x="452" y="635" type="line"/>
      <point x="441" y="592"/>
      <point x="434" y="535"/>
      <point x="430" y="472" type="curve" smooth="yes"/>
      <point x="421" y="314"/>
      <point x="433" y="115"/>
    </contour>
  </outline>
</glyph>
<glyph name="percent-ar" format="2">
  <advance width="713"/>
  <unicode hex="066A"/>
  <outline>
    <contour>
      <point x="204" y="-68" type="line"/>
      <point x="623" y="761" type="line"/>
      <point x="515" y="789" type="line"/>
      <point x="115" y="-39" type="line"/>
    </contour>
    <component base="zero-ar" xOffset="306" yOffset="-150"/>
    <component base="zero-ar" yOffset="260"/>
  </outline>
</glyph>
<glyph name="decimalseparator-ar" format="2">
  <advance width="299"/>
  <unicode hex="066B"/>
  <outline>
    <contour>
      <point x="133" y="125" type="curve" smooth="yes"/>
      <point x="99" y="125"/>
      <point x="60" y="100"/>
      <point x="60" y="46" type="curve" smooth="yes"/>
      <point x="60" y="-10"/>
      <point x="117" y="-43"/>
      <point x="168" y="-7" type="curve"/>
      <point x="155" y="-52"/>
      <point x="124" y="-84"/>
      <point x="78" y="-118" type="curve"/>
      <point x="143" y="-181" type="line"/>
      <point x="199" y="-133"/>
      <point x="230" y="-49"/>
      <point x="230" y="8" type="curve" smooth="yes"/>
      <point x="230" y="73"/>
      <point x="199" y="125"/>
    </contour>
  </outline>
</glyph>
<glyph name="thousandseparator-ar" format="2">
  <advance width="263"/>
  <unicode hex="066C"/>
  <outline>
    <contour>
      <point x="129" y="-178" type="line"/>
      <point x="187" y="-86"/>
      <point x="231" y="-9"/>
      <point x="182" y="138" type="curve"/>
      <point x="61" y="120" type="line"/>
      <point x="109" y="21"/>
      <point x="111" y="-69"/>
      <point x="60" y="-156" type="curve"/>
    </contour>
  </outline>
</glyph>
<glyph name="behDotless-ar" format="2">
  <advance width="840"/>
  <unicode hex="066E"/>
  <anchor x="476" y="-75" name="bottom"/>
  <anchor x="447" y="500" name="top"/>
  <outline>
    <contour>
      <point x="487" y="-7" type="curve" smooth="yes"/>
      <point x="684" y="-7"/>
      <point x="780" y="96"/>
      <point x="780" y="239" type="curve" smooth="yes"/>
      <point x="780" y="296"/>
      <point x="771" y="347"/>
      <point x="753" y="400" type="curve"/>
      <point x="651" y="366" type="line"/>
      <point x="672" y="316"/>
      <point x="685" y="258"/>
      <point x="685" y="215" type="curve" smooth="yes"/>
      <point x="685" y="117"/>
      <point x="614" y="50"/>
      <point x="490" y="50" type="curve" smooth="yes"/>
      <point x="380" y="50"/>
      <point x="210" y="95"/>
      <point x="135" y="280" type="curve"/>
      <point x="40" y="220" type="line"/>
      <point x="156" y="37"/>
      <point x="343" y="-7"/>
    </contour>
  </outline>
</glyph>
<glyph name="alefabove-ar" format="2">
  <unicode hex="0670"/>
  <anchor x="51" y="650" name="_top"/>
  <anchor x="51" y="862" name="top"/>
  <outline>
    <contour>
      <point x="33" y="654" type="curve"/>
      <point x="68" y="660" type="line"/>
      <point x="75" y="715"/>
      <point x="83" y="795"/>
      <point x="79" y="856" type="curve"/>
      <point x="25" y="847" type="line"/>
      <point x="33" y="785"/>
      <point x="35" y="715"/>
    </contour>
  </outline>
</glyph>
<glyph name="tcheh-ar" format="2">
  <advance width="640"/>
  <unicode hex="0686"/>
  <anchor x="345" y="-95" name="_center"/>
  <anchor x="272" y="-470" name="bottom"/>
  <anchor x="267" y="490" name="top"/>
  <outline>
    <contour>
      <point x="356" y="-205" type="curve"/>
      <point x="406" y="-153" type="line"/>
      <point x="383" y="-138"/>
      <point x="365" y="-122"/>
      <point x="347" y="-102" type="curve"/>
      <point x="298" y="-155" type="line"/>
      <point x="312" y="-174"/>
      <point x="334" y="-191"/>
    </contour>
    <contour>
      <point x="297" y="-110" type="curve"/>
      <point x="352" y="-53" type="line"/>
      <point x="327" y="-36"/>
      <point x="308" y="-18"/>
      <point x="288" y="4" type="curve"/>
      <point x="233" y="-55" type="line"/>
      <point x="249" y="-76"/>
      <point x="273" y="-95"/>
    </contour>
    <contour>
      <point x="402" y="-110" type="curve"/>
      <point x="457" y="-53" type="line"/>
      <point x="432" y="-36"/>
      <point x="413" y="-18"/>
      <point x="393" y="4" type="curve"/>
      <point x="338" y="-55" type="line"/>
      <point x="354" y="-76"/>
      <point x="378" y="-95"/>
    </contour>
    <component base="hah-ar"/>
  </outline>
</glyph>
<glyph name="fehDotless-ar" format="2">
  <advance width="940"/>
  <unicode hex="06A1"/>
  <anchor x="664" y="-75" name="bottom"/>
  <anchor x="708" y="550" name="top"/>
  <outline>
    <contour>
      <point x="486" y="-7" type="curve" smooth="yes"/>
      <point x="649" y="-7"/>
      <point x="880" y="90"/>
      <point x="880" y="245" type="curve" smooth="yes"/>
      <point x="880" y="358"/>
      <point x="786" y="422"/>
      <point x="681" y="422" type="curve" smooth="yes"/>
      <point x="523" y="422"/>
      <point x="459" y="327"/>
      <point x="459" y="241" type="curve" smooth="yes"/>
      <point x="459" y="146"/>
      <point x="533" y="81"/>
      <point x="635" y="40" type="curve"/>
      <point x="678" y="81" type="line"/>
      <point x="586" y="115"/>
      <point x="529" y="171"/>
      <point x="529" y="241" type="curve" smooth="yes"/>
      <point x="529" y="295"/>
      <point x="579" y="338"/>
      <point x="654" y="338" type="curve" smooth="yes"/>
      <point x="724" y="338"/>
      <point x="775" y="305"/>
      <point x="775" y="245" type="curve" smooth="yes"/>
      <point x="775" y="143"/>
      <point x="626" y="50"/>
      <point x="489" y="50" type="curve" smooth="yes"/>
      <point x="353" y="50"/>
      <point x="200" y="95"/>
      <point x="128" y="280" type="curve"/>
      <point x="30" y="220" type="line"/>
      <point x="145" y="37"/>
      <point x="314" y="-7"/>
    </contour>
  </outline>
</glyph>
<glyph name="keheh-ar" format="2">
  <advance width="812"/>
  <unicode hex="06A9"/>
  <anchor x="518" y="-60" name="bottom"/>
  <anchor x="493" y="750" name="top"/>
  <outline>
    <contour>
      <point x="450" y="-7" type="curve" smooth="yes"/>
      <point x="552" y="-7"/>
      <point x="752" y="37"/>
      <point x="752" y="218" type="curve" smooth="yes"/>
      <point x="752" y="346"/>
      <point x="616" y="419"/>
      <point x="450" y="350" type="curve"/>
      <point x="391" y="336" type="line"/>
      <point x="428" y="271" type="line"/>
      <point x="552" y="350"/>
      <point x="647" y="297"/>
      <point x="647" y="208" type="curve" smooth="yes"/>
      <point x="647" y="89"/>
      <point x="537" y="50"/>
      <point x="453" y="50" type="curve" smooth="yes"/>
      <point x="368" y="50"/>
      <point x="205" y="95"/>
      <point x="135" y="280" type="curve"/>
      <point x="40" y="220" type="line"/>
      <point x="151" y="37"/>
      <point x="331" y="-7"/>
    </contour>
    <contour>
      <point x="421" y="292" type="line"/>
      <point x="579" y="440"/>
      <point x="638" y="496"/>
      <point x="743" y="654" type="curve"/>
      <point x="650" y="711" type="line"/>
      <point x="585" y="575"/>
      <point x="490" y="440"/>
      <point x="391" y="336" type="curve"/>
    </contour>
  </outline>
</glyph>
<glyph name="uni06A9" format="2">
	<advance width="812"/>
	<unicode hex="06A9"/>
	<anchor x="529" y="-100" name="bottom"/>
	<anchor x="533" y="780" name="top"/>
	<outline>
		<contour>
			<point x="450" y="-7" type="curve" smooth="yes"/>
			<point x="552" y="-7"/>
			<point x="752" y="37"/>
			<point x="752" y="218" type="curve" smooth="yes"/>
			<point x="752" y="346"/>
			<point x="616" y="419"/>
			<point x="450" y="350" type="curve"/>
			<point x="391" y="336" type="line"/>
			<point x="428" y="271" type="line"/>
			<point x="552" y="350"/>
			<point x="647" y="297"/>
			<point x="647" y="208" type="curve" smooth="yes"/>
			<point x="647" y="89"/>
			<point x="537" y="50"/>
			<point x="453" y="50" type="curve" smooth="yes"/>
			<point x="368" y="50"/>
			<point x="205" y="95"/>
			<point x="135" y="280" type="curve"/>
			<point x="40" y="220" type="line"/>
			<point x="151" y="37"/>
			<point x="331" y="-7"/>
		</contour>
		<contour>
			<point x="390" y="336" type="curve"/>
			<point x="420" y="292" type="line"/>
			<point x="578" y="440"/>
			<point x="667" y="546"/>
			<point x="772" y="704" type="curve"/>
			<point x="679" y="761" type="line"/>
			<point x="614" y="625"/>
			<point x="489" y="440"/>
		</contour>
	</outline>
</glyph>
<glyph name="noonghunna-ar" format="2">
  <advance width="648"/>
  <unicode hex="06BA"/>
  <anchor x="351" y="-282" name="bottom"/>
  <anchor x="305" y="550" name="top"/>
  <outline>
    <contour>
      <point x="305" y="-247" type="curve" smooth="yes"/>
      <point x="596" y="-247"/>
      <point x="633" y="60"/>
      <point x="547" y="342" type="curve"/>
      <point x="437" y="326" type="line"/>
      <point x="537" y="71"/>
      <point x="528" y="-192"/>
      <point x="315" y="-192" type="curve" smooth="yes"/>
      <point x="220" y="-192"/>
      <point x="136" y="-139"/>
      <point x="136" y="-26" type="curve" smooth="yes"/>
      <point x="136" y="59"/>
      <point x="186" y="135"/>
      <point x="264" y="184" type="curve"/>
      <point x="213" y="262" type="line"/>
      <point x="120" y="198"/>
      <point x="60" y="108"/>
      <point x="60" y="-6" type="curve" smooth="yes"/>
      <point x="60" y="-136"/>
      <point x="158" y="-247"/>
    </contour>
  </outline>
</glyph>
<glyph name="hehDoachashmee-ar" format="2">
  <advance width="600"/>
  <unicode hex="06BE"/>
  <anchor x="307" y="-132" name="bottom"/>
  <anchor x="315" y="573" name="top"/>
  <outline>
    <contour>
      <point x="349" y="-10" type="curve" smooth="yes"/>
      <point x="479" y="-10"/>
      <point x="540" y="63"/>
      <point x="540" y="151" type="curve" smooth="yes"/>
      <point x="540" y="298"/>
      <point x="384" y="400"/>
      <point x="195" y="448" type="curve"/>
      <point x="138" y="357" type="line"/>
      <point x="318" y="324"/>
      <point x="457" y="248"/>
      <point x="457" y="144" type="curve" smooth="yes"/>
      <point x="457" y="78"/>
      <point x="402" y="50"/>
      <point x="351" y="50" type="curve" smooth="yes"/>
      <point x="256" y="50"/>
      <point x="162" y="111"/>
      <point x="162" y="210" type="curve" smooth="yes"/>
      <point x="162" y="264"/>
      <point x="195" y="303"/>
      <point x="238" y="303" type="curve" smooth="yes"/>
      <point x="277" y="303"/>
      <point x="322" y="282"/>
      <point x="322" y="215" type="curve" smooth="yes"/>
      <point x="322" y="132"/>
      <point x="225" y="44"/>
      <point x="47" y="97" type="curve"/>
      <point x="30" y="0" type="line"/>
      <point x="243" y="-35"/>
      <point x="377" y="81"/>
      <point x="377" y="223" type="curve" smooth="yes"/>
      <point x="377" y="316"/>
      <point x="308" y="369"/>
      <point x="246" y="369" type="curve" smooth="yes"/>
      <point x="176" y="369"/>
      <point x="107" y="311"/>
      <point x="107" y="205" type="curve" smooth="yes"/>
      <point x="107" y="91"/>
      <point x="208" y="-10"/>
    </contour>
  </outline>
</glyph>
<glyph name="yehbarree-ar" format="2">
  <advance width="760"/>
  <unicode hex="06D2"/>
  <anchor x="300" y="-94" name="bottom"/>
  <anchor x="300" y="600" name="top"/>
  <outline>
    <contour>
      <point x="176" y="-10" type="curve" smooth="yes"/>
      <point x="415" y="-10"/>
      <point x="469" y="9"/>
      <point x="708" y="0" type="curve"/>
      <point x="720" y="105" type="line"/>
      <point x="430" y="105"/>
      <point x="300" y="57"/>
      <point x="172" y="57" type="curve" smooth="yes"/>
      <point x="125" y="57"/>
      <point x="95" y="75"/>
      <point x="95" y="123" type="curve" smooth="yes"/>
      <point x="95" y="224"/>
      <point x="237" y="303"/>
      <point x="338" y="303" type="curve" smooth="yes"/>
      <point x="381" y="303"/>
      <point x="407" y="296"/>
      <point x="439" y="279" type="curve"/>
      <point x="427" y="383" type="line"/>
      <point x="395" y="403"/>
      <point x="361" y="412"/>
      <point x="326" y="412" type="curve" smooth="yes"/>
      <point x="184" y="412"/>
      <point x="40" y="258"/>
      <point x="40" y="102" type="curve" smooth="yes"/>
      <point x="40" y="18"/>
      <point x="101" y="-10"/>
    </contour>
  </outline>
</glyph>
<glyph name="fourFarsi-ar" format="2">
  <advance width="658"/>
  <unicode hex="06F4"/>
  <outline>
    <contour>
      <point x="124" y="0" type="curve"/>
      <point x="184" y="11" type="line"/>
      <point x="206" y="148"/>
      <point x="214" y="352"/>
      <point x="210" y="520" type="curve" smooth="yes"/>
      <point x="208" y="594"/>
      <point x="203" y="631"/>
      <point x="195" y="683" type="curve"/>
      <point x="80" y="655" type="line"/>
      <point x="134" y="431"/>
      <point x="142" y="209"/>
    </contour>
    <contour>
      <point x="573" y="284" type="curve"/>
      <point x="551" y="385" type="line"/>
      <point x="440" y="320"/>
      <point x="215" y="366"/>
      <point x="210" y="520" type="curve"/>
      <point x="195" y="462" type="line"/>
      <point x="195" y="304"/>
      <point x="388" y="253"/>
    </contour>
    <contour>
      <point x="551" y="309" type="curve"/>
      <point x="551" y="385" type="line"/>
      <point x="525" y="374"/>
      <point x="482" y="368"/>
      <point x="452" y="368" type="curve" smooth="yes"/>
      <point x="381" y="368"/>
      <point x="321" y="413"/>
      <point x="321" y="489" type="curve" smooth="yes"/>
      <point x="321" y="560"/>
      <point x="382" y="585"/>
      <point x="436" y="585" type="curve" smooth="yes"/>
      <point x="482" y="585"/>
      <point x="526" y="575"/>
      <point x="566" y="553" type="curve"/>
      <point x="608" y="654" type="line"/>
      <point x="538" y="678"/>
      <point x="492" y="689"/>
      <point x="427" y="689" type="curve" smooth="yes"/>
      <point x="320" y="689"/>
      <point x="251" y="620"/>
      <point x="251" y="520" type="curve" smooth="yes"/>
      <point x="251" y="359"/>
      <point x="387" y="309"/>
    </contour>
  </outline>
</glyph>
<glyph name="sixFarsi-ar" format="2">
  <advance width="528"/>
  <unicode hex="06F6"/>
  <outline>
    <contour>
      <point x="175" y="-10" type="line"/>
      <point x="175" y="254"/>
      <point x="301" y="309"/>
      <point x="432" y="309" type="curve"/>
      <point x="420" y="363" type="line"/>
      <point x="168" y="363"/>
      <point x="81" y="187"/>
      <point x="60" y="7" type="curve"/>
    </contour>
    <contour>
      <point x="432" y="309" type="curve"/>
      <point x="421" y="399" type="line"/>
      <point x="376" y="390"/>
      <point x="352" y="388"/>
      <point x="322" y="388" type="curve" smooth="yes"/>
      <point x="262" y="388"/>
      <point x="191" y="421"/>
      <point x="191" y="494" type="curve" smooth="yes"/>
      <point x="191" y="560"/>
      <point x="252" y="585"/>
      <point x="306" y="585" type="curve" smooth="yes"/>
      <point x="352" y="585"/>
      <point x="396" y="575"/>
      <point x="436" y="553" type="curve"/>
      <point x="478" y="654" type="line"/>
      <point x="408" y="678"/>
      <point x="362" y="689"/>
      <point x="297" y="689" type="curve" smooth="yes"/>
      <point x="190" y="689"/>
      <point x="121" y="620"/>
      <point x="121" y="508" type="curve" smooth="yes"/>
      <point x="121" y="359"/>
      <point x="263" y="309"/>
    </contour>
  </outline>
</glyph>
<glyph name="endash" format="2">
	<advance width="480"/>
	<unicode hex="2013"/>
	<outline>
		<contour>
			<point x="48" y="351" type="curve"/>
			<point x="45" y="256" type="line"/>
			<point x="175" y="255"/>
			<point x="305" y="258"/>
			<point x="435" y="267" type="curve"/>
			<point x="434" y="341" type="line"/>
			<point x="305" y="339"/>
			<point x="176" y="343"/>
		</contour>
	</outline>
</glyph>
<glyph name="emdash" format="2">
	<advance width="768"/>
	<unicode hex="2014"/>
	<outline>
		<contour>
			<point x="47" y="354" type="curve"/>
			<point x="45" y="257" type="line"/>
			<point x="271" y="264"/>
			<point x="497" y="266"/>
			<point x="723" y="264" type="curve"/>
			<point x="721" y="343" type="line"/>
			<point x="497" y="352"/>
			<point x="272" y="355"/>
		</contour>
	</outline>
</glyph>
<glyph name="quotesinglbase" format="2">
  <advance width="264"/>
  <unicode hex="201A"/>
  <outline>
    <contour>
      <point x="75" y="-141" type="curve"/>
      <point x="132" y="-136" type="line"/>
      <point x="171" y="-38"/>
      <point x="193" y="66"/>
      <point x="188" y="164" type="curve"/>
      <point x="90" y="147" type="line"/>
      <point x="102" y="51"/>
      <point x="90" y="-45"/>
    </contour>
  </outline>
</glyph>
<glyph name="dagger" format="2">
  <advance width="528"/>
  <unicode hex="2020"/>
  <outline>
    <contour>
      <point x="204" y="-210" type="curve"/>
      <point x="274" y="-203" type="line"/>
      <point x="284" y="143"/>
      <point x="284" y="468"/>
      <point x="274" y="774" type="curve"/>
      <point x="188" y="757" type="line"/>
      <point x="204" y="455"/>
      <point x="209" y="132"/>
    </contour>
    <contour>
      <point x="483" y="373" type="curve"/>
      <point x="480" y="460" type="line"/>
      <point x="366" y="461"/>
      <point x="161" y="458"/>
      <point x="46" y="450" type="curve"/>
      <point x="45" y="384" type="line"/>
      <point x="161" y="385"/>
      <point x="367" y="381"/>
    </contour>
  </outline>
</glyph>
<glyph name="bullet" format="2">
  <advance width="340"/>
  <unicode hex="2022"/>
  <outline>
    <contour>
      <point x="180" y="220" type="curve" smooth="yes"/>
      <point x="244" y="220"/>
      <point x="295" y="271"/>
      <point x="295" y="335" type="curve" smooth="yes"/>
      <point x="295" y="399"/>
      <point x="244" y="450"/>
      <point x="180" y="450" type="curve" smooth="yes"/>
      <point x="116" y="450"/>
      <point x="65" y="399"/>
      <point x="65" y="335" type="curve" smooth="yes"/>
      <point x="65" y="271"/>
      <point x="116" y="220"/>
    </contour>
  </outline>
</glyph>
<glyph name="perthousand" format="2">
  <advance width="1188"/>
  <unicode hex="2030"/>
  <outline>
    <contour>
      <point x="1003" y="-6" type="curve" smooth="yes"/>
      <point x="1071" y="-6"/>
      <point x="1143" y="58"/>
      <point x="1143" y="186" type="curve" smooth="yes"/>
      <point x="1143" y="314"/>
      <point x="1071" y="379"/>
      <point x="1005" y="379" type="curve" smooth="yes"/>
      <point x="938" y="379"/>
      <point x="867" y="315"/>
      <point x="867" y="184" type="curve" smooth="yes"/>
      <point x="867" y="57"/>
      <point x="937" y="-6"/>
    </contour>
    <contour>
      <point x="1003" y="68" type="curve" smooth="yes"/>
      <point x="962" y="68"/>
      <point x="933" y="109"/>
      <point x="933" y="194" type="curve" smooth="yes"/>
      <point x="933" y="274"/>
      <point x="957" y="317"/>
      <point x="1004" y="317" type="curve" smooth="yes"/>
      <point x="1054" y="317"/>
      <point x="1081" y="274"/>
      <point x="1081" y="195" type="curve" smooth="yes"/>
      <point x="1081" y="113"/>
      <point x="1050" y="68"/>
    </contour>
    <component base="percent"/>
  </outline>
</glyph>
<glyph name="guilsinglleft" format="2">
  <advance width="334"/>
  <unicode hex="2039"/>
  <outline>
    <contour>
      <point x="101" y="359" type="line"/>
      <point x="284" y="564" type="line"/>
      <point x="254" y="644" type="line"/>
      <point x="45" y="365" type="line"/>
    </contour>
    <contour>
      <point x="253" y="120" type="line"/>
      <point x="289" y="192" type="line"/>
      <point x="87" y="391" type="line"/>
      <point x="45" y="365" type="line"/>
    </contour>
  </outline>
</glyph>
<glyph name="fraction" format="2">
	<advance width="528"/>
	<unicode hex="2044"/>
	<outline>
		<contour>
			<point x="81" y="-16" type="line"/>
			<point x="488" y="816" type="line"/>
			<point x="443" y="846" type="line"/>
			<point x="29" y="24" type="line"/>
		</contour>
	</outline>
</glyph>
<glyph name="trademark" format="2">
  <advance width="1021"/>
  <unicode hex="2122"/>
  <anchor x="345" y="800" name="top"/>
  <outline>
    <contour>
      <point x="170" y="379" type="curve"/>
      <point x="224" y="387" type="line"/>
      <point x="235" y="499"/>
      <point x="238" y="641"/>
      <point x="228" y="761" type="curve"/>
      <point x="154" y="750" type="line"/>
      <point x="175" y="621"/>
      <point x="175" y="513"/>
    </contour>
    <contour>
      <point x="342" y="708" type="line"/>
      <point x="343" y="766" type="line"/>
      <point x="45" y="758" type="line"/>
      <point x="47" y="710" type="line"/>
    </contour>
    <contour>
      <point x="423" y="379" type="curve"/>
      <point x="484" y="387" type="line"/>
      <point x="493" y="499"/>
      <point x="495" y="641"/>
      <point x="487" y="761" type="curve"/>
      <point x="411" y="750" type="line"/>
      <point x="427" y="621"/>
      <point x="427" y="513"/>
    </contour>
    <contour>
      <point x="634" y="381" type="curve"/>
      <point x="697" y="390" type="line"/>
      <point x="703" y="596"/>
      <point x="694" y="763"/>
      <point x="592" y="763" type="curve" smooth="yes"/>
      <point x="515" y="763"/>
      <point x="469" y="707"/>
      <point x="448" y="498" type="curve"/>
      <point x="490" y="497" type="line"/>
      <point x="493" y="632"/>
      <point x="535" y="723"/>
      <point x="578" y="723" type="curve" smooth="yes"/>
      <point x="637" y="723"/>
      <point x="647" y="524"/>
    </contour>
    <contour>
      <point x="850" y="382" type="curve"/>
      <point x="924" y="390" type="line"/>
      <point x="934" y="574"/>
      <point x="908" y="766"/>
      <point x="802" y="766" type="curve" smooth="yes"/>
      <point x="687" y="766"/>
      <point x="659" y="568"/>
      <point x="658" y="470" type="curve"/>
      <point x="697" y="390" type="line"/>
      <point x="707" y="580"/>
      <point x="739" y="723"/>
      <point x="795" y="723" type="curve" smooth="yes"/>
      <point x="836" y="723"/>
      <point x="866" y="558"/>
    </contour>
  </outline>
</glyph>
<glyph name="parenleft-ar" format="2">
  <advance width="455"/>
  <unicode hex="FD3E"/>
  <outline>
    <contour>
      <point x="263" y="499" type="line"/>
      <point x="259" y="559"/>
      <point x="253" y="621"/>
      <point x="253" y="650" type="curve" smooth="yes"/>
      <point x="253" y="712"/>
      <point x="288" y="722"/>
      <point x="309" y="722" type="curve" smooth="yes"/>
      <point x="343" y="722"/>
      <point x="383" y="707"/>
      <point x="418" y="682" type="curve"/>
      <point x="435" y="763" type="line"/>
      <point x="400" y="774"/>
      <point x="378" y="776"/>
      <point x="349" y="776" type="curve" smooth="yes"/>
      <point x="213" y="776"/>
      <point x="163" y="675"/>
      <point x="163" y="506" type="curve"/>
    </contour>
    <contour>
      <point x="349" y="-132" type="curve" smooth="yes"/>
      <point x="378" y="-132"/>
      <point x="400" y="-130"/>
      <point x="435" y="-119" type="curve"/>
      <point x="418" y="-38" type="line"/>
      <point x="383" y="-63"/>
      <point x="343" y="-78"/>
      <point x="309" y="-78" type="curve" smooth="yes"/>
      <point x="288" y="-78"/>
      <point x="253" y="-68"/>
      <point x="253" y="-6" type="curve" smooth="yes"/>
      <point x="253" y="23"/>
      <point x="259" y="85"/>
      <point x="263" y="145" type="curve"/>
      <point x="163" y="138" type="line"/>
      <point x="163" y="-31"/>
      <point x="213" y="-132"/>
    </contour>
    <component base="asterisk-ar" xScale="0.7" yScale="0.7" xOffset="-31.0" yOffset="142.0"/>
  </outline>
</glyph>
<glyph name="rial" format="2">
  <advance width="1240"/>
  <unicode hex="FDFC"/>
  <outline>
    <contour>
      <point x="298" y="-247" type="curve" smooth="yes"/>
      <point x="484" y="-247"/>
      <point x="590" y="-86"/>
      <point x="590" y="161" type="curve" smooth="yes"/>
      <point x="590" y="361"/>
      <point x="588" y="554"/>
      <point x="566" y="765" type="curve"/>
      <point x="456" y="748" type="line"/>
      <point x="488" y="568"/>
      <point x="515" y="232"/>
      <point x="505" y="75" type="curve" smooth="yes"/>
      <point x="495" y="-74"/>
      <point x="424" y="-192"/>
      <point x="308" y="-192" type="curve" smooth="yes"/>
      <point x="210" y="-192"/>
      <point x="133" y="-139"/>
      <point x="133" y="-26" type="curve" smooth="yes"/>
      <point x="133" y="59"/>
      <point x="180" y="137"/>
      <point x="258" y="204" type="curve"/>
      <point x="207" y="283" type="line"/>
      <point x="114" y="201"/>
      <point x="60" y="108"/>
      <point x="60" y="-6" type="curve" smooth="yes"/>
      <point x="60" y="-136"/>
      <point x="148" y="-247"/>
    </contour>
    <contour>
      <point x="947" y="-76" type="curve" smooth="yes"/>
      <point x="1105" y="-76"/>
      <point x="1180" y="40"/>
      <point x="1180" y="221" type="curve" smooth="yes"/>
      <point x="1180" y="266"/>
      <point x="1176" y="314"/>
      <point x="1168" y="365" type="curve"/>
      <point x="1058" y="340" type="line"/>
      <point x="1073" y="283"/>
      <point x="1085" y="219"/>
      <point x="1085" y="160" type="curve" smooth="yes"/>
      <point x="1085" y="59"/>
      <point x="1042" y="-26"/>
      <point x="947" y="-26" type="curve" smooth="yes"/>
      <point x="850" y="-26"/>
      <point x="813" y="49"/>
      <point x="805" y="150" type="curve" smooth="yes"/>
      <point x="793" y="304"/>
      <point x="805" y="553"/>
      <point x="818" y="762" type="curve"/>
      <point x="710" y="750" type="line"/>
      <point x="708" y="528"/>
      <point x="713" y="273"/>
      <point x="729" y="142" type="curve" smooth="yes"/>
      <point x="748" y="-10"/>
      <point x="831" y="-76"/>
    </contour>
    <contour>
      <point x="904" y="-247" type="curve"/>
      <point x="951" y="-199" type="line"/>
      <point x="966" y="-217"/>
      <point x="988" y="-234"/>
      <point x="1009" y="-247" type="curve"/>
      <point x="1064" y="-190" type="line"/>
      <point x="1039" y="-173"/>
      <point x="1020" y="-155"/>
      <point x="1000" y="-133" type="curve"/>
      <point x="952" y="-185" type="line"/>
      <point x="930" y="-169"/>
      <point x="913" y="-153"/>
      <point x="895" y="-133" type="curve"/>
      <point x="840" y="-192" type="line"/>
      <point x="856" y="-213"/>
      <point x="880" y="-232"/>
    </contour>
    <contour>
      <point x="305" y="239" type="line"/>
      <point x="553" y="459"/>
      <point x="874" y="381"/>
      <point x="1053" y="458" type="curve" smooth="yes"/>
      <point x="1181" y="513"/>
      <point x="1161" y="690"/>
      <point x="1135" y="772" type="curve"/>
      <point x="1038" y="742" type="line"/>
      <point x="1060" y="675"/>
      <point x="1091" y="542"/>
      <point x="977" y="490" type="curve" smooth="yes"/>
      <point x="827" y="421"/>
      <point x="472" y="504"/>
      <point x="252" y="318" type="curve"/>
    </contour>
  </outline>
</glyph>
<glyph name="A.salt" format="2">
  <advance width="738"/>
  <anchor x="338" y="0" name="bottom"/>
  <anchor x="741" y="24" name="ogonek"/>
  <anchor x="338" y="800" name="top"/>
  <outline>
    <contour>
      <point x="131" y="-9" type="line"/>
      <point x="230" y="203"/>
      <point x="320" y="452"/>
      <point x="393" y="698" type="curve"/>
      <point x="413" y="748" type="line"/>
      <point x="361" y="750" type="line"/>
      <point x="277" y="509"/>
      <point x="177" y="258"/>
      <point x="45" y="8" type="curve"/>
    </contour>
    <contour>
      <point x="190" y="197" type="line"/>
      <point x="325" y="182"/>
      <point x="471" y="191"/>
      <point x="563" y="222" type="curve"/>
      <point x="555" y="263" type="line"/>
      <point x="470" y="252"/>
      <point x="337" y="240"/>
      <point x="218" y="263" type="curve"/>
    </contour>
    <contour>
      <point x="569" y="-6" type="curve"/>
      <point x="693" y="12" type="line"/>
      <point x="607" y="205"/>
      <point x="483" y="537"/>
      <point x="413" y="748" type="curve"/>
      <point x="345" y="686" type="line"/>
      <point x="387" y="487"/>
      <point x="489" y="220"/>
    </contour>
  </outline>
</glyph>
<glyph name="F.salt" format="2">
  <advance width="477"/>
  <outline>
    <contour>
      <point x="107" y="5" type="curve"/>
      <point x="216" y="16" type="line"/>
      <point x="191" y="229"/>
      <point x="177" y="373"/>
      <point x="177" y="516" type="curve" smooth="yes"/>
      <point x="177" y="676"/>
      <point x="238" y="712"/>
      <point x="432" y="696" type="curve"/>
      <point x="417" y="776" type="line"/>
      <point x="133" y="776"/>
      <point x="95" y="590"/>
      <point x="95" y="381" type="curve" smooth="yes"/>
      <point x="95" y="298"/>
      <point x="102" y="152"/>
    </contour>
    <contour>
      <point x="374" y="338" type="curve"/>
      <point x="377" y="414" type="line"/>
      <point x="312" y="406"/>
      <point x="234" y="398"/>
      <point x="131" y="404" type="curve"/>
      <point x="130" y="349" type="line"/>
      <point x="221" y="342"/>
      <point x="305" y="339"/>
    </contour>
  </outline>
</glyph>
<glyph name="N_T" format="2">
  <advance width="1245"/>
  <outline>
    <contour>
      <point x="202" y="0" type="line"/>
      <point x="201" y="77"/>
      <point x="205" y="530"/>
      <point x="194" y="727" type="curve"/>
      <point x="102" y="712" type="line"/>
      <point x="113" y="484"/>
      <point x="113" y="230"/>
      <point x="95" y="0" type="curve"/>
    </contour>
    <contour>
      <point x="552" y="0" type="curve" smooth="yes"/>
      <point x="745" y="0"/>
      <point x="742" y="339"/>
      <point x="703" y="593" type="curve"/>
      <point x="595" y="583" type="line"/>
      <point x="643" y="339"/>
      <point x="663" y="61"/>
      <point x="545" y="61" type="curve" smooth="yes"/>
      <point x="405" y="61"/>
      <point x="261" y="467"/>
      <point x="194" y="727" type="curve"/>
      <point x="167" y="540" type="line"/>
      <point x="225" y="307"/>
      <point x="389" y="0"/>
    </contour>
    <contour>
      <point x="867" y="-8" type="curve"/>
      <point x="950" y="7" type="line"/>
      <point x="967" y="232"/>
      <point x="971" y="515"/>
      <point x="956" y="755" type="curve"/>
      <point x="844" y="734" type="line"/>
      <point x="875" y="475"/>
      <point x="875" y="259"/>
    </contour>
    <contour>
      <point x="1199" y="690" type="line"/>
      <point x="1200" y="766" type="line"/>
      <point x="585" y="750" type="line"/>
      <point x="589" y="694" type="line"/>
    </contour>
  </outline>
</glyph>
<glyph name="T_H" format="2">
  <advance width="1301"/>
  <outline>
    <contour>
      <point x="307" y="-8" type="curve"/>
      <point x="390" y="7" type="line"/>
      <point x="407" y="232"/>
      <point x="411" y="515"/>
      <point x="396" y="755" type="curve"/>
      <point x="284" y="734" type="line"/>
      <point x="315" y="475"/>
      <point x="315" y="259"/>
    </contour>
    <contour>
      <point x="604" y="-9" type="curve"/>
      <point x="687" y="7" type="line"/>
      <point x="699" y="160"/>
      <point x="703" y="380"/>
      <point x="700" y="555" type="curve"/>
      <point x="601" y="535" type="line"/>
      <point x="610" y="370"/>
      <point x="609" y="173"/>
    </contour>
    <contour>
      <point x="699" y="690" type="line"/>
      <point x="700" y="766" type="line"/>
      <point x="45" y="750" type="line"/>
      <point x="49" y="694" type="line"/>
    </contour>
    <contour>
      <point x="624" y="332" type="line"/>
      <point x="757" y="312"/>
      <point x="1029" y="309"/>
      <point x="1188" y="338" type="curve"/>
      <point x="1157" y="424" type="line"/>
      <point x="1017" y="368"/>
      <point x="732" y="378"/>
      <point x="631" y="392" type="curve"/>
    </contour>
    <contour>
      <point x="1109" y="-9" type="curve"/>
      <point x="1192" y="7" type="line"/>
      <point x="1209" y="232"/>
      <point x="1211" y="517"/>
      <point x="1196" y="757" type="curve"/>
      <point x="1086" y="734" type="line"/>
      <point x="1116" y="472"/>
      <point x="1117" y="258"/>
    </contour>
  </outline>
</glyph>
<glyph name="T_T" format="2">
  <advance width="1090"/>
  <outline>
    <contour>
      <point x="302" y="-8" type="curve"/>
      <point x="385" y="7" type="line"/>
      <point x="402" y="232"/>
      <point x="406" y="575"/>
      <point x="391" y="815" type="curve"/>
      <point x="279" y="794" type="line"/>
      <point x="310" y="535"/>
      <point x="310" y="259"/>
    </contour>
    <contour>
      <point x="712" y="-8" type="curve"/>
      <point x="795" y="7" type="line"/>
      <point x="812" y="232"/>
      <point x="816" y="515"/>
      <point x="801" y="755" type="curve"/>
      <point x="689" y="734" type="line"/>
      <point x="720" y="475"/>
      <point x="720" y="259"/>
    </contour>
    <contour>
      <point x="1043" y="690" type="line"/>
      <point x="1045" y="766" type="line"/>
      <point x="45" y="750" type="line"/>
      <point x="46" y="694" type="line"/>
    </contour>
  </outline>
</glyph>
<glyph name="_cap.strokebutt" format="2">
	<advance width="180"/>
	<anchor x="50" y="50" name="origin"/>
	<outline>
		<contour>
			<point x="50" y="50" type="move"/>
			<point x="70" y="75" type="line"/>
			<point x="50" y="100" type="line"/>
		</contour>
	</outline>
</glyph>
<glyph name="ain-ar.fina" format="2">
  <advance width="630"/>
  <anchor x="297" y="-460" name="bottom"/>
  <anchor x="334" y="550" name="top"/>
  <outline>
    <contour>
      <point x="328" y="-422" type="curve" smooth="yes"/>
      <point x="387" y="-422"/>
      <point x="451" y="-411"/>
      <point x="559" y="-381" type="curve"/>
      <point x="515" y="-288" type="line"/>
      <point x="432" y="-324"/>
      <point x="355" y="-334"/>
      <point x="304" y="-334" type="curve" smooth="yes"/>
      <point x="214" y="-334"/>
      <point x="95" y="-309"/>
      <point x="95" y="-181" type="curve" smooth="yes"/>
      <point x="95" y="72"/>
      <point x="550" y="50"/>
      <point x="550" y="295" type="curve" smooth="yes"/>
      <point x="550" y="388"/>
      <point x="486" y="441"/>
      <point x="368" y="441" type="curve" smooth="yes"/>
      <point x="276" y="441"/>
      <point x="179" y="381"/>
      <point x="80" y="312" type="curve"/>
      <point x="95" y="263" type="line"/>
      <point x="187" y="317"/>
      <point x="269" y="365"/>
      <point x="334" y="370" type="curve" smooth="yes"/>
      <point x="413" y="376"/>
      <point x="445" y="327"/>
      <point x="445" y="281" type="curve" smooth="yes"/>
      <point x="445" y="130"/>
      <point x="40" y="103"/>
      <point x="40" y="-181" type="curve" smooth="yes"/>
      <point x="40" y="-333"/>
      <point x="162" y="-422"/>
    </contour>
    <contour>
      <point x="630" y="0" type="curve"/>
      <point x="630" y="50" type="line"/>
      <point x="409" y="50"/>
      <point x="306" y="312"/>
      <point x="80" y="312" type="curve"/>
      <point x="87" y="222" type="line"/>
      <point x="259" y="222"/>
      <point x="389" y="0"/>
    </contour>
  </outline>
</glyph>
<glyph name="ain-ar.init" format="2">
  <advance width="520"/>
  <anchor x="262" y="-60" name="bottom"/>
  <anchor x="252" y="550" name="top"/>
  <outline>
    <contour>
      <point x="480" y="77" type="line"/>
      <point x="441" y="182" type="line"/>
      <point x="382" y="151"/>
      <point x="325" y="138"/>
      <point x="276" y="138" type="curve" smooth="yes"/>
      <point x="184" y="138"/>
      <point x="120" y="183"/>
      <point x="120" y="238" type="curve" smooth="yes"/>
      <point x="120" y="306"/>
      <point x="173" y="338"/>
      <point x="237" y="338" type="curve" smooth="yes"/>
      <point x="287" y="338"/>
      <point x="346" y="318"/>
      <point x="390" y="281" type="curve"/>
      <point x="457" y="356" type="line"/>
      <point x="398" y="405"/>
      <point x="324" y="429"/>
      <point x="256" y="429" type="curve" smooth="yes"/>
      <point x="151" y="429"/>
      <point x="60" y="372"/>
      <point x="60" y="262" type="curve" smooth="yes"/>
      <point x="60" y="176"/>
      <point x="124" y="73"/>
      <point x="264" y="73" type="curve"/>
    </contour>
    <contour>
      <point x="0" y="0" type="line"/>
      <point x="111" y="0"/>
      <point x="329" y="26"/>
      <point x="480" y="77" type="curve"/>
      <point x="417" y="160" type="line"/>
      <point x="290" y="97"/>
      <point x="82" y="50"/>
      <point x="0" y="50" type="curve"/>
    </contour>
  </outline>
</glyph>
<glyph name="ain-ar.medi" format="2">
  <advance width="610"/>
  <anchor x="292" y="-60" name="bottom"/>
  <anchor x="334" y="550" name="top"/>
  <outline>
    <contour>
      <point x="0" y="0" type="line"/>
      <point x="171" y="0"/>
      <point x="530" y="93"/>
      <point x="530" y="295" type="curve" smooth="yes"/>
      <point x="530" y="388"/>
      <point x="466" y="441"/>
      <point x="348" y="441" type="curve" smooth="yes"/>
      <point x="256" y="441"/>
      <point x="159" y="381"/>
      <point x="60" y="312" type="curve"/>
      <point x="75" y="263" type="line"/>
      <point x="167" y="317"/>
      <point x="249" y="365"/>
      <point x="314" y="370" type="curve" smooth="yes"/>
      <point x="393" y="376"/>
      <point x="425" y="327"/>
      <point x="425" y="281" type="curve" smooth="yes"/>
      <point x="425" y="159"/>
      <point x="200" y="50"/>
      <point x="0" y="50" type="curve"/>
    </contour>
    <contour>
      <point x="610" y="0" type="curve"/>
      <point x="610" y="50" type="line"/>
      <point x="389" y="50"/>
      <point x="286" y="312"/>
      <point x="60" y="312" type="curve"/>
      <point x="67" y="222" type="line"/>
      <point x="239" y="222"/>
      <point x="369" y="0"/>
    </contour>
  </outline>
</glyph>
<glyph name="ain_reh-ar" format="2">
  <advance width="720"/>
  <anchor x="491" y="-42" name="bottom_1"/>
  <anchor x="248" y="-300" name="bottom_2"/>
  <anchor x="299" y="0" name="caret_1"/>
  <anchor x="468" y="569" name="top_1"/>
  <anchor x="126" y="400" name="top_2"/>
  <outline>
    <contour>
      <point x="1" y="-430" type="line"/>
      <point x="111" y="-339"/>
      <point x="161" y="-220"/>
      <point x="183" y="-88" type="curve" smooth="yes"/>
      <point x="196" y="-11"/>
      <point x="247" y="-1"/>
      <point x="317" y="13" type="curve" smooth="yes"/>
      <point x="367" y="23"/>
      <point x="529" y="16"/>
      <point x="680" y="67" type="curve"/>
      <point x="617" y="150" type="line"/>
      <point x="490" y="87"/>
      <point x="406" y="73"/>
      <point x="293" y="63" type="curve" smooth="yes"/>
      <point x="216" y="56"/>
      <point x="132" y="40"/>
      <point x="107" y="-67" type="curve" smooth="yes"/>
      <point x="76" y="-199"/>
      <point x="31" y="-269"/>
      <point x="-80" y="-352" type="curve"/>
    </contour>
    <contour>
      <point x="680" y="67" type="line"/>
      <point x="641" y="172" type="line"/>
      <point x="582" y="141"/>
      <point x="525" y="138"/>
      <point x="476" y="138" type="curve" smooth="yes"/>
      <point x="384" y="138"/>
      <point x="320" y="183"/>
      <point x="320" y="238" type="curve" smooth="yes"/>
      <point x="320" y="306"/>
      <point x="373" y="338"/>
      <point x="437" y="338" type="curve" smooth="yes"/>
      <point x="487" y="338"/>
      <point x="546" y="318"/>
      <point x="590" y="281" type="curve"/>
      <point x="657" y="356" type="line"/>
      <point x="598" y="405"/>
      <point x="524" y="429"/>
      <point x="456" y="429" type="curve" smooth="yes"/>
      <point x="351" y="429"/>
      <point x="260" y="372"/>
      <point x="260" y="262" type="curve" smooth="yes"/>
      <point x="260" y="176"/>
      <point x="324" y="73"/>
      <point x="464" y="73" type="curve"/>
    </contour>
  </outline>
</glyph>
<glyph name="alef-ar.fina" format="2">
  <advance width="293"/>
  <anchor x="186" y="0" name="bottom"/>
  <anchor x="125" y="775" name="top"/>
  <outline>
    <contour>
      <point x="293" y="0" type="curve"/>
      <point x="293" y="50" type="line"/>
      <point x="220" y="50"/>
      <point x="183" y="101"/>
      <point x="175" y="202" type="curve" smooth="yes"/>
      <point x="163" y="356"/>
      <point x="175" y="521"/>
      <point x="188" y="730" type="curve"/>
      <point x="80" y="718" type="line"/>
      <point x="78" y="496"/>
      <point x="83" y="325"/>
      <point x="99" y="194" type="curve" smooth="yes"/>
      <point x="118" y="42"/>
      <point x="201" y="0"/>
    </contour>
  </outline>
</glyph>
<glyph name="alef-ar.fina.salt" format="2">
  <advance width="293"/>
  <anchor x="148" y="-64" name="bottom"/>
  <anchor x="128" y="690" name="top"/>
  <outline>
    <contour>
      <point x="293" y="0" type="curve"/>
      <point x="293" y="50" type="line"/>
      <point x="220" y="50"/>
      <point x="183" y="101"/>
      <point x="175" y="202" type="curve" smooth="yes"/>
      <point x="163" y="356"/>
      <point x="175" y="518"/>
      <point x="188" y="682" type="curve"/>
      <point x="80" y="670" type="line"/>
      <point x="78" y="493"/>
      <point x="83" y="325"/>
      <point x="99" y="194" type="curve" smooth="yes"/>
      <point x="118" y="42"/>
      <point x="201" y="0"/>
    </contour>
  </outline>
</glyph>
<glyph name="alef-ar.salt" format="2">
  <advance width="273"/>
  <anchor x="138" y="-74" name="bottom"/>
  <anchor x="138" y="690" name="top"/>
  <outline>
    <contour>
      <point x="106" y="-15" type="curve"/>
      <point x="166" y="-1" type="line"/>
      <point x="191" y="199"/>
      <point x="198" y="426"/>
      <point x="190" y="676" type="curve"/>
      <point x="80" y="661" type="line"/>
      <point x="112" y="419"/>
      <point x="116" y="218"/>
    </contour>
  </outline>
</glyph>
<glyph name="alefMaksura-ar.fina" format="2">
  <advance width="740"/>
  <anchor x="439" y="-350" name="bottom"/>
  <anchor x="339" y="176" name="top"/>
  <outline>
    <contour>
      <point x="740" y="0" type="curve"/>
      <point x="740" y="50" type="line"/>
      <point x="637" y="50"/>
      <point x="564" y="84"/>
      <point x="421" y="74" type="curve"/>
      <point x="441" y="13" type="line"/>
      <point x="560" y="34"/>
      <point x="686" y="0"/>
    </contour>
    <contour>
      <point x="408" y="-310" type="curve" smooth="yes"/>
      <point x="600" y="-310"/>
      <point x="696" y="-176"/>
      <point x="696" y="-65" type="curve" smooth="yes"/>
      <point x="696" y="64"/>
      <point x="553" y="57"/>
      <point x="421" y="74" type="curve"/>
      <point x="401" y="-31" type="line"/>
      <point x="569" y="-10"/>
      <point x="636" y="-45"/>
      <point x="636" y="-96" type="curve" smooth="yes"/>
      <point x="636" y="-161"/>
      <point x="548" y="-230"/>
      <point x="420" y="-230" type="curve" smooth="yes"/>
      <point x="301" y="-230"/>
      <point x="162" y="-151"/>
      <point x="141" y="110" type="curve"/>
      <point x="40" y="72" type="line"/>
      <point x="62" y="-177"/>
      <point x="225" y="-310"/>
    </contour>
  </outline>
</glyph>
<glyph name="alefMaksura_noon-ar.fina" format="2">
  <advance width="960"/>
  <anchor x="747" y="-111" name="bottom_1"/>
  <anchor x="299" y="-339" name="bottom_2"/>
  <anchor x="576" y="0" name="caret_1"/>
  <anchor x="737" y="563" name="top_1"/>
  <anchor x="358" y="493" name="top_2"/>
  <anchor x="360" y="255" name="_top"/>
  <outline>
    <contour>
      <point x="535" y="215" type="line"/>
      <point x="610" y="265"/>
      <point x="644" y="278"/>
      <point x="690" y="280" type="curve" smooth="yes"/>
      <point x="790" y="284"/>
      <point x="709" y="0"/>
      <point x="960" y="0" type="curve"/>
      <point x="960" y="50" type="line"/>
      <point x="788" y="50"/>
      <point x="903" y="354"/>
      <point x="713" y="354" type="curve" smooth="yes"/>
      <point x="655" y="354"/>
      <point x="545" y="302"/>
      <point x="482" y="269" type="curve"/>
      <point x="522" y="-2"/>
      <point x="478" y="-192"/>
      <point x="315" y="-192" type="curve" smooth="yes"/>
      <point x="220" y="-192"/>
      <point x="136" y="-139"/>
      <point x="136" y="-26" type="curve" smooth="yes"/>
      <point x="136" y="59"/>
      <point x="186" y="135"/>
      <point x="264" y="184" type="curve"/>
      <point x="213" y="262" type="line"/>
      <point x="120" y="198"/>
      <point x="60" y="108"/>
      <point x="60" y="-6" type="curve" smooth="yes"/>
      <point x="60" y="-136"/>
      <point x="158" y="-247"/>
      <point x="305" y="-247" type="curve" smooth="yes"/>
      <point x="539" y="-247"/>
      <point x="609" y="-9"/>
      <point x="576" y="272" type="curve"/>
    </contour>
    <component base="dotabove-ar" xOffset="314" yOffset="-409"/>
  </outline>
</glyph>
<glyph name="behDotless-ar.fina" format="2">
  <advance width="870"/>
  <anchor x="476" y="-75" name="bottom"/>
  <anchor x="447" y="500" name="top"/>
  <outline>
    <contour>
      <point x="487" y="-7" type="curve" smooth="yes"/>
      <point x="650" y="-7"/>
      <point x="747" y="74"/>
      <point x="747" y="172" type="curve"/>
      <point x="775" y="202" type="line"/>
      <point x="775" y="265"/>
      <point x="771" y="302"/>
      <point x="760" y="350" type="curve"/>
      <point x="650" y="318" type="line"/>
      <point x="693" y="217"/>
      <point x="689" y="50"/>
      <point x="490" y="50" type="curve" smooth="yes"/>
      <point x="380" y="50"/>
      <point x="210" y="95"/>
      <point x="135" y="280" type="curve"/>
      <point x="40" y="220" type="line"/>
      <point x="156" y="37"/>
      <point x="343" y="-7"/>
    </contour>
    <contour>
      <point x="870" y="0" type="curve"/>
      <point x="870" y="50" type="line"/>
      <point x="816" y="50"/>
      <point x="775" y="96"/>
      <point x="775" y="202" type="curve"/>
      <point x="712" y="202" type="line"/>
      <point x="712" y="50"/>
      <point x="788" y="0"/>
    </contour>
  </outline>
</glyph>
<glyph name="behDotless-ar.init" format="2">
  <advance width="310"/>
  <anchor x="175" y="-75" name="bottom"/>
  <anchor x="186" y="500" name="top"/>
  <outline>
    <contour>
      <point x="0" y="0" type="line"/>
      <point x="182" y="0"/>
      <point x="250" y="106"/>
      <point x="250" y="287" type="curve" smooth="yes"/>
      <point x="250" y="332"/>
      <point x="246" y="370"/>
      <point x="238" y="421" type="curve"/>
      <point x="128" y="396" type="line"/>
      <point x="143" y="339"/>
      <point x="155" y="285"/>
      <point x="155" y="226" type="curve" smooth="yes"/>
      <point x="155" y="125"/>
      <point x="119" y="50"/>
      <point x="0" y="50" type="curve"/>
    </contour>
  </outline>
</glyph>
<glyph name="behDotless-ar.medi.calt" format="2">
  <advance width="350"/>
  <anchor x="175" y="-75" name="bottom"/>
  <anchor x="186" y="500" name="top"/>
  <outline>
    <contour>
      <point x="0" y="0" type="line"/>
      <point x="183" y="0"/>
      <point x="247" y="103"/>
      <point x="238" y="261" type="curve"/>
      <point x="133" y="246" type="line"/>
      <point x="146" y="111"/>
      <point x="106" y="50"/>
      <point x="0" y="50" type="curve"/>
    </contour>
    <contour>
      <point x="350" y="0" type="curve"/>
      <point x="350" y="50" type="line"/>
      <point x="245" y="50"/>
      <point x="213" y="128"/>
      <point x="213" y="224" type="curve"/>
      <point x="168" y="190" type="line"/>
      <point x="168" y="98"/>
      <point x="213" y="0"/>
    </contour>
  </outline>
</glyph>
<glyph name="behDotless-ar.medi" format="2">
  <advance width="350"/>
  <anchor x="175" y="-75" name="bottom"/>
  <anchor x="186" y="500" name="top"/>
  <outline>
    <contour>
      <point x="0" y="0" type="line"/>
      <point x="110" y="0"/>
      <point x="207" y="74"/>
      <point x="207" y="172" type="curve"/>
      <point x="235" y="202" type="line"/>
      <point x="235" y="244"/>
      <point x="237" y="287"/>
      <point x="240" y="331" type="curve"/>
      <point x="130" y="317" type="line"/>
      <point x="145" y="139"/>
      <point x="113" y="50"/>
      <point x="0" y="50" type="curve"/>
    </contour>
    <contour>
      <point x="350" y="0" type="curve"/>
      <point x="350" y="50" type="line"/>
      <point x="277" y="50"/>
      <point x="235" y="101"/>
      <point x="235" y="202" type="curve"/>
      <point x="172" y="202" type="line"/>
      <point x="172" y="50"/>
      <point x="258" y="0"/>
    </contour>
  </outline>
</glyph>
<glyph name="behDotless_alefMaksura-ar.fina" format="2">
  <advance width="950"/>
  <anchor x="827" y="-172" name="bottom_1"/>
  <anchor x="410" y="-387" name="bottom_2"/>
  <anchor x="690" y="0" name="caret_1"/>
  <anchor x="710" y="522" name="top_1"/>
  <anchor x="247" y="400" name="top_2"/>
  <outline>
    <contour>
      <point x="408" y="-310" type="curve" smooth="yes"/>
      <point x="600" y="-310"/>
      <point x="696" y="-176"/>
      <point x="696" y="-55" type="curve" smooth="yes"/>
      <point x="696" y="104"/>
      <point x="462" y="112"/>
      <point x="371" y="94" type="curve"/>
      <point x="349" y="-21" type="line"/>
      <point x="562" y="22"/>
      <point x="636" y="-35"/>
      <point x="636" y="-86" type="curve" smooth="yes"/>
      <point x="636" y="-161"/>
      <point x="548" y="-230"/>
      <point x="420" y="-230" type="curve" smooth="yes"/>
      <point x="301" y="-230"/>
      <point x="162" y="-151"/>
      <point x="141" y="110" type="curve"/>
      <point x="40" y="72" type="line"/>
      <point x="62" y="-177"/>
      <point x="225" y="-310"/>
    </contour>
    <contour>
      <point x="349" y="-21" type="curve"/>
      <point x="418" y="33" type="line"/>
      <point x="418" y="212"/>
      <point x="607" y="275"/>
      <point x="670" y="275" type="curve" smooth="yes"/>
      <point x="759" y="275"/>
      <point x="669" y="0"/>
      <point x="950" y="0" type="curve"/>
      <point x="950" y="51" type="line"/>
      <point x="788" y="51"/>
      <point x="862" y="374"/>
      <point x="703" y="374" type="curve" smooth="yes"/>
      <point x="538" y="374"/>
      <point x="349" y="202"/>
    </contour>
  </outline>
</glyph>
<glyph name="behDotless_reh-ar.fina" format="2">
  <advance width="591"/>
  <anchor x="444" y="-72" name="bottom_1"/>
  <anchor x="205" y="-320" name="bottom_2"/>
  <anchor x="300" y="0" name="caret_1"/>
  <anchor x="390" y="528" name="top_1"/>
  <anchor x="135" y="450" name="top_2"/>
  <outline>
    <contour>
      <point x="1" y="-420" type="line"/>
      <point x="184" y="-237"/>
      <point x="197" y="-36"/>
      <point x="205" y="78" type="curve" smooth="yes"/>
      <point x="215" y="222"/>
      <point x="267" y="285"/>
      <point x="320" y="285" type="curve"/>
      <point x="424" y="285"/>
      <point x="340" y="0"/>
      <point x="591" y="0" type="curve"/>
      <point x="591" y="50" type="line"/>
      <point x="419" y="50"/>
      <point x="537" y="354"/>
      <point x="353" y="354" type="curve" smooth="yes"/>
      <point x="282" y="354"/>
      <point x="157" y="317"/>
      <point x="127" y="58" type="curve" smooth="yes"/>
      <point x="112" y="-71"/>
      <point x="70" y="-202"/>
      <point x="-80" y="-340" type="curve"/>
    </contour>
  </outline>
</glyph>
<glyph name="behDotless_reh-ar" format="2">
  <advance width="600"/>
  <anchor x="471" y="-86" name="bottom_1"/>
  <anchor x="232" y="-357" name="bottom_2"/>
  <anchor x="293" y="0" name="caret_1"/>
  <anchor x="433" y="531" name="top_1"/>
  <anchor x="131" y="400" name="top_2"/>
  <outline>
    <contour>
      <point x="1" y="-430" type="line"/>
      <point x="111" y="-339"/>
      <point x="158" y="-220"/>
      <point x="183" y="-88" type="curve" smooth="yes"/>
      <point x="220" y="106"/>
      <point x="540" y="-76"/>
      <point x="540" y="266" type="curve" smooth="yes"/>
      <point x="540" y="311"/>
      <point x="536" y="356"/>
      <point x="528" y="407" type="curve"/>
      <point x="418" y="373" type="line"/>
      <point x="433" y="319"/>
      <point x="445" y="255"/>
      <point x="445" y="196" type="curve" smooth="yes"/>
      <point x="445" y="0"/>
      <point x="165" y="148"/>
      <point x="107" y="-67" type="curve" smooth="yes"/>
      <point x="71" y="-199"/>
      <point x="31" y="-269"/>
      <point x="-80" y="-352" type="curve"/>
    </contour>
  </outline>
</glyph>
<glyph name="caron.ar" format="2">
	<advance width="300"/>
	<anchor x="150" y="520" name="_top"/>
	<anchor x="150" y="740" name="top"/>
	<outline>
		<contour>
			<point x="84" y="721" type="curve"/>
			<point x="21" y="690" type="line"/>
			<point x="69" y="642"/>
			<point x="97" y="606"/>
			<point x="140" y="551" type="curve"/>
			<point x="160" y="569" type="line"/>
			<point x="138" y="620"/>
			<point x="113" y="667"/>
		</contour>
		<contour>
			<point x="284" y="690" type="curve"/>
			<point x="221" y="721" type="line"/>
			<point x="192" y="671"/>
			<point x="166" y="620"/>
			<point x="145" y="569" type="curve"/>
			<point x="140" y="551" type="line"/>
			<point x="165" y="551" type="line"/>
			<point x="205" y="604"/>
			<point x="238" y="646"/>
		</contour>
	</outline>
</glyph>
<glyph name="dal-ar.fina" format="2">
  <advance width="440"/>
  <anchor x="227" y="-75" name="bottom"/>
  <anchor x="214" y="600" name="top"/>
  <outline>
    <contour>
      <point x="39" y="0" type="line"/>
      <point x="204" y="0"/>
      <point x="298" y="57"/>
      <point x="298" y="165" type="curve"/>
      <point x="268" y="172" type="line"/>
      <point x="268" y="80"/>
      <point x="313" y="0"/>
      <point x="440" y="0" type="curve"/>
      <point x="440" y="50" type="line"/>
      <point x="353" y="50"/>
      <point x="325" y="121"/>
      <point x="325" y="229" type="curve" smooth="yes"/>
      <point x="325" y="264"/>
      <point x="320" y="364"/>
      <point x="305" y="438" type="curve"/>
      <point x="199" y="417" type="line"/>
      <point x="224" y="347"/>
      <point x="249" y="230"/>
      <point x="249" y="178" type="curve" smooth="yes"/>
      <point x="249" y="70"/>
      <point x="117" y="59"/>
      <point x="30" y="70" type="curve"/>
    </contour>
  </outline>
</glyph>
<glyph name="dotabove-ar" format="2">
  <anchor x="46" y="664" name="_top"/>
  <anchor x="50" y="835" name="top"/>
  <outline>
    <contour>
      <point x="55" y="688" type="curve"/>
      <point x="113" y="748" type="line"/>
      <point x="86" y="766"/>
      <point x="66" y="785"/>
      <point x="45" y="808" type="curve"/>
      <point x="-13" y="746" type="line"/>
      <point x="4" y="724"/>
      <point x="29" y="704"/>
    </contour>
  </outline>
</glyph>
<glyph name="dotbelow-ar" format="2">
  <anchor x="50" y="-10" name="_bottom"/>
  <anchor x="50" y="-192" name="bottom"/>
  <outline>
    <contour>
      <point x="55" y="-151" type="curve"/>
      <point x="113" y="-91" type="line"/>
      <point x="86" y="-73"/>
      <point x="66" y="-54"/>
      <point x="45" y="-31" type="curve"/>
      <point x="-13" y="-93" type="line"/>
      <point x="4" y="-115"/>
      <point x="29" y="-135"/>
    </contour>
  </outline>
</glyph>
<glyph name="dotcenter-ar" format="2">
  <anchor x="50" y="400" name="_center"/>
  <outline>
    <contour>
      <point x="55" y="345" type="curve"/>
      <point x="113" y="405" type="line"/>
      <point x="86" y="423"/>
      <point x="66" y="442"/>
      <point x="45" y="465" type="curve"/>
      <point x="-13" y="403" type="line"/>
      <point x="4" y="381"/>
      <point x="29" y="361"/>
    </contour>
  </outline>
</glyph>
